<svg width="56" height="56" viewBox="0 0 56 56" fill="none" xmlns="http://www.w3.org/2000/svg">
<path d="M37.3333 18.6667C36.4007 18.6662 35.4704 18.76 34.5566 18.9467C34.775 19.7106 34.931 20.4909 35.0233 21.28C35.7811 21.1047 36.5555 21.0108 37.3333 21C39.4279 20.9862 41.4877 21.5366 43.2962 22.5934C45.1048 23.6502 46.5954 25.1745 47.6117 27.0061C48.628 28.8378 49.1324 30.9092 49.0719 33.003C49.0115 35.0968 48.3885 37.1358 47.2682 38.9057C46.148 40.6757 44.5719 42.1114 42.7054 43.0622C40.8389 44.0129 38.7509 44.4436 36.6605 44.309C34.5702 44.1744 32.5546 43.4795 30.8254 42.2973C29.0963 41.115 27.7173 39.489 26.8333 37.59C26.1482 37.9637 25.4388 38.2911 24.71 38.57C25.7696 40.8486 27.4231 42.8 29.4968 44.2194C31.5705 45.6388 33.988 46.4739 36.4956 46.637C39.0033 46.8001 41.5086 46.2853 43.7487 45.1465C45.9888 44.0077 47.8811 42.2869 49.227 40.1648C50.573 38.0427 51.3229 35.5974 51.3981 33.0856C51.4733 30.5738 50.8711 28.088 49.6546 25.8891C48.4381 23.6903 46.6521 21.8594 44.4842 20.5886C42.3162 19.3178 39.8462 18.6539 37.3333 18.6667V18.6667Z" fill="#00C9E5"/>
<path d="M38.9201 32.6666L41.7434 29.8433C41.8528 29.7348 41.9396 29.6058 41.9988 29.4636C42.058 29.3214 42.0885 29.1689 42.0885 29.0149C42.0885 28.8609 42.058 28.7084 41.9988 28.5663C41.9396 28.4241 41.8528 28.295 41.7434 28.1866C41.5214 27.9713 41.2243 27.851 40.9151 27.851C40.6059 27.851 40.3088 27.9713 40.0868 28.1866L37.3334 30.9866L34.5334 28.1633C34.3114 27.948 34.0143 27.8276 33.7051 27.8276C33.3959 27.8276 33.0988 27.948 32.8768 28.1633C32.7674 28.2717 32.6806 28.4007 32.6214 28.5429C32.5622 28.6851 32.5317 28.8376 32.5317 28.9916C32.5317 29.1456 32.5622 29.2981 32.6214 29.4403C32.6806 29.5824 32.7674 29.7115 32.8768 29.8199L35.6301 32.6666L32.8068 35.4666C32.6469 35.6297 32.5384 35.8361 32.4947 36.0602C32.451 36.2844 32.4741 36.5164 32.561 36.7276C32.648 36.9387 32.795 37.1198 32.9838 37.2482C33.1727 37.3766 33.3951 37.4467 33.6234 37.4499C33.9387 37.4491 34.2409 37.3233 34.4634 37.0999L37.3334 34.2999L40.1568 37.0999C40.3793 37.3233 40.6814 37.4491 40.9968 37.4499C41.3045 37.4455 41.598 37.3197 41.8134 37.0999C41.925 36.9952 42.014 36.8687 42.0748 36.7282C42.1356 36.5877 42.167 36.4363 42.167 36.2833C42.167 36.1302 42.1356 35.9788 42.0748 35.8383C42.014 35.6978 41.925 35.5713 41.8134 35.4666L38.9201 32.6666Z" fill="#00C9E5"/>
<path d="M18.8066 9.3335C16.0377 9.3335 13.331 10.1546 11.0287 11.6929C8.72638 13.2313 6.93196 15.4178 5.87233 17.9759C4.81271 20.5341 4.53546 23.349 5.07565 26.0648C5.61585 28.7805 6.94922 31.2751 8.90715 33.233C10.8651 35.1909 13.3596 36.5243 16.0754 37.0645C18.7911 37.6047 21.606 37.3274 24.1642 36.2678C26.7224 35.2082 28.9089 33.4138 30.4472 31.1115C31.9856 28.8092 32.8066 26.1024 32.8066 23.3335C32.8066 19.6205 31.3316 16.0595 28.7061 13.434C26.0806 10.8085 22.5197 9.3335 18.8066 9.3335V9.3335ZM18.8066 35.0002C16.4992 35.0002 14.2436 34.3159 12.325 33.034C10.4064 31.752 8.91107 29.9299 8.02805 27.7981C7.14503 25.6663 6.91399 23.3206 7.36415 21.0574C7.81431 18.7943 8.92545 16.7155 10.5571 15.0839C12.1887 13.4523 14.2675 12.3412 16.5306 11.891C18.7937 11.4408 21.1395 11.6719 23.2713 12.5549C25.4031 13.4379 27.2252 14.9333 28.5071 16.8518C29.7891 18.7704 30.4733 21.026 30.4733 23.3335C30.4733 26.4277 29.2441 29.3951 27.0562 31.5831C24.8683 33.771 21.9008 35.0002 18.8066 35.0002Z" fill="#007ADF"/>
<path d="M17.2201 28.1631C17.058 28.1708 16.896 28.1458 16.7437 28.0897C16.5914 28.0336 16.4519 27.9475 16.3334 27.8365L13.0668 24.5465C12.9574 24.438 12.8706 24.309 12.8114 24.1668C12.7522 24.0246 12.7217 23.8721 12.7217 23.7181C12.7217 23.5641 12.7522 23.4116 12.8114 23.2695C12.8706 23.1273 12.9574 22.9983 13.0668 22.8898C13.2849 22.676 13.5781 22.5563 13.8834 22.5563C14.1888 22.5563 14.482 22.676 14.7001 22.8898L17.1734 25.3631L23.6368 18.8765C23.8549 18.6627 24.1481 18.543 24.4534 18.543C24.7588 18.543 25.052 18.6627 25.2701 18.8765C25.3795 18.9849 25.4663 19.114 25.5255 19.2561C25.5847 19.3983 25.6152 19.5508 25.6152 19.7048C25.6152 19.8588 25.5847 20.0113 25.5255 20.1535C25.4663 20.2956 25.3795 20.4247 25.2701 20.5331L18.0368 27.8365C17.8176 28.0477 17.5245 28.165 17.2201 28.1631V28.1631Z" fill="#007ADF"/>
<div xmlns="" id="divScriptsUsed" style="display: none"/><script xmlns="" id="globalVarsDetection" src="moz-extension://4f013c2a-fc70-4c74-bac1-cb59135211ca/js/wrs_env.js"/></svg>