<svg width="60" height="44" viewBox="0 0 60 44" fill="none" xmlns="http://www.w3.org/2000/svg">
<path d="M22.0414 32.0044L22.0422 32.0034C25.4539 27.6073 27.1264 22.094 27.1264 15.5366C27.1264 10.8817 25.8319 7.20076 23.0864 4.67825L23.0864 4.67823L23.0804 4.6728C20.3822 2.23374 17.22 1 13.6363 1C10.7426 1 8.1347 1.86085 5.84662 3.57828C3.43453 5.38878 2.27871 8.07227 2.27871 11.4512C2.27871 14.8072 3.48962 17.4407 5.99946 19.1636C8.11744 20.6423 10.6998 21.4281 13.6969 21.573C13.4899 24.31 12.3929 26.5411 10.4112 28.3273C7.96254 30.4966 5.60309 32.3365 3.33298 33.8511L3.32703 33.8551L3.32115 33.8591C2.57339 34.3736 1.98154 34.9937 1.60484 35.7351C1.22234 36.4122 0.99924 37.1227 0.999241 37.8537C0.999241 39.2266 1.59096 40.4286 2.64051 41.4346C3.69516 42.4858 5.03027 43 6.56878 43C7.07103 43 7.61616 42.9251 8.19513 42.7914L8.20399 42.7894L8.21282 42.7872C8.79298 42.642 9.3588 42.4052 9.90947 42.0866C14.6256 39.7009 18.6707 36.3357 22.0414 32.0044ZM54.1592 4.67825L54.1592 4.67823L54.1532 4.6728C51.455 2.23374 48.2928 1 44.7092 1C41.8154 1 39.2075 1.86085 36.9194 3.57828C34.5074 5.38878 33.3515 8.07227 33.3515 11.4512C33.3515 14.8072 34.5625 17.4408 37.0724 19.1637C39.1904 20.6423 41.7727 21.4281 44.7697 21.573C44.5627 24.3101 43.4657 26.5413 41.4839 28.3275C39.0353 30.4966 36.6759 32.3365 34.4058 33.8511L34.3999 33.855L34.394 33.8591C33.6462 34.3736 33.0544 34.9937 32.6777 35.7351C32.2952 36.4122 32.0721 37.1227 32.0721 37.8537C32.0721 39.2266 32.6638 40.4286 33.7134 41.4346C34.768 42.4858 36.1031 43 37.6416 43C38.1439 43 38.689 42.9251 39.268 42.7914L39.2768 42.7894L39.2857 42.7872C39.8658 42.642 40.4316 42.4052 40.9823 42.0866C45.6984 39.7009 49.7435 36.3357 53.1142 32.0044L53.115 32.0033C56.5267 27.6073 58.1992 22.0939 58.1992 15.5366C58.1992 10.8817 56.9048 7.20075 54.1592 4.67825Z" stroke="#E2F0FF" stroke-width="2"/>
</svg>
