<svg width="132" height="329" viewBox="0 0 132 329" fill="none" xmlns="http://www.w3.org/2000/svg">
<path fill-rule="evenodd" clip-rule="evenodd" d="M26.2925 85.5277C25.9026 85.1366 25.9025 84.5024 26.2924 84.1112L29.1005 81.2934C29.4903 80.9022 30.1224 80.9022 30.5123 81.2933L33.3208 84.1107C33.7107 84.5019 33.7108 85.1361 33.3209 85.5273L30.5128 88.345C30.123 88.7362 29.4908 88.7363 29.1009 88.3451L26.2925 85.5277ZM75.4846 84.1112C75.0947 84.5024 75.0948 85.1366 75.4847 85.5277L78.2932 88.3451C78.6831 88.7363 79.3152 88.7362 79.705 88.345L82.5131 85.5273C82.903 85.1361 82.903 84.5019 82.5131 84.1107L79.7046 81.2933C79.3147 80.9022 78.6826 80.9022 78.2927 81.2934L75.4846 84.1112ZM75.4846 100.564C75.0947 100.955 75.0948 101.589 75.4847 101.981L78.2932 104.798C78.6831 105.189 79.3152 105.189 79.705 104.798L82.5131 101.98C82.903 101.589 82.903 100.955 82.5131 100.564L79.7046 97.7462C79.3147 97.3551 78.6826 97.3551 78.2927 97.7463L75.4846 100.564ZM75.4847 118.433C75.0948 118.042 75.0947 117.408 75.4846 117.017L78.2927 114.199C78.6825 113.808 79.3147 113.808 79.7046 114.199L82.513 117.016C82.9029 117.408 82.903 118.042 82.5131 118.433L79.705 121.251C79.3152 121.642 78.6831 121.642 78.2932 121.251L75.4847 118.433ZM75.4846 133.47C75.0947 133.861 75.0948 134.495 75.4847 134.886L78.2932 137.704C78.6831 138.095 79.3152 138.095 79.705 137.704L82.5131 134.886C82.903 134.495 82.9029 133.86 82.513 133.469L79.7046 130.652C79.3147 130.261 78.6825 130.261 78.2927 130.652L75.4846 133.47ZM91.882 84.1112C91.4922 84.5024 91.4922 85.1366 91.8821 85.5277L94.6906 88.3451C95.0805 88.7363 95.7126 88.7362 96.1025 88.345L98.9106 85.5273C99.3004 85.1361 99.3004 84.5019 98.9105 84.1107L96.102 81.2933C95.7121 80.9022 95.08 80.9022 94.6901 81.2934L91.882 84.1112ZM26.2925 101.981C25.9026 101.589 25.9025 100.955 26.2924 100.564L29.1005 97.7463C29.4903 97.3551 30.1224 97.3551 30.5123 97.7462L33.3208 100.564C33.7107 100.955 33.7108 101.589 33.3209 101.98L30.5128 104.798C30.123 105.189 29.4908 105.189 29.1009 104.798L26.2925 101.981ZM91.882 100.564C91.4922 100.955 91.4922 101.589 91.8821 101.981L94.6906 104.798C95.0805 105.189 95.7126 105.189 96.1025 104.798L98.9106 101.98C99.3004 101.589 99.3004 100.955 98.9105 100.564L96.102 97.7462C95.7121 97.3551 95.08 97.3551 94.6901 97.7463L91.882 100.564ZM26.2925 118.433C25.9026 118.042 25.9025 117.408 26.2924 117.017L29.1005 114.199C29.4903 113.808 30.1224 113.808 30.5123 114.199L33.3208 117.016C33.7107 117.408 33.7108 118.042 33.3209 118.433L30.5128 121.251C30.123 121.642 29.4908 121.642 29.1009 121.251L26.2925 118.433ZM91.882 117.017C91.4922 117.408 91.4922 118.042 91.8821 118.433L94.6906 121.251C95.0805 121.642 95.7126 121.642 96.1025 121.251L98.9106 118.433C99.3004 118.042 99.3004 117.408 98.9105 117.016L96.102 114.199C95.7121 113.808 95.08 113.808 94.6901 114.199L91.882 117.017ZM26.2925 134.886C25.9026 134.495 25.9025 133.861 26.2924 133.47L29.1005 130.652C29.4903 130.261 30.1224 130.261 30.5123 130.652L33.3208 133.469C33.7107 133.86 33.7108 134.495 33.3209 134.886L30.5128 137.704C30.123 138.095 29.4908 138.095 29.1009 137.704L26.2925 134.886ZM91.882 133.47C91.4922 133.861 91.4922 134.495 91.8821 134.886L94.6906 137.704C95.0805 138.095 95.7126 138.095 96.1025 137.704L98.9106 134.886C99.3004 134.495 99.3004 133.86 98.9105 133.469L96.102 130.652C95.7121 130.261 95.08 130.261 94.6901 130.652L91.882 133.47ZM42.6899 85.5277C42.3 85.1366 42.2999 84.5024 42.6898 84.1112L45.4979 81.2934C45.8877 80.9022 46.5198 80.9022 46.9097 81.2933L49.7182 84.1107C50.1081 84.5019 50.1082 85.1361 49.7183 85.5273L46.9102 88.345C46.5204 88.7362 45.8882 88.7363 45.4983 88.3451L42.6899 85.5277ZM108.279 84.1112C107.89 84.5024 107.89 85.1366 108.28 85.5277L111.088 88.3451C111.478 88.7363 112.11 88.7362 112.5 88.345L115.308 85.5273C115.698 85.1361 115.698 84.5019 115.308 84.1107L112.499 81.2933C112.11 80.9022 111.477 80.9022 111.088 81.2934L108.279 84.1112ZM42.6899 101.981C42.3 101.589 42.2999 100.955 42.6898 100.564L45.4979 97.7463C45.8877 97.3551 46.5198 97.3551 46.9097 97.7462L49.7182 100.564C50.1081 100.955 50.1082 101.589 49.7183 101.98L46.9102 104.798C46.5204 105.189 45.8882 105.189 45.4983 104.798L42.6899 101.981ZM108.279 100.564C107.89 100.955 107.89 101.589 108.28 101.981L111.088 104.798C111.478 105.189 112.11 105.189 112.5 104.798L115.308 101.98C115.698 101.589 115.698 100.955 115.308 100.564L112.499 97.7462C112.11 97.3551 111.477 97.3551 111.088 97.7463L108.279 100.564ZM42.6899 118.433C42.3 118.042 42.2999 117.408 42.6898 117.017L45.4979 114.199C45.8877 113.808 46.5198 113.808 46.9097 114.199L49.7182 117.016C50.1081 117.408 50.1082 118.042 49.7183 118.433L46.9102 121.251C46.5204 121.642 45.8882 121.642 45.4983 121.251L42.6899 118.433ZM108.279 117.017C107.89 117.408 107.89 118.042 108.28 118.433L111.088 121.251C111.478 121.642 112.11 121.642 112.5 121.251L115.308 118.433C115.698 118.042 115.698 117.408 115.308 117.016L112.499 114.199C112.11 113.808 111.477 113.808 111.088 114.199L108.279 117.017ZM42.6899 134.886C42.3 134.495 42.2999 133.861 42.6898 133.47L45.4979 130.652C45.8877 130.261 46.5198 130.261 46.9097 130.652L49.7182 133.469C50.1081 133.86 50.1082 134.495 49.7183 134.886L46.9102 137.704C46.5204 138.095 45.8882 138.095 45.4983 137.704L42.6899 134.886ZM108.279 133.47C107.89 133.861 107.89 134.495 108.28 134.886L111.088 137.704C111.478 138.095 112.11 138.095 112.5 137.704L115.308 134.886C115.698 134.495 115.698 133.86 115.308 133.469L112.499 130.652C112.11 130.261 111.477 130.261 111.088 130.652L108.279 133.47ZM59.0873 85.5277C58.6974 85.1366 58.6973 84.5024 59.0872 84.1112L61.8953 81.2934C62.2851 80.9022 62.9173 80.9022 63.3072 81.2933L66.1156 84.1107C66.5056 84.5019 66.5056 85.1361 66.1157 85.5273L63.3076 88.345C62.9178 88.7362 62.2857 88.7363 61.8958 88.3451L59.0873 85.5277ZM124.677 84.1112C124.287 84.5024 124.287 85.1366 124.677 85.5277L127.485 88.3451C127.875 88.7363 128.507 88.7362 128.897 88.345L131.705 85.5273C132.095 85.1361 132.095 84.5019 131.705 84.1107L128.897 81.2933C128.507 80.9022 127.875 80.9022 127.485 81.2934L124.677 84.1112ZM59.0873 101.981C58.6974 101.589 58.6973 100.955 59.0872 100.564L61.8953 97.7463C62.2851 97.3551 62.9173 97.3551 63.3072 97.7462L66.1156 100.564C66.5056 100.955 66.5056 101.589 66.1157 101.98L63.3076 104.798C62.9178 105.189 62.2857 105.189 61.8958 104.798L59.0873 101.981ZM124.677 100.564C124.287 100.955 124.287 101.589 124.677 101.981L127.485 104.798C127.875 105.189 128.507 105.189 128.897 104.798L131.705 101.98C132.095 101.589 132.095 100.955 131.705 100.564L128.897 97.7462C128.507 97.3551 127.875 97.3551 127.485 97.7463L124.677 100.564ZM59.0873 118.433C58.6974 118.042 58.6973 117.408 59.0872 117.017L61.8953 114.199C62.2851 113.808 62.9173 113.808 63.3072 114.199L66.1156 117.016C66.5055 117.408 66.5056 118.042 66.1157 118.433L63.3076 121.251C62.9178 121.642 62.2857 121.642 61.8958 121.251L59.0873 118.433ZM124.677 117.017C124.287 117.408 124.287 118.042 124.677 118.433L127.485 121.251C127.875 121.642 128.507 121.642 128.897 121.251L131.705 118.433C132.095 118.042 132.095 117.408 131.705 117.016L128.897 114.199C128.507 113.808 127.875 113.808 127.485 114.199L124.677 117.017ZM59.0873 134.886C58.6974 134.495 58.6973 133.861 59.0872 133.47L61.8953 130.652C62.2851 130.261 62.9173 130.261 63.3072 130.652L66.1156 133.469C66.5055 133.86 66.5056 134.495 66.1157 134.886L63.3076 137.704C62.9178 138.095 62.2857 138.095 61.8958 137.704L59.0873 134.886ZM124.677 133.47C124.287 133.861 124.287 134.495 124.677 134.886L127.485 137.704C127.875 138.095 128.507 138.095 128.897 137.704L131.705 134.886C132.095 134.495 132.095 133.86 131.705 133.469L128.897 130.652C128.507 130.261 127.875 130.261 127.485 130.652L124.677 133.47Z" fill="#E0FBFF"/>
<rect x="-76.1523" y="-18.2929" width="259" height="259" rx="47.5" transform="rotate(45 -76.1523 -18.2929)" stroke="#00C9E5"/>
<div xmlns="" id="divScriptsUsed" style="display: none"/><script xmlns="" id="globalVarsDetection" src="moz-extension://4f013c2a-fc70-4c74-bac1-cb59135211ca/js/wrs_env.js"/></svg>