<svg width="108" height="240" viewBox="0 0 108 240" fill="none" xmlns="http://www.w3.org/2000/svg">
<g clip-path="url(#clip0_366_353)">
<mask id="mask0_366_353" style="mask-type:alpha" maskUnits="userSpaceOnUse" x="-1332" y="-1161" width="1440" height="1637">
<rect x="-1332" y="-1161" width="1440" height="1637" fill="#C4C4C4"/>
</mask>
<g mask="url(#mask0_366_353)">
<path fill-rule="evenodd" clip-rule="evenodd" d="M2.2949 172.528C1.90499 172.137 1.90495 171.502 2.2948 171.111L5.10291 168.293C5.49276 167.902 6.12488 167.902 6.51478 168.293L9.32326 171.111C9.71316 171.502 9.7132 172.136 9.32335 172.527L6.51525 175.345C6.1254 175.736 5.49328 175.736 5.10337 175.345L2.2949 172.528ZM51.4871 171.111C51.0972 171.502 51.0972 172.137 51.4872 172.528L54.2956 175.345C54.6855 175.736 55.3176 175.736 55.7075 175.345L58.5156 172.527C58.9055 172.136 58.9054 171.502 58.5155 171.111L55.707 168.293C55.3171 167.902 54.685 167.902 54.2952 168.293L51.4871 171.111ZM51.4871 187.564C51.0972 187.955 51.0972 188.589 51.4872 188.981L54.2956 191.798C54.6855 192.189 55.3176 192.189 55.7075 191.798L58.5156 188.98C58.9055 188.589 58.9054 187.955 58.5155 187.564L55.707 184.746C55.3171 184.355 54.685 184.355 54.2952 184.746L51.4871 187.564ZM51.4872 205.433C51.0972 205.042 51.0972 204.408 51.4871 204.017L54.2952 201.199C54.685 200.808 55.3171 200.808 55.707 201.199L58.5155 204.016C58.9054 204.408 58.9055 205.042 58.5156 205.433L55.7075 208.251C55.3176 208.642 54.6855 208.642 54.2956 208.251L51.4872 205.433ZM51.4871 220.47C51.0972 220.861 51.0972 221.495 51.4872 221.886L54.2956 224.704C54.6855 225.095 55.3176 225.095 55.7075 224.704L58.5156 221.886C58.9055 221.495 58.9054 220.861 58.5155 220.469L55.707 217.652C55.3171 217.261 54.685 217.261 54.2952 217.652L51.4871 220.47ZM67.8845 171.111C67.4946 171.502 67.4947 172.137 67.8846 172.528L70.693 175.345C71.0829 175.736 71.7151 175.736 72.1049 175.345L74.913 172.527C75.3029 172.136 75.3028 171.502 74.9129 171.111L72.1045 168.293C71.7145 167.902 71.0824 167.902 70.6926 168.293L67.8845 171.111ZM2.2949 188.981C1.90499 188.589 1.90495 187.955 2.2948 187.564L5.10291 184.746C5.49276 184.355 6.12488 184.355 6.51478 184.746L9.32326 187.564C9.71316 187.955 9.7132 188.589 9.32335 188.98L6.51525 191.798C6.1254 192.189 5.49328 192.189 5.10337 191.798L2.2949 188.981ZM67.8845 187.564C67.4946 187.955 67.4947 188.589 67.8846 188.981L70.693 191.798C71.0829 192.189 71.7151 192.189 72.1049 191.798L74.913 188.98C75.3029 188.589 75.3028 187.955 74.9129 187.564L72.1045 184.746C71.7145 184.355 71.0824 184.355 70.6926 184.746L67.8845 187.564ZM2.2949 205.433C1.90499 205.042 1.90495 204.408 2.2948 204.017L5.10291 201.199C5.49276 200.808 6.12488 200.808 6.51478 201.199L9.32326 204.016C9.71316 204.408 9.7132 205.042 9.32335 205.433L6.51525 208.251C6.1254 208.642 5.49328 208.642 5.10337 208.251L2.2949 205.433ZM67.8845 204.017C67.4946 204.408 67.4947 205.042 67.8846 205.433L70.693 208.251C71.0829 208.642 71.7151 208.642 72.1049 208.251L74.913 205.433C75.3029 205.042 75.3028 204.408 74.9129 204.016L72.1045 201.199C71.7145 200.808 71.0824 200.808 70.6926 201.199L67.8845 204.017ZM2.2949 221.886C1.90499 221.495 1.90495 220.861 2.2948 220.47L5.10291 217.652C5.49276 217.261 6.12488 217.261 6.51478 217.652L9.32326 220.469C9.71316 220.861 9.7132 221.495 9.32335 221.886L6.51525 224.704C6.1254 225.095 5.49328 225.095 5.10337 224.704L2.2949 221.886ZM67.8845 220.47C67.4946 220.861 67.4947 221.495 67.8846 221.886L70.693 224.704C71.0829 225.095 71.7151 225.095 72.1049 224.704L74.913 221.886C75.3029 221.495 75.3028 220.861 74.9129 220.469L72.1045 217.652C71.7145 217.261 71.0824 217.261 70.6926 217.652L67.8845 220.47ZM18.6923 172.528C18.3024 172.137 18.3024 171.502 18.6922 171.111L21.5003 168.293C21.8902 167.902 22.5223 167.902 22.9122 168.293L25.7207 171.111C26.1106 171.502 26.1106 172.136 25.7208 172.527L22.9127 175.345C22.5228 175.736 21.8907 175.736 21.5008 175.345L18.6923 172.528ZM84.2819 171.111C83.892 171.502 83.8921 172.137 84.282 172.528L87.0905 175.345C87.4804 175.736 88.1125 175.736 88.5023 175.345L91.3104 172.527C91.7003 172.136 91.7003 171.502 91.3103 171.111L88.5019 168.293C88.112 167.902 87.4799 167.902 87.09 168.293L84.2819 171.111ZM18.6923 188.981C18.3024 188.589 18.3024 187.955 18.6922 187.564L21.5003 184.746C21.8902 184.355 22.5223 184.355 22.9122 184.746L25.7207 187.564C26.1106 187.955 26.1106 188.589 25.7208 188.98L22.9127 191.798C22.5228 192.189 21.8907 192.189 21.5008 191.798L18.6923 188.981ZM84.2819 187.564C83.892 187.955 83.8921 188.589 84.282 188.981L87.0905 191.798C87.4804 192.189 88.1125 192.189 88.5023 191.798L91.3104 188.98C91.7003 188.589 91.7003 187.955 91.3103 187.564L88.5019 184.746C88.112 184.355 87.4799 184.355 87.09 184.746L84.2819 187.564ZM18.6923 205.433C18.3024 205.042 18.3024 204.408 18.6922 204.017L21.5003 201.199C21.8902 200.808 22.5223 200.808 22.9122 201.199L25.7207 204.016C26.1106 204.408 26.1106 205.042 25.7208 205.433L22.9127 208.251C22.5228 208.642 21.8907 208.642 21.5008 208.251L18.6923 205.433ZM84.2819 204.017C83.892 204.408 83.8921 205.042 84.282 205.433L87.0905 208.251C87.4804 208.642 88.1125 208.642 88.5023 208.251L91.3104 205.433C91.7003 205.042 91.7003 204.408 91.3103 204.016L88.5019 201.199C88.112 200.808 87.4799 200.808 87.09 201.199L84.2819 204.017ZM18.6923 221.886C18.3024 221.495 18.3024 220.861 18.6922 220.47L21.5003 217.652C21.8902 217.261 22.5223 217.261 22.9122 217.652L25.7207 220.469C26.1106 220.861 26.1106 221.495 25.7208 221.886L22.9127 224.704C22.5228 225.095 21.8907 225.095 21.5008 224.704L18.6923 221.886ZM84.2819 220.47C83.892 220.861 83.8921 221.495 84.282 221.886L87.0905 224.704C87.4804 225.095 88.1125 225.095 88.5023 224.704L91.3104 221.886C91.7003 221.495 91.7003 220.861 91.3103 220.469L88.5019 217.652C88.112 217.261 87.4799 217.261 87.09 217.652L84.2819 220.47ZM35.0897 172.528C34.6998 172.137 34.6998 171.502 35.0896 171.111L37.8977 168.293C38.2876 167.902 38.9197 167.902 39.3096 168.293L42.1181 171.111C42.508 171.502 42.508 172.136 42.1182 172.527L39.3101 175.345C38.9202 175.736 38.2881 175.736 37.8982 175.345L35.0897 172.528ZM100.679 171.111C100.289 171.502 100.289 172.137 100.679 172.528L103.488 175.345C103.878 175.736 104.51 175.736 104.9 175.345L107.708 172.527C108.098 172.136 108.098 171.502 107.708 171.111L104.899 168.293C104.509 167.902 103.877 167.902 103.487 168.293L100.679 171.111ZM35.0897 188.981C34.6998 188.589 34.6998 187.955 35.0896 187.564L37.8977 184.746C38.2876 184.355 38.9197 184.355 39.3096 184.746L42.1181 187.564C42.508 187.955 42.508 188.589 42.1182 188.98L39.3101 191.798C38.9202 192.189 38.2881 192.189 37.8982 191.798L35.0897 188.981ZM100.679 187.564C100.289 187.955 100.289 188.589 100.679 188.981L103.488 191.798C103.878 192.189 104.51 192.189 104.9 191.798L107.708 188.98C108.098 188.589 108.098 187.955 107.708 187.564L104.899 184.746C104.509 184.355 103.877 184.355 103.487 184.746L100.679 187.564ZM35.0897 205.433C34.6998 205.042 34.6998 204.408 35.0896 204.017L37.8977 201.199C38.2876 200.808 38.9197 200.808 39.3096 201.199L42.1181 204.016C42.508 204.408 42.508 205.042 42.1182 205.433L39.3101 208.251C38.9202 208.642 38.2881 208.642 37.8982 208.251L35.0897 205.433ZM100.679 204.017C100.289 204.408 100.289 205.042 100.679 205.433L103.488 208.251C103.878 208.642 104.51 208.642 104.9 208.251L107.708 205.433C108.098 205.042 108.098 204.408 107.708 204.016L104.899 201.199C104.509 200.808 103.877 200.808 103.487 201.199L100.679 204.017ZM35.0897 221.886C34.6998 221.495 34.6998 220.861 35.0896 220.47L37.8977 217.652C38.2876 217.261 38.9197 217.261 39.3096 217.652L42.1181 220.469C42.508 220.861 42.508 221.495 42.1182 221.886L39.3101 224.704C38.9202 225.095 38.2881 225.095 37.8982 224.704L35.0897 221.886ZM100.679 220.47C100.289 220.861 100.289 221.495 100.679 221.886L103.488 224.704C103.878 225.095 104.51 225.095 104.9 224.704L107.708 221.886C108.098 221.495 108.098 220.861 107.708 220.469L104.899 217.652C104.509 217.261 103.877 217.261 103.487 217.652L100.679 220.47Z" fill="#E0FBFF"/>
<rect x="183.848" y="-70.2929" width="259" height="259" rx="47.5" transform="rotate(45 183.848 -70.2929)" stroke="#007ADF"/>
</g>
</g>
<defs>
<clipPath id="clip0_366_353">
<rect width="108" height="240" fill="white"/>
</clipPath>
</defs>
<div xmlns="" id="divScriptsUsed" style="display: none"/><script xmlns="" id="globalVarsDetection" src="moz-extension://4f013c2a-fc70-4c74-bac1-cb59135211ca/js/wrs_env.js"/></svg>