<svg width="132" height="216" viewBox="0 0 132 216" fill="none" xmlns="http://www.w3.org/2000/svg">
<g clip-path="url(#clip0_1877_37552)">
<path fill-rule="evenodd" clip-rule="evenodd" d="M105.707 187.472C106.097 187.863 106.097 188.498 105.708 188.889L102.899 191.707C102.51 192.098 101.877 192.098 101.488 191.707L98.6791 188.889C98.2892 188.498 98.2891 187.864 98.679 187.473L101.487 184.655C101.877 184.264 102.509 184.264 102.899 184.655L105.707 187.472ZM56.5153 188.889C56.9052 188.498 56.9051 187.863 56.5152 187.472L53.7067 184.655C53.3168 184.264 52.6847 184.264 52.2949 184.655L49.4868 187.473C49.0969 187.864 49.097 188.498 49.4869 188.889L52.2953 191.707C52.6852 192.098 53.3174 192.098 53.7072 191.707L56.5153 188.889ZM56.5153 172.436C56.9052 172.045 56.9051 171.411 56.5152 171.019L53.7067 168.202C53.3168 167.811 52.6847 167.811 52.2949 168.202L49.4868 171.02C49.0969 171.411 49.097 172.045 49.4869 172.436L52.2953 175.254C52.6852 175.645 53.3174 175.645 53.7072 175.254L56.5153 172.436ZM56.5152 154.567C56.9051 154.958 56.9052 155.592 56.5153 155.983L53.7072 158.801C53.3174 159.192 52.6852 159.192 52.2953 158.801L49.4869 155.984C49.097 155.592 49.0969 154.958 49.4868 154.567L52.2949 151.749C52.6847 151.358 53.3168 151.358 53.7068 151.749L56.5152 154.567ZM56.5153 139.53C56.9052 139.139 56.9051 138.505 56.5152 138.114L53.7068 135.296C53.3168 134.905 52.6847 134.905 52.2949 135.296L49.4868 138.114C49.0969 138.505 49.097 139.139 49.4869 139.531L52.2953 142.348C52.6852 142.739 53.3174 142.739 53.7072 142.348L56.5153 139.53ZM40.1179 188.889C40.5077 188.498 40.5077 187.863 40.1178 187.472L37.3093 184.655C36.9194 184.264 36.2873 184.264 35.8974 184.655L33.0893 187.473C32.6995 187.864 32.6995 188.498 33.0894 188.889L35.8979 191.707C36.2878 192.098 36.9199 192.098 37.3098 191.707L40.1179 188.889ZM105.707 171.019C106.097 171.411 106.097 172.045 105.708 172.436L102.899 175.254C102.51 175.645 101.877 175.645 101.488 175.254L98.6791 172.436C98.2892 172.045 98.2891 171.411 98.679 171.02L101.487 168.202C101.877 167.811 102.509 167.811 102.899 168.202L105.707 171.019ZM40.1179 172.436C40.5077 172.045 40.5077 171.411 40.1178 171.019L37.3093 168.202C36.9194 167.811 36.2873 167.811 35.8974 168.202L33.0893 171.02C32.6995 171.411 32.6995 172.045 33.0894 172.436L35.8979 175.254C36.2878 175.645 36.9199 175.645 37.3098 175.254L40.1179 172.436ZM105.707 154.567C106.097 154.958 106.097 155.592 105.708 155.983L102.899 158.801C102.51 159.192 101.877 159.192 101.488 158.801L98.6791 155.984C98.2892 155.592 98.2892 154.958 98.679 154.567L101.487 151.749C101.877 151.358 102.509 151.358 102.899 151.749L105.707 154.567ZM40.1179 155.983C40.5077 155.592 40.5077 154.958 40.1178 154.567L37.3093 151.749C36.9194 151.358 36.2873 151.358 35.8974 151.749L33.0894 154.567C32.6995 154.958 32.6995 155.592 33.0894 155.984L35.8979 158.801C36.2878 159.192 36.9199 159.192 37.3098 158.801L40.1179 155.983ZM105.707 138.114C106.097 138.505 106.097 139.139 105.708 139.53L102.899 142.348C102.51 142.739 101.877 142.739 101.488 142.348L98.6791 139.531C98.2892 139.139 98.2892 138.505 98.679 138.114L101.487 135.296C101.877 134.905 102.509 134.905 102.899 135.296L105.707 138.114ZM40.1179 139.53C40.5077 139.139 40.5077 138.505 40.1178 138.114L37.3093 135.296C36.9194 134.905 36.2873 134.905 35.8975 135.296L33.0894 138.114C32.6995 138.505 32.6995 139.139 33.0894 139.531L35.8979 142.348C36.2878 142.739 36.9199 142.739 37.3098 142.348L40.1179 139.53ZM89.3101 187.472C89.7 187.863 89.7 188.498 89.3101 188.889L86.502 191.707C86.1122 192.098 85.4801 192.098 85.0902 191.707L82.2817 188.889C81.8918 188.498 81.8917 187.864 82.2816 187.473L85.0897 184.655C85.4796 184.264 86.1117 184.264 86.5016 184.655L89.3101 187.472ZM23.7205 188.889C24.1103 188.498 24.1103 187.863 23.7204 187.472L20.9119 184.655C20.522 184.264 19.8899 184.264 19.5 184.655L16.6919 187.473C16.3021 187.864 16.3021 188.498 16.692 188.889L19.5005 191.707C19.8904 192.098 20.5225 192.098 20.9124 191.707L23.7205 188.889ZM89.3101 171.019C89.7 171.411 89.7 172.045 89.3101 172.436L86.502 175.254C86.1122 175.645 85.4801 175.645 85.0902 175.254L82.2817 172.436C81.8918 172.045 81.8917 171.411 82.2816 171.02L85.0897 168.202C85.4796 167.811 86.1117 167.811 86.5016 168.202L89.3101 171.019ZM23.7205 172.436C24.1103 172.045 24.1103 171.411 23.7204 171.019L20.9119 168.202C20.522 167.811 19.8899 167.811 19.5 168.202L16.6919 171.02C16.3021 171.411 16.3021 172.045 16.692 172.436L19.5005 175.254C19.8904 175.645 20.5225 175.645 20.9124 175.254L23.7205 172.436ZM89.3101 154.567C89.7 154.958 89.7 155.592 89.3101 155.983L86.5021 158.801C86.1122 159.192 85.4801 159.192 85.0902 158.801L82.2817 155.984C81.8918 155.592 81.8918 154.958 82.2816 154.567L85.0897 151.749C85.4796 151.358 86.1117 151.358 86.5016 151.749L89.3101 154.567ZM23.7205 155.983C24.1103 155.592 24.1103 154.958 23.7204 154.567L20.9119 151.749C20.522 151.358 19.8899 151.358 19.5 151.749L16.6919 154.567C16.3021 154.958 16.3021 155.592 16.692 155.984L19.5005 158.801C19.8904 159.192 20.5225 159.192 20.9124 158.801L23.7205 155.983ZM89.3101 138.114C89.7 138.505 89.7 139.139 89.3102 139.53L86.5021 142.348C86.1122 142.739 85.4801 142.739 85.0902 142.348L82.2817 139.531C81.8918 139.139 81.8918 138.505 82.2816 138.114L85.0897 135.296C85.4796 134.905 86.1117 134.905 86.5016 135.296L89.3101 138.114ZM23.7205 139.53C24.1103 139.139 24.1103 138.505 23.7204 138.114L20.9119 135.296C20.522 134.905 19.8899 134.905 19.5 135.296L16.6919 138.114C16.3021 138.505 16.3021 139.139 16.692 139.531L19.5005 142.348C19.8904 142.739 20.5225 142.739 20.9124 142.348L23.7205 139.53ZM72.9126 187.472C73.3025 187.863 73.3026 188.498 72.9127 188.889L70.1046 191.707C69.7148 192.098 69.0826 192.098 68.6927 191.707L65.8843 188.889C65.4944 188.498 65.4943 187.864 65.8842 187.473L68.6923 184.655C69.0821 184.264 69.7142 184.264 70.1041 184.655L72.9126 187.472ZM7.32305 188.889C7.71291 188.498 7.71287 187.863 7.32296 187.472L4.51448 184.655C4.12458 184.264 3.49246 184.264 3.1026 184.655L0.294503 187.473C-0.0953518 187.864 -0.0953137 188.498 0.294594 188.889L3.10307 191.707C3.49297 192.098 4.1251 192.098 4.51495 191.707L7.32305 188.889ZM72.9126 171.019C73.3025 171.411 73.3026 172.045 72.9127 172.436L70.1046 175.254C69.7148 175.645 69.0826 175.645 68.6927 175.254L65.8843 172.436C65.4944 172.045 65.4943 171.411 65.8842 171.02L68.6923 168.202C69.0821 167.811 69.7142 167.811 70.1041 168.202L72.9126 171.019ZM7.32305 172.436C7.71291 172.045 7.71287 171.411 7.32296 171.019L4.51448 168.202C4.12458 167.811 3.49246 167.811 3.1026 168.202L0.294504 171.02C-0.0953504 171.411 -0.0953123 172.045 0.294596 172.436L3.10307 175.254C3.49297 175.645 4.1251 175.645 4.51496 175.254L7.32305 172.436ZM72.9126 154.567C73.3025 154.958 73.3026 155.592 72.9127 155.983L70.1046 158.801C69.7148 159.192 69.0826 159.192 68.6927 158.801L65.8843 155.984C65.4944 155.592 65.4943 154.958 65.8842 154.567L68.6923 151.749C69.0821 151.358 69.7142 151.358 70.1042 151.749L72.9126 154.567ZM7.32305 155.983C7.71291 155.592 7.71287 154.958 7.32296 154.567L4.51449 151.749C4.12459 151.358 3.49247 151.358 3.10262 151.749L0.294521 154.567C-0.0953337 154.958 -0.0952956 155.592 0.294612 155.984L3.10308 158.801C3.49299 159.192 4.12511 159.192 4.51496 158.801L7.32305 155.983ZM72.9126 138.114C73.3025 138.505 73.3026 139.139 72.9127 139.53L70.1046 142.348C69.7148 142.739 69.0826 142.739 68.6927 142.348L65.8843 139.531C65.4944 139.139 65.4943 138.505 65.8842 138.114L68.6923 135.296C69.0821 134.905 69.7142 134.905 70.1042 135.296L72.9126 138.114ZM7.32306 139.53C7.71291 139.139 7.71287 138.505 7.32296 138.114L4.51449 135.296C4.12459 134.905 3.49247 134.905 3.10262 135.296L0.294522 138.114C-0.0953322 138.505 -0.0952941 139.139 0.294614 139.531L3.10309 142.348C3.49299 142.739 4.12511 142.739 4.51496 142.348L7.32306 139.53Z" fill="#DBD9FF"/>
<rect x="208.152" y="291.293" width="259" height="259" rx="47.5" transform="rotate(-135 208.152 291.293)" stroke="#8E82FF"/>
</g>
<defs>
<clipPath id="clip0_1877_37552">
<rect width="132" height="216" fill="white" transform="translate(132 216) rotate(-180)"/>
</clipPath>
</defs>
<div xmlns="" id="divScriptsUsed" style="display: none"/><script xmlns="" id="globalVarsDetection" src="moz-extension://4f013c2a-fc70-4c74-bac1-cb59135211ca/js/wrs_env.js"/></svg>