<svg width="132" height="216" viewBox="0 0 132 216" fill="none" xmlns="http://www.w3.org/2000/svg">
<g clip-path="url(#clip0_1877_37520)">
<path fill-rule="evenodd" clip-rule="evenodd" d="M26.2926 28.5278C25.9027 28.1366 25.9026 27.5024 26.2925 27.1112L29.1006 24.2935C29.4904 23.9023 30.1225 23.9022 30.5125 24.2934L33.3209 27.1107C33.7108 27.5019 33.7109 28.1361 33.321 28.5273L30.5129 31.345C30.1231 31.7362 29.4909 31.7363 29.101 31.3451L26.2926 28.5278ZM75.4847 27.1112C75.0949 27.5024 75.0949 28.1366 75.4848 28.5277L78.2933 31.3451C78.6832 31.7363 79.3153 31.7362 79.7052 31.345L82.5133 28.5273C82.9031 28.1361 82.9031 27.5019 82.5132 27.1107L79.7047 24.2934C79.3148 23.9022 78.6827 23.9023 78.2928 24.2934L75.4847 27.1112ZM75.4847 43.5641C75.0949 43.9553 75.0949 44.5895 75.4848 44.9806L78.2933 47.798C78.6832 48.1892 79.3153 48.1891 79.7052 47.7979L82.5133 44.9802C82.9031 44.589 82.9031 43.9548 82.5132 43.5636L79.7047 40.7462C79.3148 40.3551 78.6827 40.3551 78.2928 40.7463L75.4847 43.5641ZM75.4848 61.4335C75.0949 61.0424 75.0949 60.4082 75.4847 60.017L78.2928 57.1992C78.6827 56.808 79.3148 56.808 79.7047 57.1991L82.5132 60.0165C82.9031 60.4076 82.9031 61.0418 82.5132 61.433L79.7052 64.2508C79.3153 64.642 78.6832 64.642 78.2933 64.2509L75.4848 61.4335ZM75.4847 76.4698C75.0949 76.861 75.0949 77.4953 75.4848 77.8864L78.2933 80.7038C78.6832 81.0949 79.3153 81.0949 79.7052 80.7037L82.5133 77.8859C82.9031 77.4947 82.9031 76.8605 82.5132 76.4694L79.7047 73.652C79.3148 73.2608 78.6827 73.2609 78.2928 73.6521L75.4847 76.4698ZM91.8821 27.1112C91.4923 27.5024 91.4923 28.1366 91.8822 28.5277L94.6907 31.3451C95.0806 31.7363 95.7127 31.7362 96.1026 31.345L98.9107 28.5273C99.3005 28.1361 99.3005 27.5019 98.9106 27.1107L96.1021 24.2933C95.7122 23.9022 95.0801 23.9022 94.6902 24.2934L91.8821 27.1112ZM26.2926 44.9806C25.9027 44.5895 25.9026 43.9553 26.2925 43.5641L29.1006 40.7463C29.4904 40.3551 30.1226 40.3551 30.5125 40.7462L33.3209 43.5636C33.7108 43.9548 33.7109 44.589 33.321 44.9802L30.5129 47.7979C30.1231 48.1891 29.491 48.1892 29.101 47.798L26.2926 44.9806ZM91.8821 43.5641C91.4923 43.9553 91.4923 44.5895 91.8822 44.9806L94.6907 47.798C95.0806 48.1892 95.7127 48.1891 96.1026 47.7979L98.9107 44.9802C99.3005 44.589 99.3005 43.9548 98.9106 43.5636L96.1021 40.7462C95.7122 40.3551 95.0801 40.3551 94.6902 40.7463L91.8821 43.5641ZM26.2926 61.4335C25.9027 61.0424 25.9026 60.4082 26.2925 60.017L29.1006 57.1992C29.4904 56.808 30.1225 56.808 30.5125 57.1991L33.3209 60.0165C33.7108 60.4076 33.7109 61.0419 33.321 61.4331L30.5129 64.2508C30.1231 64.642 29.4909 64.6421 29.101 64.2509L26.2926 61.4335ZM91.8821 60.017C91.4923 60.4082 91.4923 61.0424 91.8822 61.4335L94.6907 64.2509C95.0806 64.642 95.7127 64.642 96.1026 64.2508L98.9107 61.433C99.3005 61.0418 99.3005 60.4076 98.9106 60.0165L96.1021 57.1991C95.7122 56.808 95.0801 56.808 94.6902 57.1992L91.8821 60.017ZM26.2926 77.8864C25.9027 77.4953 25.9026 76.861 26.2925 76.4699L29.1006 73.6521C29.4904 73.2609 30.1225 73.2609 30.5125 73.652L33.3209 76.4694C33.7108 76.8605 33.7109 77.4947 33.321 77.8859L30.5129 80.7037C30.1231 81.0949 29.491 81.0949 29.101 80.7038L26.2926 77.8864ZM91.8821 76.4698C91.4923 76.861 91.4923 77.4953 91.8822 77.8864L94.6907 80.7038C95.0806 81.0949 95.7127 81.0949 96.1026 80.7037L98.9107 77.8859C99.3005 77.4947 99.3005 76.8605 98.9106 76.4694L96.1021 73.652C95.7122 73.2608 95.0801 73.2609 94.6902 73.6521L91.8821 76.4698ZM42.69 28.5278C42.3001 28.1366 42.3 27.5024 42.6899 27.1112L45.498 24.2935C45.8878 23.9023 46.5199 23.9022 46.9099 24.2934L49.7183 27.1107C50.1082 27.5019 50.1083 28.1361 49.7184 28.5273L46.9103 31.345C46.5205 31.7362 45.8883 31.7363 45.4984 31.3451L42.69 28.5278ZM108.28 27.1112C107.89 27.5024 107.89 28.1366 108.28 28.5277L111.088 31.3451C111.478 31.7363 112.11 31.7362 112.5 31.345L115.308 28.5273C115.698 28.1361 115.698 27.5019 115.308 27.1107L112.5 24.2933C112.11 23.9022 111.478 23.9022 111.088 24.2934L108.28 27.1112ZM42.69 44.9806C42.3001 44.5895 42.3 43.9553 42.6899 43.5641L45.498 40.7463C45.8878 40.3551 46.5199 40.3551 46.9099 40.7462L49.7183 43.5636C50.1082 43.9548 50.1083 44.589 49.7184 44.9802L46.9103 47.7979C46.5205 48.1891 45.8883 48.1892 45.4984 47.798L42.69 44.9806ZM108.28 43.5641C107.89 43.9553 107.89 44.5895 108.28 44.9806L111.088 47.798C111.478 48.1891 112.11 48.1891 112.5 47.7979L115.308 44.9802C115.698 44.589 115.698 43.9548 115.308 43.5636L112.5 40.7462C112.11 40.3551 111.478 40.3551 111.088 40.7463L108.28 43.5641ZM42.69 61.4335C42.3001 61.0424 42.3 60.4082 42.6899 60.017L45.498 57.1992C45.8878 56.808 46.5199 56.808 46.9099 57.1991L49.7183 60.0165C50.1082 60.4076 50.1083 61.0419 49.7184 61.433L46.9103 64.2508C46.5205 64.642 45.8883 64.6421 45.4984 64.2509L42.69 61.4335ZM108.28 60.017C107.89 60.4082 107.89 61.0424 108.28 61.4335L111.088 64.2509C111.478 64.642 112.11 64.642 112.5 64.2508L115.308 61.433C115.698 61.0418 115.698 60.4076 115.308 60.0165L112.5 57.1991C112.11 56.808 111.478 56.808 111.088 57.1992L108.28 60.017ZM42.69 77.8864C42.3001 77.4953 42.3 76.861 42.6899 76.4699L45.498 73.6521C45.8878 73.2609 46.5199 73.2609 46.9099 73.652L49.7183 76.4694C50.1082 76.8605 50.1083 77.4947 49.7184 77.8859L46.9103 80.7037C46.5205 81.0949 45.8883 81.0949 45.4984 80.7038L42.69 77.8864ZM108.28 76.4698C107.89 76.861 107.89 77.4952 108.28 77.8864L111.088 80.7038C111.478 81.0949 112.11 81.0949 112.5 80.7037L115.308 77.8859C115.698 77.4947 115.698 76.8605 115.308 76.4694L112.5 73.652C112.11 73.2608 111.478 73.2609 111.088 73.6521L108.28 76.4698ZM59.0874 28.5278C58.6975 28.1366 58.6975 27.5024 59.0873 27.1112L61.8954 24.2934C62.2853 23.9023 62.9174 23.9022 63.3073 24.2934L66.1158 27.1107C66.5057 27.5019 66.5057 28.1361 66.1159 28.5273L63.3078 31.345C62.9179 31.7362 62.2858 31.7363 61.8959 31.3451L59.0874 28.5278ZM124.677 27.1112C124.287 27.5024 124.287 28.1366 124.677 28.5277L127.486 31.3451C127.875 31.7363 128.508 31.7362 128.897 31.345L131.706 28.5273C132.095 28.1361 132.095 27.5019 131.705 27.1107L128.897 24.2933C128.507 23.9022 127.875 23.9022 127.485 24.2934L124.677 27.1112ZM59.0874 44.9806C58.6975 44.5895 58.6975 43.9553 59.0873 43.5641L61.8954 40.7463C62.2853 40.3551 62.9174 40.3551 63.3073 40.7462L66.1158 43.5636C66.5057 43.9548 66.5057 44.589 66.1159 44.9802L63.3078 47.7979C62.9179 48.1891 62.2858 48.1892 61.8959 47.798L59.0874 44.9806ZM124.677 43.5641C124.287 43.9553 124.287 44.5895 124.677 44.9806L127.486 47.798C127.875 48.1891 128.508 48.1891 128.897 47.7979L131.706 44.9802C132.095 44.589 132.095 43.9547 131.705 43.5636L128.897 40.7462C128.507 40.3551 127.875 40.3551 127.485 40.7463L124.677 43.5641ZM59.0874 61.4335C58.6975 61.0424 58.6975 60.4082 59.0873 60.017L61.8954 57.1992C62.2853 56.808 62.9174 56.808 63.3073 57.1991L66.1158 60.0165C66.5057 60.4076 66.5057 61.0419 66.1158 61.433L63.3078 64.2508C62.9179 64.642 62.2858 64.642 61.8959 64.2509L59.0874 61.4335ZM124.677 60.017C124.287 60.4082 124.287 61.0424 124.677 61.4335L127.486 64.2509C127.875 64.642 128.508 64.642 128.897 64.2508L131.706 61.433C132.095 61.0418 132.095 60.4076 131.705 60.0165L128.897 57.1991C128.507 56.808 127.875 56.808 127.485 57.1992L124.677 60.017ZM59.0874 77.8864C58.6975 77.4953 58.6975 76.861 59.0873 76.4699L61.8954 73.6521C62.2853 73.2609 62.9174 73.2609 63.3073 73.652L66.1158 76.4694C66.5057 76.8605 66.5057 77.4947 66.1159 77.8859L63.3078 80.7037C62.9179 81.0949 62.2858 81.0949 61.8959 80.7038L59.0874 77.8864ZM124.677 76.4698C124.287 76.861 124.287 77.4952 124.677 77.8864L127.486 80.7038C127.875 81.0949 128.508 81.0949 128.897 80.7037L131.706 77.8859C132.095 77.4947 132.095 76.8605 131.705 76.4694L128.897 73.652C128.507 73.2608 127.875 73.2609 127.485 73.6521L124.677 76.4698Z" fill="#DBD9FF"/>
<rect x="-76.1522" y="-75.2928" width="259" height="259" rx="47.5" transform="rotate(45 -76.1522 -75.2928)" stroke="#8E82FF"/>
</g>
<defs>
<clipPath id="clip0_1877_37520">
<rect width="132" height="216" fill="white"/>
</clipPath>
</defs>
<div xmlns="" id="divScriptsUsed" style="display: none"/><script xmlns="" id="globalVarsDetection" src="moz-extension://4f013c2a-fc70-4c74-bac1-cb59135211ca/js/wrs_env.js"/></svg>