<svg width="56" height="56" viewBox="0 0 56 56" fill="none" xmlns="http://www.w3.org/2000/svg">
<path d="M40.8549 46.6672H15.1882C14.0425 46.6602 12.9243 46.3159 11.973 45.6774C11.0217 45.0388 10.2795 44.1343 9.83897 43.0766C9.39848 42.019 9.27921 40.855 9.49604 39.73C9.71287 38.605 10.2562 37.5687 11.0582 36.7505C11.6075 36.1822 12.2681 35.7334 12.9989 35.4322C13.7296 35.1311 14.5147 34.9841 15.3049 35.0005H17.4749C17.7843 35.0005 18.0811 35.1234 18.2999 35.3422C18.5187 35.561 18.6416 35.8577 18.6416 36.1672C18.6416 36.4766 18.5187 36.7733 18.2999 36.9921C18.0811 37.2109 17.7843 37.3338 17.4749 37.3338H15.3049C14.8432 37.3334 14.3861 37.4261 13.9611 37.6066C13.5361 37.787 13.1519 38.0514 12.8316 38.3838C12.5054 38.7065 12.2482 39.0922 12.0757 39.5174C11.9032 39.9426 11.819 40.3984 11.8282 40.8572C11.8343 41.7774 12.2026 42.6581 12.8533 43.3088C13.504 43.9595 14.3847 44.3277 15.3049 44.3338H40.9716C41.281 44.3338 41.5777 44.4568 41.7965 44.6755C42.0153 44.8943 42.1382 45.1911 42.1382 45.5005C42.1382 45.8099 42.0153 46.1067 41.7965 46.3255C41.5777 46.5443 41.281 46.6672 40.9716 46.6672H40.8549Z" fill="#00C9E5"/>
<path d="M48.3925 15.3538L43.5158 10.4772C43.2621 10.2233 42.918 10.0807 42.5591 10.0805C42.3777 10.0788 42.1977 10.1129 42.0295 10.181C41.8614 10.2491 41.7083 10.3497 41.5791 10.4772L24.5225 27.5338C24.3589 27.6731 24.2444 27.8613 24.1958 28.0705L21.8625 35.3738C21.7515 35.7235 21.7822 36.1028 21.948 36.4301C22.1138 36.7574 22.4015 37.0065 22.7491 37.1238C23.0295 37.2164 23.3321 37.2164 23.6125 37.1238L30.9158 34.7905C31.1273 34.7194 31.3192 34.5995 31.4758 34.4405L48.5091 17.4072C48.6419 17.2808 48.7475 17.1287 48.8197 16.9603C48.8919 16.7918 48.9291 16.6105 48.9291 16.4272C48.9291 16.2439 48.8919 16.0625 48.8197 15.8941C48.7475 15.7256 48.6419 15.5736 48.5091 15.4472L48.3925 15.3538ZM29.5858 32.1772L25.2458 33.6238L26.7391 29.2372L42.5591 13.4172L45.4758 16.3338L29.5858 32.1772Z" fill="#007ADF"/>
<path d="M21.7453 35.3738C21.6343 35.7235 21.665 36.1028 21.8308 36.4301C21.9967 36.7574 22.2843 37.0065 22.632 37.1238C22.9123 37.2164 23.215 37.2164 23.4953 37.1238L30.7986 34.7905C30.947 34.7329 31.082 34.6455 31.1953 34.5338L24.4286 27.7672C24.3337 27.8885 24.2553 28.0219 24.1953 28.1638L21.7453 35.3738Z" fill="#007ADF"/>
<div xmlns="" id="divScriptsUsed" style="display: none"/><script xmlns="" id="globalVarsDetection" src="moz-extension://4f013c2a-fc70-4c74-bac1-cb59135211ca/js/wrs_env.js"/></svg>