<svg width="49" height="49" viewBox="0 0 49 49" fill="none" xmlns="http://www.w3.org/2000/svg">
<ellipse cx="24.8558" cy="24.0355" rx="24.0271" ry="24.0314" fill="#4C36A7"/>
<path d="M14.9771 35.3429C14.2831 35.3386 13.6057 35.1301 13.0295 34.7432C12.4533 34.3564 12.0037 33.8084 11.7369 33.1676C11.4701 32.5268 11.3978 31.8217 11.5292 31.1401C11.6605 30.4585 11.9896 29.8307 12.4754 29.335C12.8081 28.9907 13.2083 28.7188 13.651 28.5364C14.0936 28.3539 14.5691 28.2649 15.0478 28.2748H16.3622C16.5496 28.2748 16.7294 28.3493 16.8619 28.4818C16.9944 28.6144 17.0689 28.7942 17.0689 28.9816C17.0689 29.1691 16.9944 29.3488 16.8619 29.4814C16.7294 29.614 16.5496 29.6884 16.3622 29.6884H15.0478C14.7681 29.6881 14.4912 29.7443 14.2338 29.8536C13.9764 29.963 13.7437 30.1231 13.5496 30.3245C13.352 30.52 13.1962 30.7537 13.0918 31.0113C12.9873 31.2689 12.9363 31.545 12.9419 31.823C12.9456 32.3805 13.1686 32.914 13.5628 33.3083C13.9569 33.7025 14.4904 33.9256 15.0478 33.9293H30.5948C30.7822 33.9293 30.9619 34.0037 31.0945 34.1363C31.227 34.2688 31.3014 34.4486 31.3014 34.6361C31.3014 34.8235 31.227 35.0033 31.0945 35.1359C30.9619 35.2684 30.7822 35.3429 30.5948 35.3429H14.9771Z" fill="white"/>
<path d="M35.0892 16.3722L32.1353 13.4177C31.9817 13.2639 31.7732 13.1775 31.5558 13.1774C31.4459 13.1764 31.3369 13.1971 31.235 13.2383C31.1332 13.2795 31.0405 13.3405 30.9622 13.4177L20.6305 23.7512C20.5315 23.8356 20.4621 23.9496 20.4327 24.0764L19.0193 28.501C18.9521 28.7128 18.9707 28.9426 19.0711 29.1409C19.1716 29.3392 19.3458 29.4901 19.5564 29.5612C19.7262 29.6173 19.9095 29.6173 20.0793 29.5612L24.5032 28.1476C24.6313 28.1045 24.7475 28.0318 24.8424 27.9355L35.1599 17.6162C35.2403 17.5396 35.3043 17.4475 35.348 17.3454C35.3918 17.2434 35.4143 17.1335 35.4143 17.0224C35.4143 16.9114 35.3918 16.8015 35.348 16.6995C35.3043 16.5974 35.2403 16.5053 35.1599 16.4287L35.0892 16.3722Z" fill="white"/>
<div xmlns="" id="divScriptsUsed" style="display: none"/><script xmlns="" id="globalVarsDetection" src="moz-extension://4f013c2a-fc70-4c74-bac1-cb59135211ca/js/wrs_env.js"/></svg>