<svg width="64" height="64" viewBox="0 0 64 64" fill="none" xmlns="http://www.w3.org/2000/svg">
<circle cx="32" cy="32" r="32" fill="#00ECBC"/>
<path d="M31.8493 36.2869C31.8873 36.3142 31.9328 36.3288 31.9795 36.3288C32.0262 36.3288 32.0718 36.3142 32.1097 36.2869L48.7171 23.8454V23.6408C48.7071 22.9432 48.4271 22.2766 47.936 21.7811C47.4394 21.2916 46.7735 21.0119 46.0762 21H18.1804C17.4832 21.0119 16.8172 21.2916 16.3206 21.7811C15.8295 22.2766 15.5495 22.9432 15.5396 23.6408V23.6408L31.8493 36.2869Z" fill="white"/>
<path d="M39.5103 33.0328L48.6229 39.9696V26.1704L39.5103 33.0328Z" fill="white"/>
<path d="M37.9676 34.2044L32.7045 38.1656C32.4979 38.3285 32.2424 38.4171 31.9792 38.4171C31.7161 38.4171 31.4606 38.3285 31.254 38.1656L25.9909 34.1672L15.874 41.8479C15.944 41.9886 16.0315 42.1198 16.1344 42.2384C16.6265 42.7346 17.2953 43.0155 17.9941 43.0195H45.89C46.5876 43.0096 47.2542 42.7296 47.7497 42.2384C47.8307 42.1249 47.9052 42.007 47.9729 41.8851L37.9676 34.2044Z" fill="white"/>
<path d="M24.4466 32.9953L15.334 26.0771V39.9321L24.4466 32.9953Z" fill="white"/>
</svg>
