<svg width="56" height="56" viewBox="0 0 56 56" fill="none" xmlns="http://www.w3.org/2000/svg">
<path d="M40.0868 21H35.0001C34.7504 20.9999 34.5105 21.0975 34.3318 21.2719C34.153 21.4463 34.0496 21.6836 34.0435 21.9333V43.4C34.0496 43.6496 34.153 43.887 34.3318 44.0614C34.5105 44.2358 34.7504 44.3334 35.0001 44.3333H40.1101C40.3577 44.3333 40.5951 44.235 40.7701 44.0599C40.9451 43.8849 41.0435 43.6475 41.0435 43.4V22.0033C41.0533 21.873 41.0357 21.7421 40.9917 21.619C40.9478 21.4959 40.8785 21.3835 40.7883 21.2889C40.6981 21.1943 40.589 21.1197 40.4682 21.0699C40.3474 21.0202 40.2174 20.9963 40.0868 21Z" fill="#00C9E5"/>
<path d="M30.6368 25.6666H25.5268C25.2793 25.6666 25.0419 25.765 24.8668 25.94C24.6918 26.115 24.5935 26.3524 24.5935 26.6V43.4C24.5935 43.6475 24.6918 43.8849 24.8668 44.0599C25.0419 44.235 25.2793 44.3333 25.5268 44.3333H30.6368C30.7613 44.3364 30.8852 44.3146 31.0011 44.2691C31.1171 44.2236 31.2227 44.1553 31.3119 44.0683C31.4011 43.9814 31.4719 43.8774 31.5203 43.7626C31.5686 43.6478 31.5935 43.5245 31.5935 43.4V26.6C31.5935 26.4754 31.5686 26.3521 31.5203 26.2373C31.4719 26.1225 31.4011 26.0186 31.3119 25.9316C31.2227 25.8446 31.1171 25.7764 31.0011 25.7309C30.8852 25.6854 30.7613 25.6635 30.6368 25.6666Z" fill="#00C9E5"/>
<path d="M21.2801 30.3333H16.1701C15.9226 30.3333 15.6852 30.4316 15.5102 30.6067C15.3351 30.7817 15.2368 31.0191 15.2368 31.2666V43.4C15.2368 43.6475 15.3351 43.8849 15.5102 44.0599C15.6852 44.235 15.9226 44.3333 16.1701 44.3333H21.2801C21.5299 44.3334 21.7697 44.2358 21.9485 44.0614C22.1272 43.887 22.2307 43.6496 22.2368 43.4V31.36C22.2464 31.2286 22.2288 31.0966 22.1851 30.9723C22.1414 30.8481 22.0724 30.7342 21.9826 30.6378C21.8928 30.5414 21.784 30.4646 21.6632 30.4122C21.5423 30.3598 21.4119 30.333 21.2801 30.3333Z" fill="#00C9E5"/>
<path d="M15.8201 25.4333C15.9677 25.4962 16.1264 25.5286 16.2868 25.5286C16.4472 25.5286 16.6059 25.4962 16.7535 25.4333L36.3535 14.9566L35.8868 16.31C35.8357 16.4616 35.815 16.6219 35.8261 16.7815C35.8372 16.9412 35.8797 17.0971 35.9513 17.2402C36.0229 17.3834 36.1221 17.5109 36.2431 17.6156C36.3642 17.7202 36.5048 17.7999 36.6568 17.85C36.8 17.9137 36.955 17.9466 37.1118 17.9466C37.2685 17.9466 37.4236 17.9137 37.5668 17.85C37.7138 17.786 37.8445 17.6899 37.9495 17.5688C38.0545 17.4477 38.131 17.3046 38.1735 17.15L39.6668 12.74C39.7354 12.594 39.771 12.4346 39.771 12.2733C39.771 12.112 39.7354 11.9526 39.6668 11.8066C39.5966 11.6639 39.4985 11.5366 39.3782 11.4324C39.258 11.3282 39.1181 11.2492 38.9668 11.2L34.6268 9.79998H34.2535C33.9971 9.79486 33.7461 9.87438 33.5394 10.0262C33.3328 10.1781 33.1819 10.3938 33.1101 10.64C33.014 10.9433 33.0408 11.2721 33.1849 11.5558C33.3289 11.8395 33.5786 12.0553 33.8801 12.1566L35.4901 12.67L35.0468 12.9033L15.6101 23.1933C15.4684 23.2691 15.3431 23.3723 15.2416 23.4969C15.14 23.6215 15.0643 23.765 15.0187 23.9192C14.9731 24.0733 14.9586 24.235 14.976 24.3948C14.9934 24.5545 15.0424 24.7093 15.1201 24.85C15.1917 24.9892 15.2906 25.1126 15.4108 25.2128C15.5311 25.313 15.6703 25.388 15.8201 25.4333Z" fill="#00C9E5"/>
</svg>
