<svg width="56" height="56" viewBox="0 0 56 56" fill="none" xmlns="http://www.w3.org/2000/svg">
<path d="M42.7934 16.6834L35.7934 9.68337C35.6886 9.57223 35.5613 9.48473 35.4201 9.42671C35.288 9.36694 35.145 9.33516 35.0001 9.33337H14.0001C13.6845 9.33337 13.3818 9.45875 13.1586 9.68192C12.9354 9.90508 12.8101 10.2078 12.8101 10.5234V45.5234C12.8221 45.8308 12.9528 46.1216 13.1747 46.3348C13.3966 46.548 13.6924 46.6669 14.0001 46.6667H42.0001C42.1553 46.6667 42.3089 46.6358 42.452 46.5757C42.5951 46.5156 42.7247 46.4276 42.8334 46.3168C42.942 46.206 43.0275 46.0746 43.0847 45.9303C43.1419 45.7861 43.1698 45.6319 43.1667 45.4767V17.4767C43.1478 17.1744 43.0143 16.8907 42.7934 16.6834ZM28.0001 21C28.7154 21 29.4146 21.2122 30.0094 21.6096C30.6041 22.007 31.0677 22.5718 31.3414 23.2327C31.6152 23.8935 31.6868 24.6207 31.5472 25.3223C31.4077 26.0238 31.0632 26.6683 30.5574 27.1741C30.0516 27.6799 29.4072 28.0243 28.7056 28.1639C28.0041 28.3034 27.2769 28.2318 26.616 27.9581C25.9552 27.6843 25.3903 27.2208 24.9929 26.626C24.5955 26.0313 24.3834 25.332 24.3834 24.6167C24.3803 24.1409 24.4717 23.6692 24.6524 23.229C24.833 22.7888 25.0993 22.3889 25.4358 22.0524C25.7722 21.716 26.1722 21.4497 26.6124 21.269C27.0526 21.0884 27.5242 20.9969 28.0001 21ZM20.7667 37.3334C20.7667 36.3835 20.9538 35.4429 21.3173 34.5653C21.6808 33.6877 22.2136 32.8903 22.8853 32.2186C23.557 31.547 24.3544 31.0142 25.232 30.6506C26.1096 30.2871 27.0502 30.1 28.0001 30.1C28.95 30.1 29.8905 30.2871 30.7681 30.6506C31.6457 31.0142 32.4431 31.547 33.1148 32.2186C33.7865 32.8903 34.3193 33.6877 34.6828 34.5653C35.0463 35.4429 35.2334 36.3835 35.2334 37.3334H20.7667ZM35.0001 18.6667C34.6845 18.6667 34.3818 18.5413 34.1586 18.3182C33.9354 18.095 33.8101 17.7923 33.8101 17.4767V11.6667L40.8101 18.6667H35.0001Z" fill="#00C9E5"/>
</svg>
