<svg width="56" height="56" viewBox="0 0 56 56" fill="none" xmlns="http://www.w3.org/2000/svg">
<path d="M41.6874 16.6857L34.7061 9.70432C34.5962 9.59558 34.4662 9.50919 34.3234 9.44997C34.1761 9.38632 34.0172 9.35386 33.8568 9.35441H12.8987C12.5833 9.35502 12.281 9.48058 12.058 9.70361C11.8349 9.92664 11.7094 10.229 11.7087 10.5444V45.4744C11.7094 45.7898 11.8349 46.0921 12.058 46.3152C12.281 46.5382 12.5833 46.6638 12.8987 46.6644H31.7708C30.57 45.6829 29.6016 44.4475 28.9351 43.0472C28.2686 41.6468 27.9206 40.1162 27.9161 38.5654C27.9161 38.2037 27.9394 37.8653 27.9721 37.4967C27.3164 37.4967 19.9011 37.4968 19.9011 37.4571V34.937C19.8992 33.9886 20.0843 33.0491 20.4457 32.1722C20.8071 31.2953 21.3378 30.4982 22.0073 29.8265C22.6769 29.1547 23.4723 28.6214 24.348 28.2572C25.2237 27.893 26.1626 27.7049 27.1111 27.7036C28.0948 27.6993 29.0689 27.8981 29.9722 28.2875C30.8756 28.677 31.6889 29.2488 32.3611 29.967C34.1127 28.6222 36.2767 27.927 38.4838 28C39.6956 28.0113 40.8963 28.2324 42.0327 28.6534V17.5303C42.0317 17.2146 41.9079 16.9117 41.6874 16.6857ZM27.1251 25.9024C26.4103 25.9019 25.7117 25.6895 25.1177 25.2921C24.5236 24.8947 24.0607 24.33 23.7875 23.6696C23.5143 23.0091 23.4431 22.2824 23.5828 21.5815C23.7225 20.8805 24.0669 20.2367 24.5725 19.7315C25.0781 19.2263 25.7221 18.8823 26.4231 18.743C27.1242 18.6037 27.8508 18.6754 28.5111 18.9491C29.1714 19.2227 29.7357 19.6859 30.1328 20.2802C30.5298 20.8746 30.7417 21.5733 30.7417 22.288C30.7411 23.2468 30.3598 24.1662 29.6816 24.8439C29.0034 25.5217 28.0839 25.9024 27.1251 25.9024ZM33.8614 18.7273C33.5464 18.7273 33.2443 18.6023 33.0216 18.3796C32.7989 18.1568 32.6737 17.8547 32.6737 17.5397V11.7414L39.6598 18.7273H33.8614Z" fill="#00C9E5"/>
<path d="M48.3188 46.5897L45.0685 43.3394C46.1291 41.9322 46.7025 40.2178 46.7018 38.4557C46.7018 36.8331 46.2207 35.247 45.3192 33.8978C44.4177 32.5487 43.1365 31.4971 41.6374 30.8762C40.1383 30.2553 38.4887 30.0928 36.8973 30.4094C35.3059 30.7259 33.8441 31.5072 32.6967 32.6545C31.5494 33.8019 30.768 35.2638 30.4515 36.8552C30.1349 38.4466 30.2974 40.0961 30.9183 41.5952C31.5392 43.0943 32.5908 44.3756 33.9399 45.2771C35.2891 46.1786 36.8752 46.6597 38.4978 46.6597C40.2593 46.6609 41.9731 46.0874 43.3792 45.0263L46.6295 48.2791C46.8564 48.4882 47.1554 48.6015 47.4639 48.5951C47.7724 48.5887 48.0665 48.4631 48.2846 48.2447C48.5026 48.0264 48.6278 47.7322 48.6337 47.4237C48.6397 47.1152 48.526 46.8163 48.3165 46.5897H48.3188ZM38.4932 44.2564C37.3458 44.2569 36.2241 43.917 35.2698 43.2799C34.3156 42.6428 33.5718 41.737 33.1324 40.6771C32.693 39.6172 32.5778 38.4508 32.8013 37.3255C33.0249 36.2001 33.5772 35.1663 34.3883 34.3548C35.1995 33.5434 36.233 32.9906 37.3583 32.7666C38.4836 32.5426 39.65 32.6573 40.7101 33.0963C41.7702 33.5353 42.6763 34.2787 43.3137 35.2327C43.9512 36.1866 44.2915 37.3083 44.2915 38.4557C44.2884 39.9923 43.6764 41.4652 42.5896 42.5515C41.5028 43.6379 40.0298 44.2492 38.4932 44.2517V44.2564Z" fill="#00C9E5"/>
</svg>
