<svg width="118" height="333" viewBox="0 0 118 333" fill="none" xmlns="http://www.w3.org/2000/svg">
<mask id="mask0_336_3891" style="mask-type:alpha" maskUnits="userSpaceOnUse" x="0" y="0" width="118" height="333">
<rect width="118" height="333" fill="#C4C4C4"/>
</mask>
<g mask="url(#mask0_336_3891)">
<path fill-rule="evenodd" clip-rule="evenodd" d="M0.29441 224.942C-0.0954955 224.551 -0.0955378 223.916 0.294315 223.525L3.10242 220.707C3.49227 220.316 4.12439 220.316 4.51429 220.707L7.32277 223.525C7.71267 223.916 7.71272 224.55 7.32286 224.941L4.51476 227.759C4.12491 228.15 3.49279 228.15 3.10288 227.759L0.29441 224.942ZM49.4866 223.525C49.0967 223.916 49.0968 224.551 49.4867 224.942L52.2951 227.759C52.685 228.15 53.3172 228.15 53.707 227.759L56.5151 224.941C56.905 224.55 56.9049 223.916 56.515 223.525L53.7066 220.707C53.3166 220.316 52.6845 220.316 52.2947 220.707L49.4866 223.525ZM49.4866 239.978C49.0967 240.369 49.0968 241.004 49.4867 241.395L52.2951 244.212C52.685 244.603 53.3172 244.603 53.707 244.212L56.5151 241.394C56.905 241.003 56.9049 240.369 56.515 239.978L53.7066 237.16C53.3166 236.769 52.6845 236.769 52.2947 237.16L49.4866 239.978ZM49.4867 257.848C49.0968 257.456 49.0967 256.822 49.4866 256.431L52.2947 253.613C52.6845 253.222 53.3166 253.222 53.7066 253.613L56.515 256.431C56.9049 256.822 56.905 257.456 56.5151 257.847L53.707 260.665C53.3172 261.056 52.685 261.056 52.2951 260.665L49.4867 257.848ZM49.4866 272.884C49.0967 273.275 49.0968 273.909 49.4867 274.3L52.2951 277.118C52.685 277.509 53.3172 277.509 53.707 277.118L56.5151 274.3C56.905 273.909 56.9049 273.275 56.515 272.883L53.7066 270.066C53.3166 269.675 52.6845 269.675 52.2947 270.066L49.4866 272.884ZM65.884 223.525C65.4941 223.916 65.4942 224.551 65.8841 224.942L68.6926 227.759C69.0825 228.15 69.7146 228.15 70.1044 227.759L72.9125 224.941C73.3024 224.55 73.3023 223.916 72.9124 223.525L70.104 220.707C69.7141 220.316 69.0819 220.316 68.6921 220.707L65.884 223.525ZM0.29441 241.395C-0.0954955 241.004 -0.0955378 240.369 0.294315 239.978L3.10242 237.16C3.49227 236.769 4.12439 236.769 4.51429 237.16L7.32277 239.978C7.71267 240.369 7.71272 241.003 7.32286 241.394L4.51476 244.212C4.12491 244.603 3.49279 244.603 3.10288 244.212L0.29441 241.395ZM65.884 239.978C65.4941 240.369 65.4942 241.004 65.8841 241.395L68.6926 244.212C69.0825 244.603 69.7146 244.603 70.1044 244.212L72.9125 241.394C73.3024 241.003 73.3023 240.369 72.9124 239.978L70.104 237.16C69.7141 236.769 69.0819 236.769 68.6921 237.16L65.884 239.978ZM0.29441 257.848C-0.0954955 257.456 -0.0955378 256.822 0.294315 256.431L3.10242 253.613C3.49227 253.222 4.12439 253.222 4.51429 253.613L7.32277 256.431C7.71267 256.822 7.71272 257.456 7.32286 257.847L4.51476 260.665C4.12491 261.056 3.49279 261.056 3.10288 260.665L0.29441 257.848ZM65.884 256.431C65.4941 256.822 65.4942 257.456 65.8841 257.848L68.6926 260.665C69.0825 261.056 69.7146 261.056 70.1044 260.665L72.9125 257.847C73.3024 257.456 73.3023 256.822 72.9124 256.431L70.104 253.613C69.7141 253.222 69.0819 253.222 68.6921 253.613L65.884 256.431ZM0.29441 274.3C-0.0954955 273.909 -0.0955378 273.275 0.294315 272.884L3.10242 270.066C3.49227 269.675 4.12439 269.675 4.51429 270.066L7.32277 272.883C7.71267 273.275 7.71272 273.909 7.32286 274.3L4.51476 277.118C4.12491 277.509 3.49279 277.509 3.10288 277.118L0.29441 274.3ZM65.884 272.884C65.4941 273.275 65.4942 273.909 65.8841 274.3L68.6926 277.118C69.0825 277.509 69.7146 277.509 70.1044 277.118L72.9125 274.3C73.3024 273.909 73.3023 273.275 72.9124 272.883L70.104 270.066C69.7141 269.675 69.0819 269.675 68.6921 270.066L65.884 272.884ZM16.6918 224.942C16.3019 224.551 16.3019 223.916 16.6917 223.525L19.4998 220.707C19.8897 220.316 20.5218 220.316 20.9117 220.707L23.7202 223.525C24.1101 223.916 24.1101 224.55 23.7203 224.941L20.9122 227.759C20.5223 228.15 19.8902 228.15 19.5003 227.759L16.6918 224.942ZM82.2814 223.525C81.8916 223.916 81.8916 224.551 82.2815 224.942L85.09 227.759C85.4799 228.15 86.112 228.15 86.5019 227.759L89.31 224.941C89.6998 224.55 89.6998 223.916 89.3099 223.525L86.5014 220.707C86.1115 220.316 85.4794 220.316 85.0895 220.707L82.2814 223.525ZM16.6918 241.395C16.3019 241.004 16.3019 240.369 16.6917 239.978L19.4998 237.16C19.8897 236.769 20.5218 236.769 20.9117 237.16L23.7202 239.978C24.1101 240.369 24.1101 241.003 23.7203 241.394L20.9122 244.212C20.5223 244.603 19.8902 244.603 19.5003 244.212L16.6918 241.395ZM82.2814 239.978C81.8916 240.369 81.8916 241.004 82.2815 241.395L85.09 244.212C85.4799 244.603 86.112 244.603 86.5019 244.212L89.31 241.394C89.6998 241.003 89.6998 240.369 89.3099 239.978L86.5014 237.16C86.1115 236.769 85.4794 236.769 85.0895 237.16L82.2814 239.978ZM16.6918 257.848C16.3019 257.456 16.3019 256.822 16.6917 256.431L19.4998 253.613C19.8897 253.222 20.5218 253.222 20.9117 253.613L23.7202 256.431C24.1101 256.822 24.1101 257.456 23.7203 257.847L20.9122 260.665C20.5223 261.056 19.8902 261.056 19.5003 260.665L16.6918 257.848ZM82.2814 256.431C81.8916 256.822 81.8916 257.456 82.2815 257.848L85.09 260.665C85.4799 261.056 86.112 261.056 86.5019 260.665L89.31 257.847C89.6998 257.456 89.6998 256.822 89.3099 256.431L86.5014 253.613C86.1115 253.222 85.4794 253.222 85.0895 253.613L82.2814 256.431ZM16.6918 274.3C16.3019 273.909 16.3019 273.275 16.6917 272.884L19.4998 270.066C19.8897 269.675 20.5218 269.675 20.9117 270.066L23.7202 272.883C24.1101 273.275 24.1101 273.909 23.7203 274.3L20.9122 277.118C20.5223 277.509 19.8902 277.509 19.5003 277.118L16.6918 274.3ZM82.2814 272.884C81.8916 273.275 81.8916 273.909 82.2815 274.3L85.09 277.118C85.4799 277.509 86.112 277.509 86.5019 277.118L89.31 274.3C89.6998 273.909 89.6998 273.275 89.3099 272.883L86.5014 270.066C86.1115 269.675 85.4794 269.675 85.0895 270.066L82.2814 272.884ZM33.0892 224.942C32.6993 224.551 32.6993 223.916 33.0892 223.525L35.8973 220.707C36.2871 220.316 36.9192 220.316 37.3091 220.707L40.1176 223.525C40.5075 223.916 40.5076 224.55 40.1177 224.941L37.3096 227.759C36.9197 228.15 36.2876 228.15 35.8977 227.759L33.0892 224.942ZM98.6788 223.525C98.289 223.916 98.289 224.551 98.6789 224.942L101.487 227.759C101.877 228.15 102.509 228.15 102.899 227.759L105.707 224.941C106.097 224.55 106.097 223.916 105.707 223.525L102.899 220.707C102.509 220.316 101.877 220.316 101.487 220.707L98.6788 223.525ZM33.0892 241.395C32.6993 241.004 32.6993 240.369 33.0892 239.978L35.8973 237.16C36.2871 236.769 36.9192 236.769 37.3091 237.16L40.1176 239.978C40.5075 240.369 40.5076 241.003 40.1177 241.394L37.3096 244.212C36.9197 244.603 36.2876 244.603 35.8977 244.212L33.0892 241.395ZM98.6788 239.978C98.289 240.369 98.289 241.004 98.6789 241.395L101.487 244.212C101.877 244.603 102.509 244.603 102.899 244.212L105.707 241.394C106.097 241.003 106.097 240.369 105.707 239.978L102.899 237.16C102.509 236.769 101.877 236.769 101.487 237.16L98.6788 239.978ZM33.0892 257.848C32.6993 257.456 32.6993 256.822 33.0892 256.431L35.8973 253.613C36.2871 253.222 36.9192 253.222 37.3091 253.613L40.1176 256.431C40.5075 256.822 40.5076 257.456 40.1177 257.847L37.3096 260.665C36.9197 261.056 36.2876 261.056 35.8977 260.665L33.0892 257.848ZM98.6788 256.431C98.289 256.822 98.289 257.456 98.6789 257.848L101.487 260.665C101.877 261.056 102.509 261.056 102.899 260.665L105.707 257.847C106.097 257.456 106.097 256.822 105.707 256.431L102.899 253.613C102.509 253.222 101.877 253.222 101.487 253.613L98.6788 256.431ZM33.0892 274.3C32.6993 273.909 32.6993 273.275 33.0892 272.884L35.8973 270.066C36.2871 269.675 36.9192 269.675 37.3091 270.066L40.1176 272.883C40.5075 273.275 40.5076 273.909 40.1177 274.3L37.3096 277.118C36.9197 277.509 36.2876 277.509 35.8977 277.118L33.0892 274.3ZM98.6788 272.884C98.289 273.275 98.289 273.909 98.6789 274.3L101.487 277.118C101.877 277.509 102.509 277.509 102.899 277.118L105.707 274.3C106.097 273.909 106.097 273.275 105.707 272.883L102.899 270.066C102.509 269.675 101.877 269.675 101.487 270.066L98.6788 272.884Z" fill="#195DB8"/>
<rect x="181.848" y="-17.8788" width="259" height="259" rx="47.5" transform="rotate(45 181.848 -17.8788)" stroke="#195DB8"/>
<g opacity="0.4" filter="url(#filter0_d_336_3891)">
<rect x="181" y="23.4141" width="200" height="200" rx="48" transform="rotate(45 181 23.4141)" fill="#004BB0"/>
</g>
</g>
<defs>
<filter id="filter0_d_336_3891" x="25.4609" y="19.2963" width="311.078" height="311.078" filterUnits="userSpaceOnUse" color-interpolation-filters="sRGB">
<feFlood flood-opacity="0" result="BackgroundImageFix"/>
<feColorMatrix in="SourceAlpha" type="matrix" values="0 0 0 0 0 0 0 0 0 0 0 0 0 0 0 0 0 0 127 0" result="hardAlpha"/>
<feMorphology radius="4" operator="dilate" in="SourceAlpha" result="effect1_dropShadow_336_3891"/>
<feOffset dy="10"/>
<feGaussianBlur stdDeviation="15"/>
<feColorMatrix type="matrix" values="0 0 0 0 0 0 0 0 0 0.145098 0 0 0 0 0.439216 0 0 0 0.15 0"/>
<feBlend mode="normal" in2="BackgroundImageFix" result="effect1_dropShadow_336_3891"/>
<feBlend mode="normal" in="SourceGraphic" in2="effect1_dropShadow_336_3891" result="shape"/>
</filter>
</defs>
<div xmlns="" id="divScriptsUsed" style="display: none"/><script xmlns="" id="globalVarsDetection" src="moz-extension://4f013c2a-fc70-4c74-bac1-cb59135211ca/js/wrs_env.js"/></svg>