<svg width="55" height="55" viewBox="0 0 55 55" fill="none" xmlns="http://www.w3.org/2000/svg">
<ellipse cx="27.1953" cy="27.211" rx="27.1611" ry="27.166" fill="#00C9E5"/>
<path d="M41.7571 24.9397L27.6542 14.8465C27.5235 14.7474 27.3639 14.6937 27.1998 14.6937C27.0357 14.6937 26.8761 14.7474 26.7454 14.8465L12.6425 24.9397C12.5577 24.9991 12.4856 25.0747 12.4302 25.1621C12.3749 25.2496 12.3373 25.3471 12.3199 25.4491C12.3024 25.5511 12.3053 25.6556 12.3284 25.7564C12.3515 25.8573 12.3943 25.9526 12.4544 26.0368C12.5263 26.1402 12.6225 26.2242 12.7346 26.2816C12.8466 26.339 12.971 26.368 13.0969 26.366C13.259 26.3652 13.4172 26.3161 13.5513 26.2249L16.2309 24.3599L16.0742 38.9825C16.0783 39.1793 16.1593 39.3666 16.2999 39.5043C16.4405 39.642 16.6295 39.7191 16.8263 39.7191H23.7524V30.0177C23.7524 29.853 23.7848 29.69 23.8478 29.5379C23.9108 29.3858 24.0032 29.2475 24.1196 29.1311C24.236 29.0147 24.3742 28.9223 24.5263 28.8593C24.6784 28.7963 24.8414 28.7639 25.006 28.7639H29.3779C29.7104 28.7639 30.0292 28.896 30.2643 29.1311C30.4994 29.3662 30.6315 29.6852 30.6315 30.0177V39.7504H37.4479C37.6447 39.7505 37.8337 39.6734 37.9743 39.5357C38.1149 39.3979 38.1959 39.2106 38.2 39.0138L38.2941 24.4225L40.8482 26.2563C41.0186 26.3768 41.2299 26.4247 41.4356 26.3894C41.6413 26.3542 41.8246 26.2386 41.9451 26.0682C42.0657 25.8978 42.1136 25.6864 42.0783 25.4807C42.043 25.2749 41.9275 25.0916 41.7571 24.9711V24.9397Z" fill="white"/>
<div xmlns="" id="divScriptsUsed" style="display: none"/><script xmlns="" id="globalVarsDetection" src="moz-extension://4f013c2a-fc70-4c74-bac1-cb59135211ca/js/wrs_env.js"/></svg>