<svg width="32" height="32" viewBox="0 0 32 32" fill="none" xmlns="http://www.w3.org/2000/svg">
<path d="M26.2397 5.3335H5.75973C5.27403 5.33348 4.80803 5.52551 4.46334 5.8677C4.11865 6.20989 3.92325 6.67448 3.91973 7.16016V20.7868C3.91255 21.0323 3.95494 21.2767 4.04436 21.5054C4.13377 21.7341 4.26839 21.9424 4.44015 22.1179C4.61191 22.2934 4.8173 22.4325 5.04402 22.5268C5.27075 22.6211 5.51417 22.6687 5.75973 22.6668H14.9997V25.3335H11.3197C11.1429 25.3335 10.9733 25.4037 10.8483 25.5288C10.7233 25.6538 10.6531 25.8234 10.6531 26.0002C10.6531 26.177 10.7233 26.3465 10.8483 26.4716C10.9733 26.5966 11.1429 26.6668 11.3197 26.6668H20.6531C20.8299 26.6668 20.9994 26.5966 21.1245 26.4716C21.2495 26.3465 21.3197 26.177 21.3197 26.0002C21.3197 25.8234 21.2495 25.6538 21.1245 25.5288C20.9994 25.4037 20.8299 25.3335 20.6531 25.3335H16.9997V22.6668H26.2397C26.4807 22.6686 26.7197 22.6226 26.9429 22.5316C27.166 22.4406 27.369 22.3063 27.54 22.1365C27.711 21.9668 27.8468 21.7648 27.9394 21.5423C28.032 21.3198 28.0797 21.0812 28.0797 20.8402V7.16016C28.0762 6.67448 27.8808 6.20989 27.5361 5.8677C27.1914 5.52551 26.7254 5.33348 26.2397 5.3335V5.3335ZM15.9997 20.5735C15.8515 20.5761 15.7059 20.5346 15.5813 20.4542C15.4568 20.3738 15.359 20.2581 15.3005 20.1219C15.2419 19.9857 15.2252 19.8352 15.2525 19.6895C15.2798 19.5438 15.3498 19.4095 15.4537 19.3038C15.5576 19.198 15.6906 19.1255 15.8358 19.0956C15.9809 19.0657 16.1318 19.0797 16.269 19.1358C16.4062 19.1919 16.5236 19.2876 16.6062 19.4107C16.6889 19.5337 16.733 19.6786 16.7331 19.8268C16.7348 19.9242 16.7172 20.021 16.6811 20.1116C16.6451 20.2021 16.5913 20.2845 16.523 20.354C16.4548 20.4235 16.3733 20.4787 16.2835 20.5164C16.1936 20.5541 16.0972 20.5735 15.9997 20.5735V20.5735ZM25.9864 18.0002C25.983 18.0792 25.9491 18.1538 25.892 18.2084C25.8348 18.2631 25.7588 18.2936 25.6797 18.2935H6.31973C6.24065 18.2936 6.1646 18.2631 6.10746 18.2084C6.05032 18.1538 6.0165 18.0792 6.01306 18.0002V7.88016C6.01306 7.83989 6.02099 7.80001 6.0364 7.76281C6.05181 7.7256 6.0744 7.69179 6.10288 7.66332C6.13136 7.63484 6.16516 7.61225 6.20237 7.59684C6.23958 7.58143 6.27945 7.5735 6.31973 7.5735H25.6797C25.72 7.5735 25.7599 7.58143 25.7971 7.59684C25.8343 7.61225 25.8681 7.63484 25.8966 7.66332C25.925 7.69179 25.9476 7.7256 25.963 7.76281C25.9785 7.80001 25.9864 7.83989 25.9864 7.88016V18.0002Z" fill="#3B99FC"/>
</svg>
