<svg width="32" height="32" viewBox="0 0 32 32" fill="none" xmlns="http://www.w3.org/2000/svg">
<path d="M15.8128 20.3867C15.6418 20.3872 15.4725 20.3523 15.3157 20.2843C15.1588 20.2162 15.0177 20.1164 14.9013 19.9912C14.7848 19.866 14.6955 19.718 14.639 19.5566C14.5824 19.3952 14.5599 19.2239 14.5728 19.0534C14.5599 18.8829 14.5824 18.7115 14.639 18.5502C14.6955 18.3888 14.7848 18.2408 14.9013 18.1156C15.0177 17.9904 15.1588 17.8906 15.3157 17.8225C15.4725 17.7545 15.6418 17.7196 15.8128 17.7201C15.9849 17.7177 16.1556 17.7512 16.3141 17.8185C16.4725 17.8857 16.6153 17.9852 16.7331 18.1107C16.851 18.2361 16.9415 18.3847 16.9989 18.547C17.0562 18.7093 17.0791 18.8818 17.0661 19.0534C17.0771 19.2246 17.0528 19.3962 16.9947 19.5576C16.9366 19.719 16.846 19.8668 16.7286 19.9918C16.6111 20.1168 16.4692 20.2164 16.3116 20.2843C16.1541 20.3522 15.9843 20.3871 15.8128 20.3867V20.3867ZM17.6395 14.6134C17.3467 14.8638 17.1117 15.1746 16.9506 15.5244C16.7895 15.8743 16.7061 16.2549 16.7061 16.6401V16.8667H14.8928V16.6934C14.8487 16.1773 14.923 15.658 15.1102 15.175C15.2974 14.6921 15.5924 14.2583 15.9728 13.9067C16.3611 13.5561 16.6234 13.0877 16.7195 12.5734C16.7298 12.4488 16.7127 12.3235 16.6692 12.2062C16.6258 12.089 16.5571 11.9827 16.4681 11.895C16.3791 11.8072 16.2718 11.7401 16.154 11.6983C16.0361 11.6566 15.9105 11.6412 15.7861 11.6534C15.5279 11.6564 15.2738 11.718 15.0428 11.8335C14.8119 11.9489 14.6101 12.1153 14.4528 12.3201L14.3195 12.4667L13.1328 11.3734L13.2528 11.2267C13.5745 10.8249 13.9794 10.4976 14.4398 10.2675C14.9002 10.0373 15.405 9.90966 15.9194 9.8934C16.2662 9.85636 16.6168 9.8949 16.9472 10.0064C17.2776 10.1178 17.5799 10.2995 17.8334 10.539C18.0868 10.7785 18.2853 11.0701 18.4153 11.3937C18.5452 11.7172 18.6035 12.0651 18.5861 12.4134C18.5754 13.259 18.2359 14.0672 17.6395 14.6667V14.6134ZM26.9728 6.7334H5.02612C4.89192 6.73339 4.75905 6.76003 4.63523 6.81179C4.51141 6.86355 4.3991 6.93938 4.30483 7.03489C4.21055 7.13041 4.1362 7.2437 4.08607 7.36818C4.03593 7.49267 4.01102 7.62587 4.01278 7.76007V21.6401C4.01102 21.7743 4.03593 21.9075 4.08607 22.0319C4.1362 22.1564 4.21055 22.2697 4.30483 22.3652C4.3991 22.4607 4.51141 22.5366 4.63523 22.5883C4.75905 22.6401 4.89192 22.6667 5.02612 22.6667H12.0261V26.0934C12.0254 26.1666 12.0448 26.2386 12.0823 26.3015C12.1197 26.3645 12.1736 26.4159 12.2383 26.4503C12.3029 26.4847 12.3757 26.5007 12.4488 26.4965C12.5219 26.4924 12.5925 26.4682 12.6528 26.4267L18.5595 22.6667H26.9728C27.2451 22.6667 27.5062 22.5586 27.6987 22.366C27.8913 22.1735 27.9995 21.9124 27.9995 21.6401V7.76007C27.9995 7.49007 27.8931 7.23093 27.7035 7.03878C27.5138 6.84662 27.2561 6.7369 26.9861 6.7334H26.9728Z" fill="#3B99FC"/>
</svg>
