<svg width="32" height="32" viewBox="0 0 32 32" fill="none" xmlns="http://www.w3.org/2000/svg">
<path d="M4.63965 9.95996V7.29329C4.63965 6.93967 4.78012 6.60053 5.03017 6.35049C5.28022 6.10044 5.61936 5.95996 5.97298 5.95996H25.973C26.3266 5.95996 26.6657 6.10044 26.9158 6.35049C27.1658 6.60053 27.3063 6.93967 27.3063 7.29329V9.95996H4.63965ZM14.853 6.53329C14.5301 6.53066 14.2138 6.62415 13.9443 6.80188C13.6747 6.9796 13.4642 7.23351 13.3394 7.53128C13.2146 7.82905 13.1813 8.15722 13.2436 8.474C13.306 8.79078 13.4612 9.08184 13.6895 9.31013C13.9178 9.53843 14.2088 9.69362 14.5256 9.75596C14.8424 9.8183 15.1706 9.78496 15.4683 9.6602C15.7661 9.53543 16.02 9.32487 16.1977 9.05534C16.3755 8.7858 16.469 8.46947 16.4663 8.14663C16.4663 7.71875 16.2963 7.30839 15.9938 7.00583C15.6912 6.70327 15.2809 6.53329 14.853 6.53329ZM10.9863 6.53329C10.6635 6.53066 10.3471 6.62415 10.0776 6.80188C9.80807 6.9796 9.59751 7.23351 9.47275 7.53128C9.34798 7.82905 9.31464 8.15722 9.37698 8.474C9.43932 8.79078 9.59452 9.08184 9.82281 9.31013C10.0511 9.53843 10.3422 9.69362 10.6589 9.75596C10.9757 9.8183 11.3039 9.78496 11.6017 9.6602C11.8994 9.53543 12.1533 9.32487 12.3311 9.05534C12.5088 8.7858 12.6023 8.46947 12.5996 8.14663C12.5996 7.71875 12.4297 7.30839 12.1271 7.00583C11.8246 6.70327 11.4142 6.53329 10.9863 6.53329ZM6.98631 6.53329C6.66461 6.53594 6.35091 6.63393 6.08489 6.81486C5.81886 6.99579 5.61247 7.25154 5.4918 7.54977C5.37113 7.848 5.3416 8.17532 5.40695 8.49033C5.4723 8.80534 5.62959 9.0939 5.85894 9.31952C6.08829 9.54514 6.37939 9.69768 6.69543 9.75786C7.01147 9.81804 7.33826 9.78315 7.63447 9.65761C7.93069 9.53206 8.18302 9.3215 8.35957 9.05255C8.53611 8.7836 8.62894 8.46834 8.62631 8.14663C8.6228 7.71752 8.44987 7.30719 8.14519 7.00501C7.84051 6.70283 7.42877 6.53328 6.99965 6.53329H6.98631Z" fill="#3B99FC"/>
<path d="M26.0267 6.66652C26.2035 6.66652 26.3731 6.73676 26.4981 6.86178C26.6231 6.98681 26.6934 7.15638 26.6934 7.33319V9.33319H16.8267C17.0321 8.98628 17.1381 8.58962 17.1334 8.18652C17.136 7.64971 16.9469 7.12961 16.6 6.71985H26.0267V6.66652ZM13.12 6.66652C13.0425 6.74669 12.9753 6.83628 12.92 6.93319C12.8648 6.83628 12.7976 6.74669 12.72 6.66652H13.12ZM9.24005 6.66652C9.14813 6.77336 9.06769 6.88955 9.00005 7.01319C8.9232 6.89226 8.83858 6.77646 8.74671 6.66652H9.24005ZM26.0267 5.33319H6.02671C5.76071 5.32963 5.49667 5.37918 5.25005 5.47894C5.00343 5.57869 4.77919 5.72665 4.59046 5.91413C4.40173 6.10162 4.2523 6.32488 4.15092 6.57083C4.04954 6.81679 3.99825 7.0805 4.00005 7.34652V10.6665H28V7.34652C28.0036 6.81837 27.7981 6.31025 27.4284 5.93306C27.0587 5.55586 26.5548 5.34022 26.0267 5.33319V5.33319ZM14.8534 9.10652C14.62 9.07887 14.4048 8.96654 14.2487 8.79083C14.0926 8.61512 14.0063 8.38824 14.0063 8.15319C14.0063 7.91814 14.0926 7.69125 14.2487 7.51554C14.4048 7.33983 14.62 7.22751 14.8534 7.19985C15.0868 7.22751 15.302 7.33983 15.4581 7.51554C15.6142 7.69125 15.7004 7.91814 15.7004 8.15319C15.7004 8.38824 15.6142 8.61512 15.4581 8.79083C15.302 8.96654 15.0868 9.07887 14.8534 9.10652V9.10652ZM10.9867 9.10652C10.7995 9.0961 10.6194 9.03107 10.4687 8.91945C10.318 8.80783 10.2033 8.65452 10.1387 8.47844C10.0742 8.30237 10.0626 8.11124 10.1054 7.92867C10.1483 7.74609 10.2437 7.58006 10.3798 7.45109C10.516 7.32211 10.6869 7.23583 10.8715 7.20291C11.0561 7.16999 11.2464 7.19186 11.4187 7.26583C11.591 7.3398 11.7379 7.46262 11.8412 7.61913C11.9445 7.77564 11.9998 7.95898 12 8.14652C12.0018 8.27196 11.9786 8.39649 11.9318 8.51289C11.8851 8.62929 11.8156 8.73523 11.7275 8.82455C11.6394 8.91387 11.5345 8.9848 11.4188 9.0332C11.303 9.08161 11.1788 9.10653 11.0534 9.10652H10.9867ZM6.98671 9.10652C6.79947 9.0961 6.61937 9.03107 6.46867 8.91945C6.31797 8.80783 6.20326 8.65452 6.13871 8.47844C6.07416 8.30237 6.06259 8.11124 6.10544 7.92867C6.14829 7.74609 6.24367 7.58006 6.37981 7.45109C6.51595 7.32211 6.68689 7.23583 6.87151 7.20291C7.05614 7.16999 7.24636 7.19186 7.41869 7.26583C7.59102 7.3398 7.73792 7.46262 7.84123 7.61913C7.94455 7.77564 7.99976 7.95898 8.00005 8.14652C8.00184 8.27309 7.97824 8.39873 7.93063 8.51601C7.88302 8.63329 7.81237 8.73984 7.72287 8.82934C7.63336 8.91885 7.52682 8.98949 7.40954 9.0371C7.29225 9.08471 7.16661 9.10832 7.04005 9.10652H6.98671Z" fill="#3B99FC"/>
<path d="M5.97298 23.3998C5.61936 23.3998 5.28022 23.2593 5.03017 23.0093C4.78012 22.7592 4.63965 22.4201 4.63965 22.0665V12.6265H27.3063V14.2265H20.3597C19.4638 14.23 18.6058 14.5884 17.9735 15.2231C17.3413 15.8578 16.9863 16.7172 16.9863 17.6131V23.4131L5.97298 23.3998Z" fill="#3B99FC"/>
<path d="M26.6667 13.3333V13.5867H20.36C19.2991 13.5867 18.2817 14.0081 17.5316 14.7582C16.7814 15.5084 16.36 16.5258 16.36 17.5867V22.72H5.97333C5.79652 22.72 5.62695 22.6498 5.50193 22.5247C5.3769 22.3997 5.30667 22.2301 5.30667 22.0533V13.3333H26.6667ZM28 12H4V22.1067C4 22.6371 4.21071 23.1458 4.58579 23.5209C4.96086 23.896 5.46957 24.1067 6 24.1067H17.68V17.6C17.68 16.8928 17.961 16.2145 18.461 15.7144C18.9611 15.2143 19.6394 14.9333 20.3467 14.9333H28V12Z" fill="#3B99FC"/>
<path d="M28.0002 16.1064H27.8935H20.3602C19.9594 16.11 19.5762 16.2717 19.294 16.5563C19.0118 16.841 18.8535 17.2256 18.8535 17.6264V25.1864C18.8639 25.5803 19.0268 25.9548 19.3078 26.2309C19.5889 26.507 19.9662 26.6631 20.3602 26.6664H27.9202C28.321 26.6665 28.7056 26.5081 28.9903 26.226C29.275 25.9438 29.4367 25.5606 29.4402 25.1598V17.5998C29.4371 17.2138 29.2861 16.8437 29.0181 16.5658C28.7502 16.2879 28.3858 16.1235 28.0002 16.1064V16.1064ZM26.0668 22.1731H24.9202V23.3331C24.9202 23.4382 24.8995 23.5422 24.8593 23.6393C24.8191 23.7363 24.7602 23.8245 24.6859 23.8988C24.6116 23.9731 24.5234 24.032 24.4263 24.0722C24.3293 24.1124 24.2252 24.1331 24.1202 24.1331C24.0151 24.1331 23.9111 24.1124 23.814 24.0722C23.717 24.032 23.6288 23.9731 23.5545 23.8988C23.4802 23.8245 23.4213 23.7363 23.3811 23.6393C23.3409 23.5422 23.3202 23.4382 23.3202 23.3331V22.1731H22.1602C22.0551 22.1731 21.9511 22.1524 21.854 22.1122C21.757 22.072 21.6688 22.0131 21.5945 21.9388C21.5202 21.8645 21.4613 21.7763 21.4211 21.6793C21.3809 21.5822 21.3602 21.4782 21.3602 21.3731C21.3602 21.2681 21.3809 21.164 21.4211 21.067C21.4613 20.9699 21.5202 20.8817 21.5945 20.8074C21.6688 20.7331 21.757 20.6742 21.854 20.634C21.9511 20.5938 22.0551 20.5731 22.1602 20.5731H23.3202V19.4264C23.3202 19.3214 23.3409 19.2174 23.3811 19.1203C23.4213 19.0232 23.4802 18.935 23.5545 18.8608C23.6288 18.7865 23.717 18.7275 23.814 18.6873C23.9111 18.6471 24.0151 18.6264 24.1202 18.6264C24.2252 18.6264 24.3293 18.6471 24.4263 18.6873C24.5234 18.7275 24.6116 18.7865 24.6859 18.8608C24.7602 18.935 24.8191 19.0232 24.8593 19.1203C24.8995 19.2174 24.9202 19.3214 24.9202 19.4264V20.5731H26.0668C26.1719 20.5731 26.2759 20.5938 26.373 20.634C26.4701 20.6742 26.5582 20.7331 26.6325 20.8074C26.7068 20.8817 26.7658 20.9699 26.806 21.067C26.8462 21.164 26.8668 21.2681 26.8668 21.3731C26.8668 21.4782 26.8462 21.5822 26.806 21.6793C26.7658 21.7763 26.7068 21.8645 26.6325 21.9388C26.5582 22.0131 26.4701 22.072 26.373 22.1122C26.2759 22.1524 26.1719 22.1731 26.0668 22.1731V22.1731Z" fill="#3B99FC"/>
</svg>
