<svg width="32" height="32" viewBox="0 0 32 32" fill="none" xmlns="http://www.w3.org/2000/svg">
<path d="M15.9997 4.38674C16.0814 4.38851 16.1626 4.37396 16.2385 4.34393C16.3145 4.31391 16.3837 4.26901 16.4421 4.21188C16.5004 4.15475 16.5468 4.08653 16.5785 4.01124C16.6101 3.93594 16.6264 3.85508 16.6264 3.7734V2.5334C16.6264 2.3672 16.5604 2.20781 16.4428 2.09028C16.3253 1.97276 16.1659 1.90674 15.9997 1.90674C15.8335 1.90674 15.6741 1.97276 15.5566 2.09028C15.4391 2.20781 15.373 2.3672 15.373 2.5334V3.7734C15.373 3.85508 15.3893 3.93594 15.421 4.01124C15.4526 4.08653 15.499 4.15475 15.5574 4.21188C15.6157 4.26901 15.6849 4.31391 15.7609 4.34393C15.8369 4.37396 15.9181 4.38851 15.9997 4.38674V4.38674Z" fill="#3B99FC"/>
<path d="M24.0004 7.42717C24.1659 7.42552 24.3241 7.35841 24.4404 7.2405L25.6804 6.0005C25.7752 5.87999 25.8225 5.72889 25.8134 5.57581C25.8043 5.42274 25.7394 5.27831 25.631 5.16988C25.5226 5.06144 25.3781 4.99653 25.2251 4.98743C25.072 4.97833 24.9209 5.02568 24.8004 5.1205L23.5604 6.3605C23.474 6.44811 23.4153 6.55922 23.3916 6.67996C23.3679 6.80071 23.3803 6.92575 23.4272 7.0395C23.4742 7.15325 23.5535 7.25067 23.6554 7.3196C23.7574 7.38854 23.8773 7.42595 24.0004 7.42717V7.42717Z" fill="#3B99FC"/>
<path d="M7.60025 7.19998C7.72077 7.2948 7.87187 7.34215 8.02494 7.33305C8.17802 7.32395 8.32245 7.25904 8.43088 7.15061C8.53931 7.04218 8.60422 6.89775 8.61332 6.74467C8.62242 6.59159 8.57508 6.44049 8.48025 6.31998L7.24025 5.07998C7.18549 5.01038 7.1166 4.95318 7.03812 4.91215C6.95964 4.87111 6.87335 4.84718 6.78494 4.84192C6.69654 4.83667 6.60803 4.85021 6.52524 4.88166C6.44245 4.91311 6.36726 4.96174 6.30464 5.02437C6.24202 5.08699 6.19338 5.16217 6.16193 5.24496C6.13049 5.32775 6.11694 5.41627 6.1222 5.50467C6.12745 5.59308 6.15139 5.67936 6.19242 5.75784C6.23345 5.83632 6.29065 5.90522 6.36025 5.95998L7.60025 7.19998Z" fill="#3B99FC"/>
<path d="M25.9337 13.0931H24.6937C24.5449 13.115 24.4089 13.1896 24.3106 13.3035C24.2123 13.4173 24.1582 13.5627 24.1582 13.7131C24.1582 13.8635 24.2123 14.0089 24.3106 14.1227C24.4089 14.2365 24.5449 14.3112 24.6937 14.3331H25.9337C26.0227 14.3462 26.1136 14.3399 26.2 14.3148C26.2864 14.2896 26.3664 14.2462 26.4345 14.1874C26.5026 14.1285 26.5572 14.0557 26.5947 13.9739C26.6322 13.892 26.6515 13.8031 26.6515 13.7131C26.6515 13.6231 26.6322 13.5341 26.5947 13.4523C26.5572 13.3705 26.5026 13.2977 26.4345 13.2388C26.3664 13.18 26.2864 13.1365 26.2 13.1114C26.1136 13.0862 26.0227 13.08 25.9337 13.0931V13.0931Z" fill="#3B99FC"/>
<path d="M6.06646 14.3331H7.30646C7.45527 14.3112 7.59124 14.2365 7.68956 14.1227C7.78787 14.0089 7.84197 13.8635 7.84197 13.7131C7.84197 13.5627 7.78787 13.4173 7.68956 13.3035C7.59124 13.1896 7.45527 13.115 7.30646 13.0931H6.06646C5.97742 13.08 5.8866 13.0862 5.80019 13.1114C5.71377 13.1365 5.63379 13.18 5.56568 13.2388C5.49757 13.2977 5.44292 13.3705 5.40547 13.4523C5.36802 13.5341 5.34863 13.6231 5.34863 13.7131C5.34863 13.8031 5.36802 13.892 5.40547 13.9739C5.44292 14.0557 5.49757 14.1285 5.56568 14.1874C5.63379 14.2462 5.71377 14.2896 5.80019 14.3148C5.8866 14.3399 5.97742 14.3462 6.06646 14.3331V14.3331Z" fill="#3B99FC"/>
<path d="M18.4802 24.2666H13.5202C13.354 24.2666 13.1946 24.3326 13.0771 24.4501C12.9596 24.5677 12.8936 24.7271 12.8936 24.8933C12.8936 25.0595 12.9596 25.2189 13.0771 25.3364C13.1946 25.4539 13.354 25.5199 13.5202 25.5199H18.4802C18.6464 25.5199 18.8058 25.4539 18.9233 25.3364C19.0409 25.2189 19.1069 25.0595 19.1069 24.8933C19.1069 24.7271 19.0409 24.5677 18.9233 24.4501C18.8058 24.3326 18.6464 24.2666 18.4802 24.2666V24.2666Z" fill="#3B99FC"/>
<path d="M17.2398 26.7596H14.7598C14.6708 26.7465 14.58 26.7527 14.4935 26.7779C14.4071 26.803 14.3271 26.8465 14.259 26.9053C14.1909 26.9642 14.1363 27.037 14.0988 27.1188C14.0614 27.2007 14.042 27.2896 14.042 27.3796C14.042 27.4696 14.0614 27.5585 14.0988 27.6404C14.1363 27.7222 14.1909 27.795 14.259 27.8539C14.3271 27.9127 14.4071 27.9562 14.4935 27.9813C14.58 28.0065 14.6708 28.0127 14.7598 27.9996H17.2398C17.3289 28.0127 17.4197 28.0065 17.5061 27.9813C17.5925 27.9562 17.6725 27.9127 17.7406 27.8539C17.8087 27.795 17.8634 27.7222 17.9008 27.6404C17.9383 27.5585 17.9577 27.4696 17.9577 27.3796C17.9577 27.2896 17.9383 27.2007 17.9008 27.1188C17.8634 27.037 17.8087 26.9642 17.7406 26.9053C17.6725 26.8465 17.5925 26.803 17.5061 26.7779C17.4197 26.7527 17.3289 26.7465 17.2398 26.7596V26.7596Z" fill="#3B99FC"/>
<path d="M22.667 11.2004C22.4699 9.60022 21.6711 8.13504 20.4329 7.10239C19.1947 6.06973 17.6099 5.54703 16.0003 5.64042C14.7319 5.55651 13.4685 5.86622 12.3827 6.52726C11.2968 7.1883 10.4416 8.16842 9.93365 9.33375C9.38943 10.6076 9.17734 11.9988 9.31726 13.3769C9.45718 14.7551 9.94451 16.0752 10.7337 17.2138C11.4749 18.4084 11.7985 19.8153 11.6537 21.2138C11.6537 21.4571 11.7016 21.6981 11.7947 21.923C11.8879 22.1479 12.0244 22.3522 12.1965 22.5243C12.3686 22.6964 12.5729 22.8329 12.7977 22.926C13.0226 23.0191 13.2636 23.0671 13.507 23.0671H18.5203C18.9983 23.0675 19.458 22.8833 19.8033 22.5528C20.1487 22.2224 20.353 21.7713 20.3737 21.2938C20.3776 19.8014 20.7928 18.3389 21.5737 17.0671C22.6811 15.3257 23.0729 13.2238 22.667 11.2004V11.2004ZM17.9337 15.3071L16.6937 17.7871C16.6276 17.9182 16.5267 18.0286 16.4021 18.1062C16.2774 18.1839 16.1338 18.2257 15.987 18.2271C15.8668 18.2277 15.7481 18.2003 15.6403 18.1471C15.4519 18.0526 15.3084 17.8875 15.2409 17.6878C15.1735 17.4881 15.1877 17.2698 15.2803 17.0804L15.9603 15.7471H14.747C14.613 15.7479 14.4812 15.714 14.3643 15.6485C14.2475 15.5831 14.1496 15.4884 14.0803 15.3738C14.015 15.2554 13.9807 15.1223 13.9807 14.9871C13.9807 14.8518 14.015 14.7188 14.0803 14.6004L15.3203 12.1204C15.3658 12.0271 15.4292 11.9438 15.507 11.8751C15.5848 11.8065 15.6754 11.7539 15.7737 11.7204C15.9658 11.6412 16.1815 11.6412 16.3737 11.7204C16.5596 11.8175 16.7009 11.9826 16.768 12.1814C16.8351 12.3802 16.8228 12.5972 16.7337 12.7871L16.0537 14.1204H17.267C17.4009 14.1196 17.5328 14.1536 17.6496 14.219C17.7665 14.2844 17.8644 14.3791 17.9337 14.4938C18.0084 14.6157 18.0491 14.7555 18.0514 14.8986C18.0538 15.0416 18.0177 15.1827 17.947 15.3071H17.9337Z" fill="#3B99FC"/>
</svg>
