<svg width="32" height="32" viewBox="0 0 32 32" fill="none" xmlns="http://www.w3.org/2000/svg">
<path d="M28.3865 14.0668L16.3865 5.48011C16.2752 5.39576 16.1395 5.3501 15.9998 5.3501C15.8602 5.3501 15.7244 5.39576 15.6132 5.48011L3.61318 14.0801C3.54152 14.1294 3.48041 14.1925 3.43346 14.2657C3.38651 14.3389 3.35464 14.4208 3.33974 14.5065C3.32484 14.5922 3.32719 14.68 3.34667 14.7647C3.36615 14.8495 3.40236 14.9295 3.45317 15.0001C3.51436 15.088 3.59622 15.1595 3.69155 15.2084C3.78688 15.2572 3.89275 15.2818 3.99984 15.2801H6.59984V25.8668C6.60334 26.0731 6.68776 26.2698 6.83491 26.4144C6.98206 26.5591 7.18016 26.6401 7.38651 26.6401H13.0665V18.3868C13.068 18.242 13.099 18.0991 13.1575 17.9667C13.2161 17.8343 13.3009 17.7152 13.4069 17.6167C13.513 17.5182 13.638 17.4422 13.7743 17.3935C13.9106 17.3448 14.0554 17.3244 14.1998 17.3334H17.9198C18.2027 17.3334 18.4741 17.4458 18.6741 17.6459C18.8741 17.8459 18.9865 18.1172 18.9865 18.4001V26.6668H24.7065C24.8092 26.6685 24.9112 26.6498 25.0065 26.6118C25.1019 26.5737 25.1887 26.517 25.262 26.445C25.3352 26.3731 25.3934 26.2872 25.4331 26.1925C25.4728 26.0978 25.4932 25.9961 25.4932 25.8934V15.2801H28.0532C28.1621 15.2817 28.2699 15.2571 28.3673 15.2084C28.4648 15.1597 28.5491 15.0882 28.6132 15.0001C28.6613 14.9244 28.6936 14.8398 28.7082 14.7514C28.7229 14.6629 28.7195 14.5724 28.6983 14.4852C28.6772 14.3981 28.6386 14.3161 28.5851 14.2442C28.5315 14.1723 28.464 14.112 28.3865 14.0668V14.0668Z" fill="#3B99FC"/>
<path d="M23.973 11.6398L21.373 10.5065V7.63979C21.373 7.54431 21.411 7.45274 21.4785 7.38523C21.546 7.31771 21.6376 7.27979 21.733 7.27979H23.613C23.7085 7.27979 23.8001 7.31771 23.8676 7.38523C23.9351 7.45274 23.973 7.54431 23.973 7.63979V11.6398Z" fill="#3B99FC"/>
</svg>
