<svg width="32" height="32" viewBox="0 0 32 32" fill="none" xmlns="http://www.w3.org/2000/svg">
<path d="M26.4799 11.4533L22.7466 8.78667V6.01334C22.7466 5.93201 22.7142 5.854 22.6567 5.79649C22.5992 5.73898 22.5212 5.70667 22.4399 5.70667H20.8532C20.7719 5.70667 20.6939 5.73898 20.6364 5.79649C20.5789 5.854 20.5466 5.93201 20.5466 6.01334V7.20001L16.3332 4.18667C16.2368 4.11523 16.1199 4.07666 15.9999 4.07666C15.8799 4.07666 15.763 4.11523 15.6666 4.18667L5.58656 11.4533C5.46652 11.5415 5.38549 11.6729 5.3606 11.8197C5.33572 11.9665 5.36892 12.1172 5.45322 12.24C5.50703 12.3135 5.57723 12.3734 5.65823 12.4151C5.73923 12.4567 5.82881 12.479 5.91989 12.48H8.10656V14.9067H19.0799C19.4856 14.9051 19.8872 14.9882 20.2591 15.1505C20.631 15.3128 20.9649 15.5509 21.2396 15.8495C21.5144 16.148 21.7239 16.5006 21.8548 16.8846C21.9857 17.2687 22.0351 17.6758 21.9999 18.08L24.0399 17.52V12.48H26.2132C26.3049 12.4824 26.3957 12.4616 26.4772 12.4197C26.5588 12.3777 26.6285 12.3159 26.6799 12.24C26.7203 12.1758 26.7473 12.1039 26.7591 12.029C26.7709 11.954 26.7674 11.8773 26.7487 11.8038C26.73 11.7302 26.6965 11.6612 26.6503 11.6009C26.6041 11.5407 26.5461 11.4905 26.4799 11.4533V11.4533Z" fill="#3B99FC"/>
<path d="M26.6935 21.08L26.4935 20.6667C26.2865 20.2602 25.9359 19.945 25.5097 19.7824C25.0835 19.6198 24.612 19.6213 24.1868 19.7867L19.2668 21.76H15.7468C15.6666 21.7605 15.5872 21.7441 15.5137 21.712C15.4402 21.6798 15.3743 21.6326 15.3202 21.5734C15.2622 21.5183 15.2158 21.4522 15.1838 21.3789C15.1517 21.3056 15.1346 21.2267 15.1335 21.1467C15.137 20.9864 15.2032 20.8338 15.3178 20.7216C15.4325 20.6094 15.5865 20.5467 15.7468 20.5467H18.1868C18.4347 20.5515 18.6808 20.5055 18.9102 20.4115C19.1395 20.3175 19.3471 20.1774 19.5202 20C19.6941 19.8256 19.83 19.6172 19.9195 19.3877C20.009 19.1583 20.0501 18.9128 20.0402 18.6667C20.0332 18.1892 19.8395 17.7334 19.5006 17.3969C19.1616 17.0605 18.7044 16.8701 18.2268 16.8667H8.49351C8.40072 16.8685 8.30955 16.8913 8.22685 16.9334L7.85352 17.12V24.0534H8.40019L11.7468 26.44C11.8503 26.5069 11.9703 26.5439 12.0935 26.5467H20.5735C20.681 26.5474 20.7867 26.5198 20.8802 26.4667L26.0269 23.4267C26.41 23.1885 26.6905 22.8161 26.8138 22.3822C26.9371 21.9483 26.8942 21.484 26.6935 21.08V21.08Z" fill="#3B99FC"/>
<path d="M6.38694 16.6665H5.61361C5.42951 16.6665 5.28027 16.8157 5.28027 16.9998V24.4398C5.28027 24.6239 5.42951 24.7732 5.61361 24.7732H6.38694C6.57103 24.7732 6.72027 24.6239 6.72027 24.4398V16.9998C6.72027 16.8157 6.57103 16.6665 6.38694 16.6665Z" fill="#3B99FC"/>
</svg>
