<svg width="32" height="32" viewBox="0 0 32 32" fill="none" xmlns="http://www.w3.org/2000/svg">
<path d="M27.9071 20.5333L22.1338 16.3999C22.0794 16.3609 22.0141 16.3398 21.9471 16.3398C21.8801 16.3398 21.8148 16.3609 21.7604 16.3999L16.0004 20.5333C15.9648 20.5573 15.9344 20.5882 15.911 20.6243C15.8876 20.6603 15.8717 20.7006 15.8642 20.743C15.8568 20.7853 15.8579 20.8286 15.8676 20.8705C15.8772 20.9123 15.8952 20.9518 15.9204 20.9866C15.9522 21.0273 15.9926 21.0603 16.0387 21.0834C16.0848 21.1065 16.1355 21.1189 16.1871 21.1199H17.4271V26.2133C17.4304 26.3112 17.4708 26.4043 17.5401 26.4736C17.6095 26.5429 17.7025 26.5833 17.8005 26.5866H20.4671V22.6666C20.4705 22.5297 20.5264 22.3994 20.6232 22.3026C20.72 22.2058 20.8503 22.15 20.9871 22.1466H22.7738C22.9106 22.15 23.0409 22.2058 23.1377 22.3026C23.2345 22.3994 23.2904 22.5297 23.2938 22.6666V26.6666H26.0405C26.1395 26.6666 26.2344 26.6273 26.3044 26.5572C26.3744 26.4872 26.4138 26.3923 26.4138 26.2933V21.1199H27.6538C27.7059 21.1222 27.7577 21.1112 27.8044 21.0879C27.8511 21.0645 27.891 21.0297 27.9204 20.9866C27.9494 20.956 27.9721 20.92 27.9871 20.8806C28.0021 20.8412 28.0092 20.7993 28.008 20.7572C28.0067 20.715 27.9972 20.6736 27.9799 20.6352C27.9626 20.5967 27.9378 20.5621 27.9071 20.5333V20.5333Z" fill="#3B99FC"/>
<path d="M16.0938 26.2132V22.4532C15.8462 22.4391 15.6051 22.3694 15.3881 22.2494C15.1712 22.1293 14.984 21.9621 14.8404 21.7599C14.5871 21.4046 14.4819 20.9647 14.5471 20.5332C14.5816 20.3182 14.6583 20.1121 14.7727 19.9267C14.8871 19.7414 15.037 19.5805 15.2138 19.4533L20.9871 15.3199C21.2673 15.1201 21.6029 15.0127 21.9471 15.0127C22.2913 15.0127 22.6269 15.1201 22.9071 15.3199L24.6671 16.5733V10.0133C24.6613 9.83419 24.5902 9.66345 24.4671 9.53325L20.4671 5.53325C20.4072 5.46974 20.3345 5.41974 20.2538 5.38658C20.166 5.36658 20.0749 5.36658 19.9871 5.38658H7.98711C7.89843 5.38657 7.81064 5.40424 7.72887 5.43858C7.64711 5.47291 7.57301 5.52321 7.51093 5.58654C7.44884 5.64986 7.40002 5.72494 7.36731 5.80737C7.3346 5.88979 7.31867 5.97792 7.32045 6.06658V26.0666C7.31867 26.1552 7.3346 26.2434 7.36731 26.3258C7.40002 26.4082 7.44884 26.4833 7.51093 26.5466C7.57301 26.61 7.64711 26.6603 7.72887 26.6946C7.81064 26.7289 7.89843 26.7466 7.98711 26.7466H16.1604C16.1102 26.5734 16.0877 26.3934 16.0938 26.2132ZM11.8271 11.9999H19.5604C19.7373 11.9999 19.9068 12.0702 20.0319 12.1952C20.1569 12.3202 20.2271 12.4898 20.2271 12.6666C20.2271 12.8434 20.1569 13.013 20.0319 13.138C19.9068 13.263 19.7373 13.3333 19.5604 13.3333H11.8271C11.6503 13.3333 11.4807 13.263 11.3557 13.138C11.2307 13.013 11.1604 12.8434 11.1604 12.6666C11.1639 12.4908 11.2352 12.3232 11.3595 12.199C11.4838 12.0747 11.6514 12.0033 11.8271 11.9999V11.9999ZM11.1604 15.8266C11.1639 15.6508 11.2352 15.4832 11.3595 15.359C11.4838 15.2347 11.6514 15.1633 11.8271 15.1599H16.6538C16.8295 15.1633 16.9971 15.2347 17.1214 15.359C17.2457 15.4832 17.317 15.6508 17.3204 15.8266C17.3204 16.0034 17.2502 16.173 17.1252 16.298C17.0002 16.423 16.8306 16.4932 16.6538 16.4932H11.8271C11.7396 16.4932 11.6529 16.476 11.572 16.4425C11.4911 16.409 11.4176 16.3599 11.3557 16.298C11.2938 16.2361 11.2447 16.1626 11.2112 16.0817C11.1777 16.0008 11.1604 15.9141 11.1604 15.8266V15.8266Z" fill="#3B99FC"/>
</svg>
