<svg width="32" height="32" viewBox="0 0 32 32" fill="none" xmlns="http://www.w3.org/2000/svg">
<path d="M15.9041 19.0748C15.9321 19.096 15.9662 19.1075 16.0014 19.1075C16.0365 19.1075 16.0707 19.096 16.0987 19.0748L27.936 10.1535V10.0201C27.9353 9.50913 27.7323 9.01918 27.3712 8.65759C27.0101 8.296 26.5205 8.09223 26.0094 8.09082H5.99341C5.48206 8.09153 4.99183 8.29503 4.63037 8.65674C4.26892 9.01844 4.06578 9.50879 4.06543 10.0201V10.0841L15.9041 19.0748Z" fill="#3B99FC"/>
<path d="M21.4004 16.7481L27.9338 21.7187V11.8228L21.4004 16.7481Z" fill="#3B99FC"/>
<path d="M20.2949 17.5828L16.5162 20.4308C16.3675 20.5434 16.1861 20.6044 15.9996 20.6044C15.8131 20.6044 15.6316 20.5434 15.4829 20.4308L11.7043 17.5615L4.44824 23.0748C4.50286 23.1725 4.56574 23.2653 4.63623 23.3522C4.81435 23.5305 5.02594 23.6719 5.25887 23.7683C5.49181 23.8646 5.7415 23.914 5.99357 23.9135H26.0096C26.2623 23.9142 26.5126 23.8647 26.7461 23.7679C26.9796 23.671 27.1915 23.5289 27.3695 23.3495C27.4324 23.2695 27.489 23.1848 27.5389 23.0962L20.2949 17.5828Z" fill="#3B99FC"/>
<path d="M10.6026 16.7216L4.06934 11.7549V21.6882L10.6026 16.7216Z" fill="#3B99FC"/>
</svg>
