<svg width="32" height="32" viewBox="0 0 32 32" fill="none" xmlns="http://www.w3.org/2000/svg">
<path d="M24.2932 14.3203H24.1732V12.8536C24.1732 8.02693 20.6532 4.10693 16.3198 4.10693C11.9865 4.10693 8.46649 8.00027 8.46649 12.8536V14.1869H8.30649C7.35552 14.2999 6.48434 14.7741 5.87308 15.5113C5.26182 16.2485 4.95724 17.1924 5.02231 18.1478C5.08737 19.1033 5.51711 19.9972 6.22267 20.6447C6.92823 21.2923 7.85565 21.6439 8.81316 21.6269C10.0265 21.6269 10.7732 20.1869 10.7732 17.8803C10.8636 16.7432 10.5625 15.6093 9.91983 14.6669V14.6669V12.8536C9.91983 8.8536 12.8132 5.52027 16.3598 5.52027C19.9065 5.52027 22.7998 8.8136 22.7998 12.8536V14.1869H22.6798C22.4017 14.3079 22.1549 14.491 21.9584 14.7221C21.762 14.9532 21.6211 15.2262 21.5465 15.5203C21.2906 16.2709 21.1687 17.0607 21.1865 17.8536C21.1865 19.8136 21.7465 21.1736 22.6798 21.5069H22.7998V21.7336C22.8013 22.6232 22.4852 23.484 21.9083 24.1611C21.3314 24.8383 20.5317 25.2871 19.6532 25.4269H19.5465C19.4465 25.2353 19.3067 25.0672 19.1366 24.9338C18.9665 24.8005 18.7698 24.7049 18.5598 24.6536H18.4398C18.3416 24.616 18.2382 24.5935 18.1332 24.5869C17.7053 24.5869 17.2949 24.7569 16.9924 25.0595C16.6898 25.362 16.5198 25.7724 16.5198 26.2003C16.5198 26.6281 16.6898 27.0385 16.9924 27.3411C17.2949 27.6436 17.7053 27.8136 18.1332 27.8136H18.2532C18.3846 27.8011 18.5142 27.7743 18.6398 27.7336L18.9065 27.6136L19.0265 27.5336C19.2753 27.3702 19.4774 27.1451 19.6132 26.8803H19.6798C20.9279 26.7276 22.0773 26.1244 22.912 25.1841C23.7468 24.2437 24.2095 23.031 24.2132 21.7736V21.4136H24.3332C25.0769 21.1687 25.7244 20.6953 26.1834 20.0608C26.6425 19.4264 26.8896 18.6633 26.8896 17.8803C26.8896 17.0972 26.6425 16.3341 26.1834 15.6997C25.7244 15.0653 25.0769 14.5919 24.3332 14.3469L24.2932 14.3203Z" fill="#3B99FC"/>
</svg>
