<svg width="32" height="32" viewBox="0 0 32 32" fill="none" xmlns="http://www.w3.org/2000/svg">
<path d="M26.5466 25.3333H23.88V5.81326C23.8766 5.74669 23.8601 5.68145 23.8314 5.62128C23.8027 5.5611 23.7625 5.50717 23.7129 5.46258C23.6634 5.41799 23.6055 5.38362 23.5427 5.36143C23.4798 5.33923 23.4132 5.32966 23.3466 5.33326H8.67997C8.5456 5.33326 8.41672 5.38664 8.32171 5.48166C8.22669 5.57668 8.17331 5.70555 8.17331 5.83992V25.3333H5.50664C5.4536 25.3333 5.40273 25.3543 5.36522 25.3918C5.32771 25.4293 5.30664 25.4802 5.30664 25.5333V26.4666C5.30664 26.5196 5.32771 26.5705 5.36522 26.608C5.40273 26.6455 5.4536 26.6666 5.50664 26.6666H14.0133V24.1599H18.08V26.6666H26.5866C26.6397 26.6666 26.6906 26.6455 26.7281 26.608C26.7656 26.5705 26.7866 26.5196 26.7866 26.4666V25.5333C26.7872 25.5033 26.7811 25.4735 26.7687 25.4462C26.7562 25.4189 26.7378 25.3948 26.7147 25.3756C26.6917 25.3564 26.6646 25.3426 26.6355 25.3353C26.6064 25.3279 26.576 25.3272 26.5466 25.3333V25.3333ZM13.3466 21.1733C13.3466 21.244 13.3185 21.3118 13.2685 21.3618C13.2185 21.4118 13.1507 21.4399 13.08 21.4399H11.8533C11.7826 21.4399 11.7148 21.4118 11.6647 21.3618C11.6147 21.3118 11.5866 21.244 11.5866 21.1733V19.9466C11.5866 19.8759 11.6147 19.808 11.6647 19.758C11.7148 19.708 11.7826 19.6799 11.8533 19.6799H13.08C13.1507 19.6799 13.2185 19.708 13.2685 19.758C13.3185 19.808 13.3466 19.8759 13.3466 19.9466V21.1733ZM13.3466 17.6266C13.3466 17.6973 13.3185 17.7651 13.2685 17.8152C13.2185 17.8652 13.1507 17.8933 13.08 17.8933H11.8533C11.7826 17.8933 11.7148 17.8652 11.6647 17.8152C11.6147 17.7651 11.5866 17.6973 11.5866 17.6266V16.3999C11.5866 16.3292 11.6147 16.2614 11.6647 16.2114C11.7148 16.1614 11.7826 16.1333 11.8533 16.1333H13.08C13.1507 16.1333 13.2185 16.1614 13.2685 16.2114C13.3185 16.2614 13.3466 16.3292 13.3466 16.3999V17.6266ZM13.3466 14.0799C13.3466 14.1506 13.3185 14.2185 13.2685 14.2685C13.2185 14.3185 13.1507 14.3466 13.08 14.3466H11.8533C11.7826 14.3466 11.7148 14.3185 11.6647 14.2685C11.6147 14.2185 11.5866 14.1506 11.5866 14.0799V12.7866C11.5866 12.7159 11.6147 12.648 11.6647 12.598C11.7148 12.548 11.7826 12.5199 11.8533 12.5199H13.08C13.1507 12.5199 13.2185 12.548 13.2685 12.598C13.3185 12.648 13.3466 12.7159 13.3466 12.7866V14.0799ZM13.3466 10.5199C13.3466 10.5906 13.3185 10.6585 13.2685 10.7085C13.2185 10.7585 13.1507 10.7866 13.08 10.7866H11.8533C11.7826 10.7866 11.7148 10.7585 11.6647 10.7085C11.6147 10.6585 11.5866 10.5906 11.5866 10.5199V9.22659C11.5866 9.15587 11.6147 9.08804 11.6647 9.03803C11.7148 8.98802 11.7826 8.95992 11.8533 8.95992H13.08C13.1507 8.95992 13.2185 8.98802 13.2685 9.03803C13.3185 9.08804 13.3466 9.15587 13.3466 9.22659V10.5199ZM16.8933 21.1866C16.8933 21.2216 16.8864 21.2563 16.873 21.2886C16.8596 21.321 16.84 21.3504 16.8152 21.3752C16.7904 21.3999 16.761 21.4196 16.7287 21.433C16.6963 21.4464 16.6617 21.4533 16.6266 21.4533H15.4C15.3292 21.4533 15.2614 21.4252 15.2114 21.3752C15.1614 21.3251 15.1333 21.2573 15.1333 21.1866V19.9599C15.1333 19.8892 15.1614 19.8214 15.2114 19.7714C15.2614 19.7214 15.3292 19.6933 15.4 19.6933H16.6266C16.6617 19.6933 16.6963 19.7002 16.7287 19.7136C16.761 19.727 16.7904 19.7466 16.8152 19.7714C16.84 19.7961 16.8596 19.8255 16.873 19.8579C16.8864 19.8902 16.8933 19.9249 16.8933 19.9599V21.1866ZM16.8933 17.6399C16.8933 17.6749 16.8864 17.7096 16.873 17.742C16.8596 17.7743 16.84 17.8037 16.8152 17.8285C16.7904 17.8532 16.761 17.8729 16.7287 17.8863C16.6963 17.8997 16.6617 17.9066 16.6266 17.9066H15.4C15.3292 17.9066 15.2614 17.8785 15.2114 17.8285C15.1614 17.7785 15.1333 17.7106 15.1333 17.6399V16.4133C15.1333 16.3425 15.1614 16.2747 15.2114 16.2247C15.2614 16.1747 15.3292 16.1466 15.4 16.1466H16.6266C16.6617 16.1466 16.6963 16.1535 16.7287 16.1669C16.761 16.1803 16.7904 16.1999 16.8152 16.2247C16.84 16.2495 16.8596 16.2789 16.873 16.3112C16.8864 16.3436 16.8933 16.3782 16.8933 16.4133V17.6399ZM16.8933 14.0933C16.8933 14.1283 16.8864 14.163 16.873 14.1953C16.8596 14.2277 16.84 14.2571 16.8152 14.2818C16.7904 14.3066 16.761 14.3262 16.7287 14.3396C16.6963 14.353 16.6617 14.3599 16.6266 14.3599H15.4C15.3292 14.3599 15.2614 14.3318 15.2114 14.2818C15.1614 14.2318 15.1333 14.164 15.1333 14.0933V12.7866C15.1333 12.7159 15.1614 12.648 15.2114 12.598C15.2614 12.548 15.3292 12.5199 15.4 12.5199H16.6266C16.6617 12.5199 16.6963 12.5268 16.7287 12.5402C16.761 12.5536 16.7904 12.5733 16.8152 12.598C16.84 12.6228 16.8596 12.6522 16.873 12.6845C16.8864 12.7169 16.8933 12.7516 16.8933 12.7866V14.0933ZM16.8933 10.5333C16.8933 10.5683 16.8864 10.603 16.873 10.6353C16.8596 10.6677 16.84 10.6971 16.8152 10.7218C16.7904 10.7466 16.761 10.7662 16.7287 10.7796C16.6963 10.793 16.6617 10.7999 16.6266 10.7999H15.4C15.3292 10.7999 15.2614 10.7718 15.2114 10.7218C15.1614 10.6718 15.1333 10.604 15.1333 10.5333V9.22659C15.1333 9.15587 15.1614 9.08804 15.2114 9.03803C15.2614 8.98802 15.3292 8.95992 15.4 8.95992H16.6266C16.6617 8.95992 16.6963 8.96682 16.7287 8.98022C16.761 8.99362 16.7904 9.01327 16.8152 9.03803C16.84 9.06279 16.8596 9.09219 16.873 9.12454C16.8864 9.1569 16.8933 9.19157 16.8933 9.22659V10.5333ZM20.44 21.1999C20.44 21.2706 20.4119 21.3385 20.3619 21.3885C20.3119 21.4385 20.244 21.4666 20.1733 21.4666H19C18.9293 21.4666 18.8614 21.4385 18.8114 21.3885C18.7614 21.3385 18.7333 21.2706 18.7333 21.1999V19.9733C18.7333 19.9025 18.7614 19.8347 18.8114 19.7847C18.8614 19.7347 18.9293 19.7066 19 19.7066H20.2266C20.2974 19.7066 20.3652 19.7347 20.4152 19.7847C20.4652 19.8347 20.4933 19.9025 20.4933 19.9733L20.44 21.1999ZM20.44 17.6533C20.44 17.724 20.4119 17.7918 20.3619 17.8418C20.3119 17.8918 20.244 17.9199 20.1733 17.9199H19C18.9293 17.9199 18.8614 17.8918 18.8114 17.8418C18.7614 17.7918 18.7333 17.724 18.7333 17.6533V16.4266C18.7333 16.3559 18.7614 16.288 18.8114 16.238C18.8614 16.188 18.9293 16.1599 19 16.1599H20.2266C20.2974 16.1599 20.3652 16.188 20.4152 16.238C20.4652 16.288 20.4933 16.3559 20.4933 16.4266L20.44 17.6533ZM20.44 14.1066C20.44 14.1773 20.4119 14.2451 20.3619 14.2952C20.3119 14.3452 20.244 14.3733 20.1733 14.3733H19C18.9293 14.3733 18.8614 14.3452 18.8114 14.2952C18.7614 14.2451 18.7333 14.1773 18.7333 14.1066V12.7866C18.7333 12.7159 18.7614 12.648 18.8114 12.598C18.8614 12.548 18.9293 12.5199 19 12.5199H20.2266C20.2974 12.5199 20.3652 12.548 20.4152 12.598C20.4652 12.648 20.4933 12.7159 20.4933 12.7866L20.44 14.1066ZM20.44 10.5466C20.44 10.6173 20.4119 10.6851 20.3619 10.7352C20.3119 10.7852 20.244 10.8133 20.1733 10.8133H19C18.9293 10.8133 18.8614 10.7852 18.8114 10.7352C18.7614 10.6851 18.7333 10.6173 18.7333 10.5466V9.22659C18.7333 9.15587 18.7614 9.08804 18.8114 9.03803C18.8614 8.98802 18.9293 8.95992 19 8.95992H20.2266C20.2974 8.95992 20.3652 8.98802 20.4152 9.03803C20.4652 9.08804 20.4933 9.15587 20.4933 9.22659L20.44 10.5466Z" fill="#3B99FC"/>
</svg>
