<svg width="32" height="32" viewBox="0 0 32 32" fill="none" xmlns="http://www.w3.org/2000/svg">
<path d="M28.3867 14.0666L23.9734 10.9066V7.63996C23.9734 7.54448 23.9355 7.45292 23.868 7.3854C23.8005 7.31789 23.7089 7.27996 23.6134 7.27996H21.7334C21.6379 7.27996 21.5464 7.31789 21.4788 7.3854C21.4113 7.45292 21.3734 7.54448 21.3734 7.63996V9.05329L16.3867 5.47996C16.2726 5.39653 16.1348 5.35156 15.9934 5.35156C15.852 5.35156 15.7142 5.39653 15.6001 5.47996L3.60007 14.08C3.46035 14.1838 3.36678 14.3382 3.33937 14.5101C3.31196 14.682 3.35289 14.8578 3.4534 15C3.51331 15.086 3.59305 15.1564 3.68588 15.2051C3.7787 15.2538 3.8819 15.2795 3.98674 15.28H6.58674V25.8666C6.58674 26.0717 6.66822 26.2684 6.81325 26.4135C6.95828 26.5585 7.15497 26.64 7.36007 26.64H24.6267C24.8318 26.64 25.0285 26.5585 25.1736 26.4135C25.3186 26.2684 25.4001 26.0717 25.4001 25.8666V15.28H27.9734C28.0805 15.2817 28.1864 15.257 28.2817 15.2082C28.377 15.1594 28.4589 15.0879 28.5201 15C28.6228 14.8573 28.6663 14.6804 28.6414 14.5064C28.6166 14.3324 28.5253 14.1748 28.3867 14.0666V14.0666ZM16.0001 13.5333C16.4926 13.5412 16.9717 13.6948 17.3769 13.9748C17.7822 14.2547 18.0955 14.6484 18.2773 15.1061C18.459 15.5639 18.5012 16.0653 18.3983 16.547C18.2954 17.0287 18.0522 17.4691 17.6993 17.8127C17.3464 18.1563 16.8997 18.3877 16.4154 18.4777C15.9312 18.5677 15.4311 18.5122 14.9783 18.3183C14.5255 18.1244 14.1404 17.8007 13.8713 17.3881C13.6023 16.9755 13.4615 16.4925 13.4667 16C13.4684 15.6709 13.5356 15.3454 13.6644 15.0425C13.7931 14.7397 13.9808 14.4655 14.2166 14.2359C14.4524 14.0063 14.7315 13.8259 15.0377 13.7053C15.3439 13.5847 15.6711 13.5262 16.0001 13.5333ZM11.0001 24.7733C11.0001 23.4472 11.5269 22.1754 12.4645 21.2378C13.4022 20.3001 14.674 19.7733 16.0001 19.7733C17.3262 19.7733 18.5979 20.3001 19.5356 21.2378C20.4733 22.1754 21.0001 23.4472 21.0001 24.7733H11.0001Z" fill="#3B99FC"/>
</svg>
