<svg width="32" height="32" viewBox="0 0 32 32" fill="none" xmlns="http://www.w3.org/2000/svg">
<path d="M6.04014 9.02669H14.5335V9.21336C14.656 9.57952 14.8619 9.91223 15.1349 10.1853C15.4079 10.4583 15.7406 10.6642 16.1068 10.7867C16.5083 10.9314 16.9394 10.9745 17.3616 10.9122C17.7838 10.8499 18.184 10.6841 18.5266 10.4295C18.8692 10.175 19.1434 9.83967 19.325 9.45341C19.5065 9.06715 19.5896 8.64198 19.5669 8.2158C19.5442 7.78962 19.4165 7.37567 19.195 7.01086C18.9735 6.64605 18.6652 6.34171 18.2975 6.12497C17.9299 5.90824 17.5143 5.78584 17.0878 5.76869C16.6614 5.75154 16.2373 5.84018 15.8535 6.02669C15.5432 6.16768 15.2649 6.37046 15.0357 6.62263C14.8064 6.87481 14.631 7.17109 14.5201 7.49336V7.68002H6.04014C5.88613 7.71098 5.74759 7.7943 5.64806 7.91583C5.54853 8.03736 5.49414 8.1896 5.49414 8.34669C5.49414 8.50378 5.54853 8.65602 5.64806 8.77755C5.74759 8.89908 5.88613 8.9824 6.04014 9.01336V9.02669Z" fill="#3B99FC"/>
<path d="M15.9868 21.2133C15.3414 20.9868 14.6325 21.0252 14.0153 21.3201C13.3981 21.6149 12.9229 22.1422 12.6935 22.7866L12.6135 22.9733H6.04014C5.88613 23.0042 5.74759 23.0876 5.64806 23.2091C5.54853 23.3306 5.49414 23.4829 5.49414 23.64C5.49414 23.797 5.54853 23.9493 5.64806 24.0708C5.74759 24.1923 5.88613 24.2757 6.04014 24.3066H12.6135L12.6935 24.4933C12.8135 24.8335 13.0038 25.1446 13.2519 25.4065C13.5 25.6684 13.8003 25.8752 14.1335 26.0135C14.4667 26.1518 14.8252 26.2185 15.1859 26.2093C15.5465 26.2 15.9011 26.1151 16.2268 25.96C16.8424 25.6629 17.3163 25.1354 17.5458 24.4916C17.7754 23.8478 17.7422 23.1395 17.4535 22.52C17.1554 21.9085 16.6285 21.439 15.9868 21.2133V21.2133Z" fill="#3B99FC"/>
<path d="M26.0799 15.3335H18.9333C18.7565 15.3335 18.5869 15.4037 18.4619 15.5288C18.3368 15.6538 18.2666 15.8234 18.2666 16.0002C18.2666 16.177 18.3368 16.3465 18.4619 16.4716C18.5869 16.5966 18.7565 16.6668 18.9333 16.6668H26.0799C26.2567 16.6668 26.4263 16.5966 26.5513 16.4716C26.6764 16.3465 26.7466 16.177 26.7466 16.0002C26.7466 15.8234 26.6764 15.6538 26.5513 15.5288C26.4263 15.4037 26.2567 15.3335 26.0799 15.3335Z" fill="#3B99FC"/>
<path d="M26.08 22.9733H20.84C20.6859 23.0042 20.5474 23.0876 20.4479 23.2091C20.3483 23.3306 20.2939 23.4829 20.2939 23.64C20.2939 23.797 20.3483 23.9493 20.4479 24.0708C20.5474 24.1924 20.6859 24.2757 20.84 24.3066H26.08C26.1786 24.3265 26.2805 24.3241 26.3782 24.2998C26.4759 24.2755 26.5669 24.2298 26.6448 24.166C26.7227 24.1023 26.7854 24.022 26.8285 23.931C26.8716 23.84 26.8939 23.7406 26.8939 23.64C26.8939 23.5393 26.8716 23.4399 26.8285 23.3489C26.7854 23.2579 26.7227 23.1777 26.6448 23.1139C26.5669 23.0501 26.4759 23.0044 26.3782 22.9801C26.2805 22.9558 26.1786 22.9535 26.08 22.9733Z" fill="#3B99FC"/>
<path d="M22.7603 9.02684H26.0803C26.179 9.04668 26.2808 9.04436 26.3785 9.02005C26.4762 8.99573 26.5673 8.95004 26.6451 8.88626C26.723 8.82247 26.7858 8.7422 26.8289 8.65122C26.8719 8.56025 26.8943 8.46084 26.8943 8.36018C26.8943 8.25951 26.8719 8.16011 26.8289 8.06913C26.7858 7.97815 26.723 7.89788 26.6451 7.8341C26.5673 7.77032 26.4762 7.72462 26.3785 7.70031C26.2808 7.67599 26.179 7.67367 26.0803 7.69351H22.7603C22.6616 7.67367 22.5597 7.67599 22.4621 7.70031C22.3644 7.72462 22.2733 7.77032 22.1954 7.8341C22.1175 7.89788 22.0548 7.97815 22.0117 8.06913C21.9686 8.16011 21.9463 8.25951 21.9463 8.36018C21.9463 8.46084 21.9686 8.56025 22.0117 8.65122C22.0548 8.7422 22.1175 8.82247 22.1954 8.88626C22.2733 8.95004 22.3644 8.99573 22.4621 9.02005C22.5597 9.04436 22.6616 9.04668 22.7603 9.02684Z" fill="#3B99FC"/>
<path d="M6.04035 16.6665H10.707L10.7737 16.8665C10.9072 17.2266 11.1169 17.5535 11.3884 17.8251C11.66 18.0966 11.9869 18.3063 12.347 18.4398C12.7481 18.5814 13.1779 18.622 13.5983 18.5578C14.0188 18.4937 14.4169 18.3268 14.7575 18.0721C15.0981 17.8173 15.3706 17.4825 15.5509 17.0973C15.7312 16.7121 15.8138 16.2884 15.7912 15.8636C15.7687 15.4389 15.6418 15.0263 15.4217 14.6623C15.2016 14.2984 14.8952 13.9943 14.5296 13.777C14.1639 13.5598 13.7504 13.436 13.3255 13.4167C12.9006 13.3974 12.4775 13.4832 12.0937 13.6665C11.4773 13.9659 10.9998 14.4911 10.7604 15.1332L10.6937 15.3332H6.02702C5.85021 15.3332 5.68064 15.4034 5.55561 15.5284C5.43059 15.6534 5.36035 15.823 5.36035 15.9998C5.36035 16.1766 5.43059 16.3462 5.55561 16.4712C5.68064 16.5963 5.85021 16.6665 6.02702 16.6665H6.04035Z" fill="#3B99FC"/>
</svg>
