<svg width="32" height="32" viewBox="0 0 32 32" fill="none" xmlns="http://www.w3.org/2000/svg">
<path d="M24.1471 13.9198C25.6199 13.9198 26.8138 12.7259 26.8138 11.2531C26.8138 9.78033 25.6199 8.58643 24.1471 8.58643C22.6744 8.58643 21.4805 9.78033 21.4805 11.2531C21.4805 12.7259 22.6744 13.9198 24.1471 13.9198Z" fill="#3B99FC"/>
<path d="M8.06706 13.9198C9.53982 13.9198 10.7337 12.7259 10.7337 11.2531C10.7337 9.78033 9.53982 8.58643 8.06706 8.58643C6.5943 8.58643 5.40039 9.78033 5.40039 11.2531C5.40039 12.7259 6.5943 13.9198 8.06706 13.9198Z" fill="#3B99FC"/>
<path d="M15.9998 15.1201C17.9806 15.1201 19.5864 13.5143 19.5864 11.5334C19.5864 9.55258 17.9806 7.94678 15.9998 7.94678C14.0189 7.94678 12.4131 9.55258 12.4131 11.5334C12.4131 13.5143 14.0189 15.1201 15.9998 15.1201Z" fill="#3B99FC"/>
<path d="M23.1738 24C23.1738 22.0975 22.4181 20.2729 21.0728 18.9277C19.7275 17.5824 17.903 16.8267 16.0005 16.8267C14.098 16.8267 12.2734 17.5824 10.9282 18.9277C9.58291 20.2729 8.82715 22.0975 8.82715 24V25.3333H23.1871L23.1738 24Z" fill="#3B99FC"/>
<path d="M24.1063 21.5599H29.4397V20.5199C29.4397 19.1054 28.8778 17.7488 27.8776 16.7486C26.8774 15.7484 25.5208 15.1865 24.1063 15.1865C23.4048 15.1877 22.7104 15.3273 22.0629 15.5973C21.4154 15.8673 20.8276 16.2623 20.333 16.7599C22.1364 17.8435 23.4791 19.5516 24.1063 21.5599V21.5599Z" fill="#3B99FC"/>
<path d="M11.7603 16.7467C11.0137 16.0045 10.0642 15.4999 9.03136 15.2964C7.99852 15.0929 6.92854 15.1996 5.95622 15.6031C4.9839 16.0065 4.15273 16.6887 3.5674 17.5637C2.98208 18.4387 2.66879 19.4673 2.66699 20.52V21.56H7.89366C8.54005 19.5311 9.91839 17.8153 11.7603 16.7467Z" fill="#3B99FC"/>
</svg>
