<svg width="24" height="24" viewBox="0 0 24 24" fill="none" xmlns="http://www.w3.org/2000/svg">
<path d="M20.08 4H3.5C3.36739 4 3.24019 4.05266 3.14642 4.14642C3.05266 4.24019 3 4.36739 3 4.5C3 4.63261 3.05266 4.75975 3.14642 4.85352C3.24019 4.94728 3.36739 5 3.5 5H6.84V7.95801H4.55798C4.34581 7.95801 4.14234 8.04229 3.99231 8.19232C3.84228 8.34235 3.758 8.54582 3.758 8.758V19.176C3.758 19.3881 3.84228 19.5917 3.99231 19.7417C4.14234 19.8917 4.34581 19.976 4.55798 19.976H19.015C19.2272 19.976 19.4307 19.8917 19.5807 19.7417C19.7307 19.5917 19.815 19.3881 19.815 19.176V8.758C19.815 8.54582 19.7307 8.34235 19.5807 8.19232C19.4307 8.04229 19.2272 7.95801 19.015 7.95801H16.744V5H20.08C20.2126 5 20.3398 4.94728 20.4335 4.85352C20.5273 4.75975 20.58 4.63261 20.58 4.5C20.58 4.36739 20.5273 4.24019 20.4335 4.14642C20.3398 4.05266 20.2126 4 20.08 4V4ZM16.126 13.844C16.0713 13.8512 16.016 13.8384 15.97 13.808L15.185 13.246L15.157 17.72C15.1567 17.7806 15.1325 17.8388 15.0896 17.8817C15.0467 17.9245 14.9886 17.9487 14.928 17.949H12.836V15.331C12.836 15.2289 12.7954 15.131 12.7232 15.0588C12.651 14.9866 12.5531 14.946 12.451 14.946H11.112C11.0099 14.946 10.912 14.9866 10.8398 15.0588C10.7676 15.131 10.727 15.2289 10.727 15.331V17.949H8.60199C8.54126 17.949 8.48301 17.9248 8.44006 17.8819C8.39712 17.839 8.37299 17.7807 8.37299 17.72L8.401 13.236L7.60098 13.808C7.56002 13.837 7.51117 13.8527 7.461 13.853C7.41024 13.8526 7.36086 13.8363 7.31995 13.8063C7.27903 13.7762 7.24867 13.734 7.23315 13.6857C7.21764 13.6373 7.21775 13.5854 7.23352 13.5371C7.2493 13.4889 7.27991 13.4468 7.32098 13.417L11.642 10.317C11.6828 10.2877 11.7318 10.272 11.782 10.272C11.832 10.2721 11.8809 10.2875 11.922 10.316L16.247 13.416C16.2987 13.4533 16.3336 13.5095 16.3441 13.5724C16.3546 13.6354 16.3398 13.6999 16.303 13.752C16.2819 13.7793 16.2552 13.8016 16.2246 13.8175C16.1941 13.8334 16.1604 13.8424 16.126 13.844ZM15.744 7.95801H7.84399V5H15.744V7.95801Z" fill="#3B99FC"/>
</svg>
