<svg width="32" height="32" viewBox="0 0 32 32" fill="none" xmlns="http://www.w3.org/2000/svg">
<path d="M23.8211 9.53451L19.8318 5.54517C19.769 5.48303 19.6947 5.43366 19.6131 5.39982C19.5289 5.36346 19.4381 5.34491 19.3464 5.34522H7.37042C7.19018 5.34557 7.01744 5.41731 6.88999 5.54476C6.76255 5.67221 6.69078 5.84499 6.69043 6.02523V25.9852C6.69078 26.1654 6.76255 26.3382 6.88999 26.4657C7.01744 26.5931 7.19018 26.6649 7.37042 26.6652H18.1544C17.4683 26.1043 16.9149 25.3984 16.5341 24.5982C16.1532 23.798 15.9543 22.9234 15.9518 22.0372C15.9518 21.8305 15.9651 21.6372 15.9838 21.4265C15.6091 21.4265 11.3718 21.4266 11.3718 21.4039V19.9639C11.3707 19.4219 11.4765 18.885 11.683 18.384C11.8895 17.8829 12.1927 17.4274 12.5753 17.0435C12.958 16.6597 13.4124 16.3549 13.9129 16.1468C14.4133 15.9387 14.9498 15.8312 15.4918 15.8305C16.0539 15.828 16.6105 15.9416 17.1267 16.1641C17.6429 16.3867 18.1076 16.7134 18.4918 17.1239V17.1239C19.4927 16.3554 20.7293 15.9581 21.9904 15.9998C22.6829 16.0063 23.369 16.1327 24.0184 16.3732V10.0172C24.0178 9.83677 23.9471 9.66367 23.8211 9.53451V9.53451ZM15.4998 14.8012C15.0913 14.8009 14.6921 14.6796 14.3527 14.4525C14.0132 14.2254 13.7487 13.9027 13.5926 13.5253C13.4365 13.1479 13.3958 12.7327 13.4756 12.3321C13.5554 11.9316 13.7523 11.5637 14.0412 11.275C14.3301 10.9863 14.6981 10.7897 15.0987 10.7101C15.4993 10.6305 15.9145 10.6715 16.2918 10.8279C16.6691 10.9842 16.9916 11.2489 17.2184 11.5885C17.4453 11.9282 17.5664 12.3274 17.5664 12.7358C17.5661 13.2837 17.3482 13.8091 16.9607 14.1964C16.5731 14.5837 16.0476 14.8012 15.4998 14.8012V14.8012ZM19.3491 10.7012C19.1691 10.7012 18.9965 10.6297 18.8692 10.5024C18.7419 10.3752 18.6704 10.2025 18.6704 10.0225V6.70923L22.6624 10.7012H19.3491Z" fill="#3B99FC"/>
<path d="M27.6106 26.6226L25.7532 24.7653C26.3593 23.9612 26.6869 22.9815 26.6865 21.9746C26.6865 21.0474 26.4116 20.141 25.8965 19.3701C25.3814 18.5992 24.6492 17.9983 23.7926 17.6435C22.936 17.2886 21.9933 17.1958 21.084 17.3767C20.1746 17.5576 19.3393 18.004 18.6836 18.6597C18.028 19.3153 17.5815 20.1507 17.4006 21.0601C17.2197 21.9694 17.3126 22.912 17.6674 23.7686C18.0222 24.6253 18.6231 25.3574 19.394 25.8726C20.165 26.3877 21.0714 26.6626 21.9986 26.6626C23.0051 26.6633 23.9844 26.3356 24.7879 25.7292L26.6452 27.588C26.7749 27.7075 26.9457 27.7722 27.122 27.7685C27.2983 27.7649 27.4664 27.6931 27.591 27.5684C27.7156 27.4436 27.7871 27.2755 27.7905 27.0992C27.7939 26.9229 27.7289 26.7521 27.6092 26.6226H27.6106ZM21.9959 25.2893C21.3402 25.2896 20.6993 25.0953 20.154 24.7313C19.6087 24.3672 19.1837 23.8496 18.9326 23.244C18.6815 22.6383 18.6157 21.9718 18.7434 21.3288C18.8712 20.6857 19.1868 20.095 19.6503 19.6313C20.1138 19.1676 20.7044 18.8517 21.3474 18.7237C21.9904 18.5957 22.657 18.6613 23.2627 18.9121C23.8685 19.1629 24.3862 19.5878 24.7505 20.1329C25.1148 20.678 25.3092 21.319 25.3092 21.9746C25.3075 22.8527 24.9578 23.6943 24.3367 24.3151C23.7157 24.9359 22.874 25.2852 21.9959 25.2866V25.2893Z" fill="#3B99FC"/>
</svg>
