<svg width="32" height="32" viewBox="0 0 32 32" fill="none" xmlns="http://www.w3.org/2000/svg">
<path d="M26.6506 6.64827C26.6473 6.55844 26.6259 6.47018 26.5877 6.38883C26.5494 6.30749 26.4951 6.23474 26.428 6.17493C26.3618 6.11399 26.2836 6.06755 26.1984 6.03861C26.1132 6.00968 26.0229 5.99889 25.9333 6.00692C21.7186 6.33892 18.5373 5.38025 16.476 3.16158C16.4121 3.09708 16.3361 3.04589 16.2524 3.01095C16.1686 2.976 16.0787 2.95801 15.988 2.95801C15.8972 2.95801 15.8074 2.976 15.7236 3.01095C15.6398 3.04589 15.5638 3.09708 15.5 3.16158C13.44 5.38025 10.26 6.34025 6.04397 6.00692C5.95435 5.99881 5.86403 6.0096 5.77883 6.03853C5.69363 6.06747 5.61544 6.11392 5.5493 6.17493C5.48219 6.23474 5.42787 6.30749 5.38961 6.38883C5.35134 6.47018 5.32993 6.55844 5.32664 6.64827C4.90131 18.3056 8.39331 25.8243 15.7266 28.9963C15.8108 29.033 15.9015 29.0519 15.9933 29.0519C16.0851 29.0519 16.1759 29.033 16.26 28.9963C23.5746 25.8256 27.0733 18.3003 26.6506 6.64827ZM15.984 10.4749C16.4218 10.4747 16.8499 10.6043 17.2141 10.8474C17.5783 11.0905 17.8622 11.4362 18.0299 11.8407C18.1976 12.2451 18.2415 12.6903 18.1562 13.1198C18.0708 13.5492 17.86 13.9437 17.5504 14.2533C17.2407 14.563 16.8462 14.7738 16.4168 14.8591C15.9873 14.9445 15.5422 14.9006 15.1377 14.7329C14.7332 14.5652 14.3875 14.2813 14.1444 13.9171C13.9013 13.5529 13.7717 13.1248 13.772 12.6869C13.7723 12.1004 14.0055 11.538 14.4202 11.1232C14.835 10.7085 15.3974 10.4753 15.984 10.4749V10.4749ZM11.5586 20.4336C11.5586 19.2597 12.0249 18.134 12.855 17.304C13.685 16.4739 14.8108 16.0076 15.9846 16.0076C17.1585 16.0076 18.2843 16.4739 19.1143 17.304C19.9443 18.134 20.4106 19.2597 20.4106 20.4336H11.5586Z" fill="#3B99FC"/>
</svg>
