<svg width="32" height="32" viewBox="0 0 32 32" fill="none" xmlns="http://www.w3.org/2000/svg">
<path d="M24.4536 9.5335L20.4536 5.5335C20.3938 5.46999 20.3211 5.41998 20.2403 5.38683C20.1649 5.35268 20.0831 5.33452 20.0003 5.3335H8.00031C7.81997 5.3335 7.64701 5.40514 7.51948 5.53266C7.39196 5.66019 7.32031 5.83315 7.32031 6.0135V26.0135C7.32721 26.1892 7.40188 26.3554 7.52867 26.4772C7.65545 26.599 7.82449 26.667 8.00031 26.6668H24.0003C24.089 26.6668 24.1768 26.6492 24.2586 26.6148C24.3403 26.5805 24.4144 26.5302 24.4765 26.4669C24.5386 26.4036 24.5874 26.3285 24.6201 26.246C24.6528 26.1636 24.6688 26.0755 24.667 25.9868V9.98683C24.6562 9.81407 24.5799 9.65195 24.4536 9.5335V9.5335ZM16.0003 12.0002C16.4091 12.0002 16.8086 12.1214 17.1485 12.3485C17.4884 12.5755 17.7532 12.8983 17.9097 13.2759C18.0661 13.6536 18.107 14.0691 18.0273 14.47C17.9475 14.8709 17.7507 15.2392 17.4617 15.5282C17.1726 15.8172 16.8044 16.014 16.4035 16.0938C16.0026 16.1735 15.5871 16.1326 15.2094 15.9762C14.8318 15.8198 14.509 15.5549 14.2819 15.215C14.0549 14.8751 13.9336 14.4756 13.9336 14.0668C13.9319 13.7949 13.9841 13.5254 14.0874 13.2739C14.1906 13.0223 14.3427 12.7938 14.535 12.6015C14.7273 12.4093 14.9558 12.2571 15.2073 12.1539C15.4589 12.0506 15.7284 11.9984 16.0003 12.0002ZM11.867 21.3335C11.867 20.7907 11.9739 20.2532 12.1816 19.7517C12.3893 19.2503 12.6938 18.7946 13.0776 18.4108C13.4614 18.027 13.9171 17.7225 14.4186 17.5148C14.92 17.3071 15.4575 17.2002 16.0003 17.2002C16.5431 17.2002 17.0806 17.3071 17.5821 17.5148C18.0836 17.7225 18.5392 18.027 18.923 18.4108C19.3068 18.7946 19.6113 19.2503 19.819 19.7517C20.0267 20.2532 20.1336 20.7907 20.1336 21.3335H11.867ZM20.0003 10.6668C19.82 10.6668 19.647 10.5952 19.5195 10.4677C19.392 10.3401 19.3203 10.1672 19.3203 9.98683V6.66683L23.3203 10.6668H20.0003Z" fill="#3B99FC"/>
</svg>
