<svg width="32" height="32" viewBox="0 0 32 32" fill="none" xmlns="http://www.w3.org/2000/svg">
<path d="M22.9068 12.0002H20.0001C19.8574 12.0002 19.7204 12.0559 19.6182 12.1556C19.5161 12.2553 19.457 12.3909 19.4535 12.5336V24.8002C19.457 24.9429 19.5161 25.0785 19.6182 25.1782C19.7204 25.2778 19.8574 25.3336 20.0001 25.3336H22.9201C23.0616 25.3336 23.1973 25.2774 23.2973 25.1774C23.3973 25.0773 23.4535 24.9417 23.4535 24.8002V12.5736C23.4591 12.4991 23.449 12.4243 23.4239 12.354C23.3988 12.2836 23.3592 12.2194 23.3077 12.1653C23.2561 12.1113 23.1938 12.0686 23.1248 12.0402C23.0557 12.0118 22.9815 11.9982 22.9068 12.0002Z" fill="#3B99FC"/>
<path d="M17.5068 14.6669H14.5868C14.4454 14.6669 14.3097 14.7231 14.2097 14.8231C14.1097 14.9231 14.0535 15.0588 14.0535 15.2002V24.8002C14.0535 24.9417 14.1097 25.0773 14.2097 25.1774C14.3097 25.2774 14.4454 25.3336 14.5868 25.3336H17.5068C17.578 25.3353 17.6488 25.3229 17.715 25.2969C17.7813 25.2709 17.8416 25.2319 17.8926 25.1821C17.9435 25.1324 17.984 25.073 18.0116 25.0075C18.0393 24.9419 18.0535 24.8714 18.0535 24.8002V15.2002C18.0535 15.1291 18.0393 15.0586 18.0116 14.993C17.984 14.9274 17.9435 14.868 17.8926 14.8183C17.8416 14.7686 17.7813 14.7296 17.715 14.7036C17.6488 14.6776 17.578 14.6651 17.5068 14.6669Z" fill="#3B99FC"/>
<path d="M12.1601 17.3336H9.24014C9.0987 17.3336 8.96304 17.3898 8.86302 17.4898C8.763 17.5898 8.70681 17.7254 8.70681 17.8669V24.8002C8.70681 24.9417 8.763 25.0773 8.86302 25.1774C8.96304 25.2774 9.0987 25.3336 9.24014 25.3336H12.1601C12.3028 25.3336 12.4399 25.2778 12.5421 25.1782C12.6442 25.0785 12.7033 24.9429 12.7068 24.8002V17.9202C12.7123 17.8451 12.7023 17.7697 12.6773 17.6987C12.6523 17.6277 12.6129 17.5626 12.5616 17.5076C12.5102 17.4525 12.4481 17.4086 12.379 17.3786C12.3099 17.3487 12.2354 17.3334 12.1601 17.3336Z" fill="#3B99FC"/>
<path d="M9.04014 14.5336C9.12445 14.5695 9.21516 14.588 9.30681 14.588C9.39846 14.588 9.48917 14.5695 9.57348 14.5336L20.7735 8.5469L20.5068 9.32023C20.4776 9.40689 20.4658 9.49847 20.4721 9.5897C20.4785 9.68093 20.5028 9.77 20.5437 9.8518C20.5846 9.93359 20.6412 10.0065 20.7104 10.0663C20.7796 10.1261 20.86 10.1716 20.9468 10.2002C21.0287 10.2366 21.1172 10.2554 21.2068 10.2554C21.2964 10.2554 21.385 10.2366 21.4668 10.2002C21.5508 10.1637 21.6255 10.1088 21.6855 10.0396C21.7455 9.97033 21.7892 9.88856 21.8135 9.80023L22.6668 7.28023C22.706 7.19681 22.7264 7.10575 22.7264 7.01356C22.7264 6.92138 22.706 6.83032 22.6668 6.7469C22.6267 6.66531 22.5706 6.59259 22.5019 6.53305C22.4332 6.4735 22.3533 6.42834 22.2668 6.40023L19.7868 5.60023H19.5735C19.427 5.59731 19.2836 5.64274 19.1655 5.72951C19.0474 5.81628 18.9611 5.93954 18.9201 6.08023C18.8652 6.25353 18.8806 6.44147 18.9629 6.60357C19.0452 6.76567 19.1878 6.88897 19.3601 6.9469L20.2801 7.24023L20.0268 7.37356L8.92014 13.2536C8.83915 13.2969 8.76756 13.3558 8.70954 13.427C8.65153 13.4982 8.60823 13.5803 8.58218 13.6683C8.55613 13.7564 8.54784 13.8488 8.55779 13.9401C8.56774 14.0314 8.59573 14.1198 8.64014 14.2002C8.68104 14.2798 8.73754 14.3503 8.80626 14.4076C8.87498 14.4648 8.95452 14.5077 9.04014 14.5336Z" fill="#3B99FC"/>
</svg>
