<svg width="32" height="32" viewBox="0 0 32 32" fill="none" xmlns="http://www.w3.org/2000/svg">
<path d="M16 4.00003C13.6266 4.00003 11.3066 4.70375 9.33316 6.02233C7.35977 7.3409 5.8217 9.21503 4.91345 11.4077C4.00519 13.6005 3.76756 16.0134 4.23058 18.3412C4.69361 20.6689 5.83649 22.8071 7.51472 24.4854C9.19295 26.1636 11.3311 27.3064 13.6589 27.7694C15.9867 28.2324 18.3995 27.9949 20.5922 27.0866C22.7849 26.1784 24.6591 24.6402 25.9776 22.6669C27.2962 20.6935 28 18.3734 28 16C28.0033 14.4232 27.6952 12.8613 27.0934 11.4038C26.4915 9.94642 25.6077 8.62232 24.4927 7.50735C23.3778 6.39238 22.0536 5.50848 20.5961 4.9066C19.1387 4.30473 17.5768 3.99669 16 4.00003ZM17.1387 21.4173V23.112H15.1387V21.4893C14.1681 21.3277 13.2633 20.894 12.5293 20.2386L12.3027 20.0254L13.5147 18.2093L13.8253 18.4533C14.403 18.9878 15.1478 19.3059 15.9333 19.3534C16.9733 19.3534 17.0933 18.7893 17.0933 18.364C17.0933 17.64 16.3613 17.2666 15.4333 16.7946C14.2627 16.1973 12.8067 15.4613 12.8067 13.62C12.7804 12.9196 12.9988 12.2319 13.4243 11.675C13.8499 11.1181 14.456 10.7268 15.1387 10.5681V8.89342H17.1387V10.5267C17.9835 10.716 18.7472 11.1666 19.3213 11.8146L19.5533 12.0573L18.156 13.6454L17.8787 13.392C17.681 13.1659 17.4385 12.9835 17.1664 12.8563C16.8944 12.7291 16.5989 12.66 16.2987 12.6533C15.632 12.6533 15.296 12.9547 15.296 13.548C15.296 14.1414 16 14.4814 16.8173 14.8814C17.984 15.4454 19.5813 16.2147 19.5813 18.2481C19.6126 18.9794 19.3847 19.6982 18.9379 20.278C18.491 20.8578 17.8539 21.2613 17.1387 21.4173V21.4173Z" fill="#3B99FC"/>
</svg>
