<svg width="32" height="32" viewBox="0 0 32 32" fill="none" xmlns="http://www.w3.org/2000/svg">
<path d="M8.68011 26.6665C8.02542 26.6625 7.38641 26.4657 6.84281 26.1009C6.29921 25.736 5.87509 25.2191 5.62339 24.6147C5.37168 24.0104 5.30352 23.3452 5.42743 22.7024C5.55133 22.0595 5.8618 21.4673 6.32011 20.9998C6.63395 20.675 7.01149 20.4186 7.42906 20.2465C7.84663 20.0744 8.29524 19.9904 8.74677 19.9998H9.98677C10.1636 19.9998 10.3332 20.07 10.4582 20.1951C10.5832 20.3201 10.6534 20.4897 10.6534 20.6665C10.6534 20.8433 10.5832 21.0128 10.4582 21.1379C10.3332 21.2629 10.1636 21.3331 9.98677 21.3331H8.74677C8.48294 21.3329 8.22177 21.3859 7.97891 21.489C7.73605 21.5921 7.51651 21.7431 7.33344 21.9331C7.14703 22.1175 7.00008 22.3379 6.90151 22.5809C6.80295 22.8238 6.75484 23.0843 6.76011 23.3465C6.7636 23.8723 6.97403 24.3756 7.34585 24.7474C7.71767 25.1192 8.22096 25.3296 8.74677 25.3331H23.4134C23.5903 25.3331 23.7598 25.4034 23.8848 25.5284C24.0099 25.6534 24.0801 25.823 24.0801 25.9998C24.0801 26.1766 24.0099 26.3462 23.8848 26.4712C23.7598 26.5962 23.5903 26.6665 23.4134 26.6665H8.68011Z" fill="#3B99FC"/>
<path d="M27.6534 8.77313L24.8668 5.98647C24.7218 5.84142 24.5252 5.75989 24.3201 5.7598C24.2164 5.75882 24.1136 5.77833 24.0175 5.81723C23.9214 5.85613 23.8339 5.91365 23.7601 5.98647L14.0134 15.7331C13.92 15.8127 13.8546 15.9202 13.8268 16.0398L12.4934 20.2131C12.43 20.413 12.4476 20.6297 12.5423 20.8167C12.6371 21.0037 12.8015 21.1461 13.0001 21.2131C13.1603 21.266 13.3333 21.266 13.4934 21.2131L17.6668 19.8798C17.7876 19.8391 17.8973 19.7706 17.9868 19.6798L27.7201 9.94647C27.7959 9.87424 27.8563 9.78736 27.8976 9.6911C27.9388 9.59484 27.9601 9.4912 27.9601 9.38647C27.9601 9.28174 27.9388 9.1781 27.8976 9.08184C27.8563 8.98557 27.7959 8.8987 27.7201 8.82647L27.6534 8.77313Z" fill="#3B99FC"/>
<div xmlns="" id="divScriptsUsed" style="display: none"/><script xmlns="" id="globalVarsDetection" src="moz-extension://4f013c2a-fc70-4c74-bac1-cb59135211ca/js/wrs_env.js"/></svg>