<svg width="32" height="32" viewBox="0 0 32 32" fill="none" xmlns="http://www.w3.org/2000/svg">
<path d="M21.3332 10.6669C20.8003 10.6666 20.2687 10.7202 19.7465 10.8269C19.968 11.6437 20.0757 12.4873 20.0665 13.3336C20.059 14.1402 19.947 14.9424 19.7332 15.7202C19.8034 15.7522 19.8668 15.7975 19.9199 15.8536L21.2532 17.1869L22.5865 15.8536C22.6785 15.7592 22.7883 15.6842 22.9097 15.633C23.0311 15.5818 23.1615 15.5555 23.2932 15.5555C23.4249 15.5555 23.5553 15.5818 23.6767 15.633C23.798 15.6842 23.9079 15.7592 23.9999 15.8536C24.1871 16.0411 24.2923 16.2952 24.2923 16.5602C24.2923 16.8252 24.1871 17.0794 23.9999 17.2669L22.6665 18.6002L23.9999 19.9336C24.1871 20.1211 24.2923 20.3752 24.2923 20.6402C24.2923 20.9052 24.1871 21.1594 23.9999 21.3469C23.8109 21.5321 23.5577 21.6371 23.2932 21.6402C23.0281 21.64 22.7739 21.5345 22.5865 21.3469L21.2532 20.0136L19.9199 21.3469C19.7291 21.5279 19.4762 21.6288 19.2132 21.6288C18.9502 21.6288 18.6973 21.5279 18.5065 21.3469C18.3193 21.1594 18.2141 20.9052 18.2141 20.6402C18.2141 20.3752 18.3193 20.1211 18.5065 19.9336L19.8399 18.6002L18.9199 17.6669C17.8652 19.6465 16.1328 21.1801 14.0399 21.9869C14.6359 23.2935 15.5726 24.4156 16.7517 25.2354C17.9309 26.0552 19.3089 26.5424 20.7413 26.646C22.1737 26.7496 23.6075 26.4657 24.8924 25.8242C26.1772 25.1826 27.2657 24.207 28.0435 22.9997C28.8213 21.7925 29.2598 20.3981 29.3129 18.963C29.3661 17.5279 29.032 16.1049 28.3456 14.8434C27.6592 13.5819 26.6459 12.5285 25.4121 11.7936C24.1782 11.0587 22.7693 10.6695 21.3332 10.6669Z" fill="#3B99FC"/>
<path d="M18.5732 11.7336C18.4828 11.2773 18.3489 10.8308 18.1732 10.4002C17.771 9.37657 17.162 8.44686 16.3843 7.66916C15.6066 6.89145 14.6768 6.28246 13.6532 5.88022C13.2226 5.70453 12.7761 5.57058 12.3199 5.48022C10.7355 5.15508 9.08985 5.31779 7.59986 5.94689C6.6487 6.34468 5.7872 6.9296 5.06653 7.66689C4.15377 8.59085 3.48484 9.7271 3.11986 10.9736C3.03986 11.2313 2.9732 11.4847 2.91986 11.7336C2.65498 13.0295 2.71556 14.3709 3.0962 15.6377C3.47683 16.9045 4.16564 18.0571 5.10096 18.9925C6.03628 19.9278 7.18892 20.6166 8.45572 20.9972C9.72251 21.3779 11.0639 21.4384 12.3599 21.1736L13.1199 20.9736C14.356 20.5911 15.4783 19.9085 16.3865 18.9869C17.1238 18.2662 17.7087 17.4047 18.1065 16.4536C18.7308 14.9623 18.8933 13.3181 18.5732 11.7336ZM14.6665 12.0002L10.5465 16.1336C10.359 16.3208 10.1049 16.426 9.83986 16.426C9.57486 16.426 9.3207 16.3208 9.1332 16.1336L7.2532 14.2669C7.06827 14.0755 6.96491 13.8197 6.96491 13.5536C6.96491 13.2874 7.06827 13.0316 7.2532 12.8402C7.4407 12.653 7.69486 12.5478 7.95986 12.5478C8.22487 12.5478 8.47903 12.653 8.66653 12.8402L9.83986 14.0136L13.3332 10.5602C13.4202 10.4409 13.5325 10.3423 13.6621 10.2716C13.7917 10.2008 13.9354 10.1596 14.0828 10.151C14.2302 10.1423 14.3777 10.1664 14.5147 10.2216C14.6517 10.2767 14.7747 10.3615 14.8751 10.4699C14.9754 10.5782 15.0505 10.7074 15.0949 10.8482C15.1394 10.9891 15.1521 11.138 15.1321 11.2843C15.1122 11.4306 15.0601 11.5707 14.9796 11.6945C14.8991 11.8182 14.7922 11.9227 14.6665 12.0002Z" fill="#3B99FC"/>
</svg>
