<svg width="33" height="32" viewBox="0 0 33 32" fill="none" xmlns="http://www.w3.org/2000/svg">
<path d="M27.5594 9.25329H27.3861C27.0928 9.25329 26.8528 9.49329 26.8528 9.78663V10.12V21.28C26.8528 21.6133 26.5861 21.88 26.2527 21.88C25.9194 21.88 25.6528 21.6133 25.6528 21.28V7.73329C25.6528 7.14663 25.1727 6.66663 24.5861 6.66663H5.05275C4.46608 6.66663 3.98608 7.14663 3.98608 7.73329V22.9333C3.98608 24.2533 5.05275 25.3333 6.38608 25.3333H25.7061C27.0261 25.3333 28.1061 24.2666 28.1061 22.9333V9.78663C28.1061 9.49329 27.8661 9.25329 27.5727 9.25329H27.5594ZM14.5861 21.76C14.5861 22.3466 14.1061 22.8266 13.5194 22.8266H7.66608C7.07942 22.8266 6.59942 22.3466 6.59942 21.76V15.3466C6.59942 14.76 7.07942 14.28 7.66608 14.28H13.5194C14.1061 14.28 14.5861 14.76 14.5861 15.3466V21.76ZM22.4394 22.84H17.5861C17.2128 22.84 16.9194 22.5466 16.9194 22.1733C16.9194 21.8 17.2128 21.5066 17.5861 21.5066H22.4394C22.8128 21.5066 23.1061 21.8 23.1061 22.1733C23.1061 22.5466 22.8128 22.84 22.4394 22.84ZM22.4394 19.2266H17.5861C17.2128 19.2266 16.9194 18.9333 16.9194 18.56C16.9194 18.1866 17.2128 17.8933 17.5861 17.8933H22.4394C22.8128 17.8933 23.1061 18.1866 23.1061 18.56C23.1061 18.9333 22.8128 19.2266 22.4394 19.2266ZM22.4394 15.6133H17.5861C17.2128 15.6133 16.9194 15.32 16.9194 14.9466C16.9194 14.5733 17.2128 14.28 17.5861 14.28H22.4394C22.8128 14.28 23.1061 14.5733 23.1061 14.9466C23.1061 15.32 22.8128 15.6133 22.4394 15.6133ZM22.4394 12H7.26608C6.89275 12 6.59942 11.7066 6.59942 11.3333C6.59942 10.96 6.89275 10.6666 7.26608 10.6666H22.4394C22.8128 10.6666 23.1061 10.96 23.1061 11.3333C23.1061 11.7066 22.8128 12 22.4394 12Z" fill="#3B99FC"/>
</svg>
