<svg width="60" height="44" viewBox="0 0 60 44" fill="none" xmlns="http://www.w3.org/2000/svg">
<path d="M37.1578 11.9956L37.157 11.9966C33.7453 16.3927 32.0728 21.906 32.0728 28.4634C32.0728 33.1183 33.3673 36.7992 36.1128 39.3217L36.1128 39.3218L36.1188 39.3272C38.8171 41.7663 41.9792 43 45.5629 43C48.4567 43 51.0645 42.1392 53.3526 40.4217C55.7647 38.6112 56.9205 35.9277 56.9205 32.5488C56.9205 29.1928 55.7096 26.5593 53.1998 24.8364C51.0818 23.3577 48.4994 22.5719 45.5023 22.427C45.7094 19.69 46.8063 17.4589 48.788 15.6727C51.2367 13.5034 53.5961 11.6635 55.8662 10.1489L55.8722 10.1449L55.8781 10.1409C56.6258 9.62641 57.2177 9.00635 57.5944 8.26493C57.9769 7.58777 58.2 6.87733 58.2 6.14634C58.2 4.77345 57.6083 3.57141 56.5587 2.56541C55.5041 1.51419 54.1689 0.999995 52.6304 0.999996C52.1282 0.999996 51.5831 1.07486 51.0041 1.20857L50.9952 1.21062L50.9864 1.21283C50.4062 1.35798 49.8404 1.59484 49.2898 1.91335C44.5736 4.29911 40.5285 7.66433 37.1578 11.9956ZM5.04 39.3218L5.03997 39.3218L5.04598 39.3272C7.74422 41.7663 10.9064 43 14.4901 43C17.3838 43 19.9917 42.1392 22.2798 40.4217C24.6919 38.6112 25.8477 35.9277 25.8477 32.5488C25.8477 29.1928 24.6367 26.5592 22.1268 24.8363C20.0089 23.3577 17.4265 22.5719 14.4295 22.427C14.6365 19.6899 15.7336 17.4587 17.7153 15.6725C20.1639 13.5034 22.5234 11.6635 24.7934 10.1489L24.7994 10.145L24.8052 10.1409C25.553 9.62642 26.1449 9.00635 26.5215 8.26492C26.904 7.58776 27.1271 6.87733 27.1271 6.14634C27.1271 4.77344 26.5354 3.57139 25.4859 2.56539C24.4312 1.51419 23.0961 0.999998 21.5576 0.999998C21.0554 0.999998 20.5102 1.07486 19.9313 1.20857L19.9224 1.21062L19.9136 1.21283C19.3334 1.35798 18.7676 1.59484 18.2169 1.91335C13.5008 4.29911 9.4557 7.66433 6.08499 11.9956L6.08417 11.9967C2.67247 16.3927 1 21.9061 1 28.4634C1 33.1183 2.29445 36.7992 5.04 39.3218Z" stroke="#E2F0FF" stroke-width="2"/>
</svg>
