<svg width="61" height="61" viewBox="0 0 61 61" fill="none" xmlns="http://www.w3.org/2000/svg">
<circle cx="30.5" cy="30.5" r="30.5" fill="#00D5A9"/>
<path d="M43.9972 38.3245C43.9972 38.6694 43.9329 39.1208 43.8053 39.6767C43.6777 40.2325 43.5437 40.6702 43.4024 40.9898C43.1335 41.629 42.3542 42.3061 41.0634 43.0223C39.8622 43.6741 38.6726 44 37.4968 44C37.1519 44 36.8166 43.9778 36.4896 43.9325C36.1638 43.8882 35.7957 43.808 35.3876 43.6931C34.9784 43.5781 34.6747 43.4853 34.4765 43.4146C34.2782 43.344 33.9239 43.2132 33.4124 43.0212C32.9009 42.8293 32.5877 42.7143 32.4728 42.6764C31.2199 42.2292 30.1021 41.6986 29.117 41.0848C27.4803 40.0744 25.7899 38.6969 24.0456 36.9523C22.3014 35.2088 20.9242 33.518 19.9148 31.8812C19.301 30.8972 18.7706 29.7781 18.3235 28.525C18.2855 28.4101 18.1705 28.0968 17.9786 27.5852C17.7867 27.0737 17.6559 26.7193 17.5853 26.521C17.5146 26.3227 17.4218 26.019 17.3069 25.6098C17.1919 25.2005 17.1118 24.8335 17.0675 24.5076C17.0221 24.1817 17 23.8463 17 23.5014C17 22.3253 17.3259 21.1367 17.9776 19.9343C18.6936 18.6433 19.3707 17.8628 20.0097 17.5949C20.3303 17.4535 20.768 17.3196 21.3237 17.192C21.8795 17.0643 22.3309 17 22.6757 17C22.855 17 22.9889 17.019 23.0786 17.058C23.3085 17.135 23.647 17.6202 24.0952 18.5156C24.2354 18.7582 24.4274 19.1042 24.6699 19.5514C24.9125 19.9985 25.136 20.4046 25.3406 20.7696C25.5452 21.1335 25.7435 21.4762 25.9354 21.7958C25.9734 21.8464 26.0851 22.0068 26.2707 22.2757C26.4564 22.5447 26.5934 22.7714 26.6831 22.956C26.7727 23.1416 26.817 23.323 26.817 23.5023C26.817 23.7576 26.6346 24.0772 26.2707 24.4611C25.9069 24.845 25.5104 25.1962 25.0823 25.5158C24.6541 25.8354 24.2576 26.1739 23.8938 26.5325C23.5299 26.8901 23.3475 27.1844 23.3475 27.4143C23.3475 27.5292 23.3791 27.6727 23.4435 27.8457C23.5078 28.0186 23.5616 28.1494 23.6069 28.2391C23.6512 28.3287 23.7409 28.4817 23.8758 28.6989C24.0098 28.9162 24.0836 29.0375 24.0962 29.0628C25.0675 30.8147 26.1801 32.3167 27.4328 33.5696C28.6856 34.8226 30.1873 35.9342 31.9389 36.9066C31.9642 36.9193 32.0855 36.9931 32.3027 37.127C32.52 37.261 32.674 37.3506 32.7625 37.396C32.8522 37.4403 32.9829 37.4951 33.1559 37.5595C33.3288 37.6238 33.4723 37.6555 33.5872 37.6555C33.8171 37.6555 34.1113 37.473 34.4688 37.1091C34.8263 36.7452 35.1659 36.3487 35.4854 35.9205C35.805 35.4922 36.1561 35.0957 36.54 34.7318C36.9238 34.3679 37.2434 34.1855 37.4986 34.1855C37.6779 34.1855 37.8593 34.2298 38.0449 34.3194C38.2305 34.4091 38.4572 34.5462 38.7251 34.7318C38.994 34.9174 39.1532 35.0292 39.2049 35.0672C39.5244 35.2592 39.8661 35.4574 40.231 35.6621C40.5948 35.8667 41.0008 36.0903 41.449 36.3329C41.8961 36.5755 42.242 36.7674 42.4846 36.9077C43.3789 37.3549 43.865 37.6935 43.942 37.9244C43.98 38.0141 44 38.148 44 38.3273L43.9972 38.3245Z" fill="white"/>
</svg>
