<svg width="128" height="23" viewBox="0 0 128 23" fill="none" xmlns="http://www.w3.org/2000/svg">
<g clip-path="url(#clip0_467_2976)">
<path fill-rule="evenodd" clip-rule="evenodd" d="M125.356 15.1342C125.356 14.6276 125.73 14.2596 126.198 14.2596C126.66 14.2596 127.039 14.6267 127.039 15.1342C127.039 15.6444 126.66 16.0142 126.198 16.0142C125.73 16.0142 125.356 15.6444 125.356 15.1342ZM125.051 15.1342C125.051 15.8142 125.594 16.2524 126.198 16.2524C126.803 16.2524 127.344 15.8142 127.344 15.1342C127.344 14.4569 126.803 14.0204 126.198 14.0204C125.594 14.0204 125.051 14.456 125.051 15.1342ZM126.001 15.0293V14.7004H126.211C126.323 14.7004 126.467 14.7218 126.467 14.856C126.467 15.0089 126.362 15.0293 126.221 15.0293H126.001ZM126.225 14.5067H125.754V15.7573H126.001V15.2231H126.156L126.46 15.7573H126.72L126.386 15.2116C126.571 15.1964 126.715 15.1067 126.715 14.8773C126.715 14.6053 126.538 14.5067 126.226 14.5067H126.225ZM123.377 21.8107H121.931V17.5707C121.931 16.4133 121.69 15.3547 120.292 15.3547C118.897 15.3547 118.351 16.3022 118.351 17.6498V21.8098H116.904V17.8276C116.904 16.3831 116.695 15.3547 115.298 15.3547C114.253 15.3547 113.323 16.1387 113.323 17.8596V21.8107H111.877V14.1982H113.226V15.3858H113.259C113.403 14.936 114.334 14.0044 115.699 14.0044C116.825 14.0044 117.595 14.4844 118.077 15.4178C118.575 14.4844 119.571 14.0044 120.486 14.0044C122.83 14.0044 123.377 15.6747 123.377 17.3778V21.8107ZM104.098 18.0044C104.098 16.4622 105.06 15.3556 106.603 15.3556C108.144 15.3556 109.107 16.4622 109.107 18.0044C109.107 19.5458 108.144 20.6533 106.603 20.6533C105.06 20.6533 104.098 19.5458 104.098 18.0044ZM102.555 18.0044C102.555 20.2196 104.338 22.0027 106.603 22.0027C108.867 22.0027 110.65 20.2196 110.65 18.0044C110.65 15.7867 108.867 14.0044 106.603 14.0044C104.338 14.0044 102.555 15.7867 102.555 18.0044ZM99.2132 20.6533C100.014 20.6533 100.577 20.3644 101.06 19.8018L102.086 20.8311C101.331 21.6667 100.305 22.0036 99.1946 22.0036C96.8497 22.0036 95.2132 20.3813 95.2132 18.0373C95.2132 15.6907 96.8186 14.0204 99.1955 14.0204C100.305 14.0204 101.364 14.4071 102.118 15.2249L101.027 16.2204C100.497 15.6587 99.9341 15.3698 99.1324 15.3698C97.559 15.3698 96.7546 16.6382 96.7546 18.0676C96.7546 19.4978 97.7181 20.6542 99.2124 20.6542L99.2132 20.6533ZM93.2666 21.9422C92.6888 21.9422 92.2061 21.4613 92.2061 20.8818C92.2061 20.304 92.6879 19.8231 93.2657 19.8231C93.8444 19.8231 94.3252 20.3031 94.3252 20.8809C94.3252 21.4613 93.8452 21.9422 93.2657 21.9422H93.2666ZM4.49502 10.7111V5.23111C4.82125 5.14222 5.44258 5.08267 6.53947 5.08267C8.61236 5.08267 9.8568 6.03111 9.8568 7.83822C9.8568 9.58489 8.52347 10.712 6.27191 10.712H4.49413L4.49502 10.7111ZM10.8488 12.4569C10.8115 12.4418 10.8115 12.3804 10.8488 12.3662C12.5732 11.7449 14.3679 10.0498 14.3732 7.52178C14.3884 1.16978 6.50391 0.997333 0.243468 2.04622C0.115468 2.06844 -0.000976562 2.17956 -0.000976562 2.30844V21.5582C-0.000976562 21.7049 0.0950234 21.8409 0.24169 21.8418H4.19725C4.3448 21.8418 4.46391 21.7156 4.4648 21.568L4.48258 13.9564L5.82125 13.96C7.69325 13.9938 8.55369 14.6507 9.1128 17.1778C9.62658 19.448 10.0924 21.0142 10.3937 21.6916C10.4148 21.7377 10.4492 21.7766 10.4923 21.8033C10.5355 21.83 10.5856 21.8434 10.6364 21.8418H14.7075C14.7946 21.8418 14.8764 21.8169 14.9252 21.7458C14.9499 21.7108 14.9658 21.6704 14.9715 21.628C14.9773 21.5856 14.9727 21.5425 14.9581 21.5022C14.5795 20.4578 14.0595 18.192 13.5146 16.1778C13.0132 14.3342 12.2435 13.024 10.8479 12.4569H10.8488ZM84.5617 22.2089C82.6852 22.2089 80.6239 21.76 79.2346 20.4853C79.1829 20.4381 79.152 20.3723 79.1486 20.3023C79.1453 20.2324 79.1698 20.1639 79.2168 20.112L81.4719 17.6071C81.4969 17.5799 81.5273 17.5582 81.5611 17.5433C81.5949 17.5285 81.6314 17.5208 81.6684 17.5208C81.7053 17.5208 81.7418 17.5285 81.7756 17.5433C81.8095 17.5582 81.8398 17.5799 81.8648 17.6071C82.6337 18.4498 83.5386 18.9164 84.7368 18.9164C85.7172 18.9164 86.7012 18.6551 86.7012 17.9049C86.7012 15.6524 79.391 17.5582 79.391 12.2133C79.391 8.92089 82.3404 7.47645 85.2844 7.47645C87.0444 7.47645 88.9866 7.89511 90.2924 9.13067C90.3182 9.15514 90.3389 9.18456 90.3531 9.21719C90.3673 9.24982 90.3748 9.28498 90.3751 9.32058C90.3755 9.35617 90.3686 9.39147 90.355 9.42436C90.3414 9.45725 90.3213 9.48705 90.2959 9.512L88.0275 11.7547C88.0024 11.7795 87.9726 11.799 87.9399 11.8122C87.9071 11.8253 87.8721 11.8318 87.8368 11.8312C87.8016 11.8306 87.7668 11.823 87.7345 11.8088C87.7022 11.7946 87.6731 11.7741 87.6488 11.7484C87.0372 11.104 86.2595 10.7689 85.3155 10.7689C84.5928 10.7689 83.7244 11.088 83.7244 11.9244C83.7244 14.0044 91.0328 12.2444 91.0328 17.5867C91.0328 21.168 87.5661 22.2089 84.5617 22.2089ZM77.5697 21.5716C77.5697 21.6063 77.5628 21.6408 77.5495 21.6729C77.5362 21.7051 77.5167 21.7343 77.4921 21.7589C77.4675 21.7835 77.4383 21.803 77.4062 21.8163C77.374 21.8296 77.3396 21.8364 77.3048 21.8364H73.5021C73.4319 21.8364 73.3645 21.8085 73.3148 21.7589C73.2652 21.7092 73.2372 21.6418 73.2372 21.5716V0.265778C73.2372 0.119111 73.3555 0 73.5021 0H77.3048C77.4515 0 77.5697 0.119111 77.5697 0.264889V21.5716ZM67.1244 16.4018C67.1244 18.1351 65.5368 19.2364 63.8301 19.2364C62.879 19.2364 61.7804 18.7449 61.7804 17.7067C61.7804 15.7991 64.727 15.6827 66.0559 15.6827H67.0177C67.0317 15.6827 67.0456 15.6854 67.0585 15.6908C67.0715 15.6961 67.0832 15.704 67.0931 15.7139C67.103 15.7238 67.1109 15.7356 67.1162 15.7485C67.1216 15.7615 67.1244 15.7753 67.1244 15.7893V16.4018ZM58.7244 9.51645C58.6972 9.54017 58.6752 9.56915 58.6597 9.60165C58.6441 9.63414 58.6353 9.66946 58.6338 9.70546C58.6323 9.74146 58.6381 9.77738 58.6509 9.81106C58.6638 9.84473 58.6833 9.87544 58.7084 9.90133L60.6319 11.8729C60.6565 11.8985 60.6861 11.9188 60.7188 11.9328C60.7515 11.9467 60.7866 11.9538 60.8221 11.9538C60.8577 11.9538 60.8928 11.9467 60.9255 11.9328C60.9582 11.9188 60.9877 11.8985 61.0124 11.8729C61.9075 10.9529 63.0284 10.3973 64.3501 10.3973C65.8524 10.3973 67.1235 11.3813 67.1235 12.9111C63.5137 12.9111 57.6212 12.9973 57.6212 17.8507C57.6212 20.6818 59.9884 22.184 62.6168 22.184C64.3804 22.184 66.1119 21.5751 67.0666 20.0738H67.1244V21.5724C67.1244 21.7182 67.2426 21.8373 67.3892 21.8373H70.8461C70.9164 21.8373 70.9838 21.8094 71.0334 21.7598C71.0831 21.7101 71.111 21.6427 71.111 21.5724V14.7013C71.111 10.0222 69.7528 7.27733 64.6977 7.27733C62.5128 7.27733 60.303 8.13956 58.7244 9.51645ZM56.4079 10.9929C56.408 11.0277 56.4013 11.0623 56.388 11.0945C56.3747 11.1268 56.3553 11.1561 56.3306 11.1808C56.306 11.2055 56.2768 11.2251 56.2446 11.2384C56.2124 11.2518 56.1779 11.2587 56.143 11.2587H52.5964V15.9369C52.5964 17.4391 52.7688 18.536 54.6461 18.536C54.9955 18.536 55.6088 18.5031 56.0497 18.3378C56.0898 18.3224 56.1331 18.3171 56.1758 18.3223C56.2185 18.3275 56.2593 18.3431 56.2946 18.3676C56.3299 18.3921 56.3586 18.4249 56.3784 18.4631C56.3981 18.5013 56.4083 18.5437 56.4079 18.5867V21.5556C56.4079 21.6711 56.3341 21.7716 56.2248 21.8071C55.3181 22.1004 54.3208 22.1769 53.375 22.1769C50.4861 22.1769 48.2612 20.992 48.2612 17.9307V11.2587H45.7546C45.7197 11.2587 45.6852 11.2518 45.653 11.2384C45.6208 11.2251 45.5916 11.2055 45.567 11.1808C45.5424 11.1561 45.5229 11.1268 45.5096 11.0945C45.4963 11.0623 45.4896 11.0277 45.4897 10.9929V8.05778C45.4897 7.91111 45.6079 7.79289 45.7546 7.79289H48.2612V3.89689C48.2612 3.75022 48.3804 3.632 48.527 3.632H52.3306C52.4772 3.632 52.5955 3.75022 52.5955 3.89689V7.79289H56.143C56.2888 7.79289 56.4079 7.91111 56.4079 8.05778V10.9938V10.9929ZM44.551 21.5867C44.551 21.6568 44.5232 21.724 44.4738 21.7737C44.4243 21.8233 44.3571 21.8513 44.287 21.8516H40.4852C40.4504 21.8517 40.4158 21.8449 40.3836 21.8316C40.3514 21.8184 40.3221 21.7989 40.2974 21.7743C40.2727 21.7497 40.2531 21.7204 40.2397 21.6882C40.2263 21.656 40.2195 21.6215 40.2195 21.5867V14.976C40.2195 13.3582 40.1901 11.28 37.9652 11.28C35.7119 11.28 35.3661 13.0418 35.3661 14.8622V21.5867C35.3659 21.657 35.3378 21.7244 35.288 21.774C35.2382 21.8237 35.1707 21.8516 35.1004 21.8516H31.2977C31.2629 21.8516 31.2285 21.8447 31.1963 21.8314C31.1642 21.8181 31.135 21.7986 31.1104 21.774C31.0858 21.7494 31.0663 21.7202 31.053 21.688C31.0397 21.6559 31.0328 21.6215 31.0328 21.5867V8.07822C31.0328 7.93156 31.151 7.81333 31.2977 7.81333H34.927C35.0728 7.81333 35.1919 7.93156 35.1919 8.07822V9.71911H35.2497C35.8275 8.62133 37.2444 7.46667 39.3528 7.46667C43.7412 7.46667 44.5519 10.3547 44.5519 14.1093V21.5867H44.551ZM19.3564 13.2222C19.4719 11.8658 20.5119 10.5653 22.4177 10.5653C23.9795 10.5653 25.1048 11.7796 25.0764 13.2222H19.3564ZM15.0239 14.8133C15.0239 19.2889 18.4906 22.1778 22.8221 22.1778C24.9804 22.1778 27.1635 21.2516 28.5608 19.6258C28.5848 19.5981 28.6028 19.5656 28.6136 19.5306C28.6244 19.4956 28.6279 19.4587 28.6237 19.4222C28.6195 19.3858 28.6078 19.3506 28.5893 19.319C28.5709 19.2873 28.546 19.2598 28.5164 19.2382L25.9208 17.3333C25.8656 17.2928 25.7968 17.2752 25.7289 17.2842C25.661 17.2931 25.5992 17.3279 25.5564 17.3813C24.8532 18.2596 23.9359 18.8853 22.6204 18.8853C20.9448 18.8853 19.703 17.8151 19.3564 16.1707H29.1439C29.2141 16.1704 29.2813 16.1425 29.331 16.0928C29.3806 16.0432 29.4086 15.976 29.4088 15.9058V14.8124C29.4088 10.3351 26.807 7.43822 22.7626 7.43822C18.1972 7.43822 15.0239 10.3351 15.0239 14.8124V14.8133Z" fill="#0063A4"/>
</g>
<defs>
<clipPath id="clip0_467_2976">
<rect width="128" height="23" fill="white"/>
</clipPath>
</defs>
</svg>
