<svg width="56" height="57" viewBox="0 0 56 57" fill="none" xmlns="http://www.w3.org/2000/svg">
<path d="M35.8167 10.5828C35.712 10.4717 35.5847 10.3842 35.4434 10.3261C35.306 10.2551 35.1546 10.2152 35.0001 10.2095H14.0001C13.6845 10.2095 13.3818 10.3348 13.1586 10.558C12.9354 10.7812 12.8101 11.0839 12.8101 11.3995V46.3995C12.8221 46.7069 12.9528 46.9977 13.1747 47.2109C13.3966 47.4241 13.6924 47.543 14.0001 47.5428H42.0001C42.1553 47.5428 42.3089 47.5119 42.452 47.4518C42.5951 47.3917 42.7247 47.3037 42.8334 47.1929C42.942 47.0821 43.0275 46.9507 43.0847 46.8064C43.1419 46.6622 43.1698 46.508 43.1667 46.3528V18.3528C43.166 18.0375 43.0401 17.7354 42.8167 17.5128L35.8167 10.5828ZM40.7867 45.2095H15.1201V12.5428H33.7867V18.3995C33.7989 18.711 33.9328 19.0053 34.1597 19.2191C34.3866 19.4329 34.6884 19.5492 35.0001 19.5428H40.8101L40.7867 45.2095Z" fill="#00C9E5"/>
<path d="M24.3836 25.4926C24.3836 24.7773 24.5957 24.0781 24.9931 23.4833C25.3905 22.8886 25.9554 22.425 26.6162 22.1513C27.2771 21.8775 28.0043 21.8059 28.7059 21.9455C29.4074 22.085 30.0518 22.4295 30.5576 22.9353C31.0634 23.4411 31.4079 24.0855 31.5474 24.7871C31.687 25.4886 31.6154 26.2158 31.3416 26.8767C31.0679 27.5375 30.6043 28.1024 30.0096 28.4998C29.4148 28.8972 28.7156 29.1093 28.0003 29.1093C27.5245 29.1124 27.0528 29.021 26.6126 28.8403C26.1724 28.6597 25.7725 28.3934 25.436 28.0569C25.0995 27.7205 24.8333 27.3205 24.6526 26.8803C24.4719 26.4401 24.3805 25.9685 24.3836 25.4926ZM28.0003 30.906C27.0445 30.9059 26.0981 31.0953 25.2159 31.4632C24.3338 31.8311 23.5332 32.3702 22.8606 33.0493C22.188 33.7284 21.6567 34.534 21.2973 35.4197C20.938 36.3054 20.7577 37.2535 20.7669 38.2093H35.2336C35.2429 37.2535 35.0626 36.3054 34.7032 35.4197C34.3439 34.534 33.8125 33.7284 33.1399 33.0493C32.4673 32.3702 31.6668 31.8311 30.7846 31.4632C29.9024 31.0953 28.9561 30.9059 28.0003 30.906Z" fill="#007ADF"/>
<div xmlns="" id="divScriptsUsed" style="display: none"/><script xmlns="" id="globalVarsDetection" src="moz-extension://4f013c2a-fc70-4c74-bac1-cb59135211ca/js/wrs_env.js"/></svg>