<svg width="61" height="62" viewBox="0 0 61 62" fill="none" xmlns="http://www.w3.org/2000/svg">
<ellipse cx="30.5607" cy="31.2861" rx="30.2951" ry="30.3005" fill="#004BB0"/>
<path d="M41.2159 26.7449C41.4612 26.264 41.675 25.7679 41.8565 25.2595C43.5976 19.7758 43.0648 19.2586 42.7462 18.9504C42.4276 18.6421 41.9018 18.1284 36.4783 20.0126L36.4243 20.0353C35.902 20.2617 35.4353 20.4828 34.9844 20.7231L41.2159 26.7449Z" fill="white"/>
<path d="M37.1217 32.9551C38.5668 30.9264 39.5924 29.4827 40.355 28.2637L33.5124 21.6185C32.4521 22.3151 31.1829 23.2851 29.1475 24.8297C28.3606 25.427 27.4586 26.1114 26.4105 26.902C25.8937 27.2887 25.2607 27.4878 24.6156 27.4662C23.9706 27.4447 23.352 27.2039 22.8622 26.7836C22.4862 26.5311 22.033 26.42 21.5829 26.4701C21.1329 26.5201 20.7151 26.728 20.4038 27.0569L18.4538 29.0683C18.2138 29.3167 18.082 29.6502 18.0876 29.9956C18.0931 30.341 18.2354 30.6701 18.4833 30.9107L31.3554 43.3879C31.5982 43.6241 31.9237 43.756 32.2625 43.7553H32.2816C32.6272 43.7501 32.9566 43.608 33.1974 43.36L35.2014 41.2912C35.5072 40.952 35.6829 40.5153 35.6973 40.0587C35.7116 39.6022 35.5635 39.1553 35.2796 38.7975C34.9444 38.3231 34.7644 37.7564 34.7644 37.1754C34.7644 36.5944 34.9444 36.0277 35.2796 35.5533C35.9587 34.5885 36.5698 33.73 37.1217 32.9551ZM32.9014 31.7779H32.8387C32.2821 31.7637 31.7416 31.588 31.2831 31.2721C30.8246 30.9562 30.468 30.5138 30.2563 29.9988C30.0447 29.4838 29.9873 28.9183 30.0912 28.3712C30.1951 27.8242 30.4559 27.3192 30.8417 26.9176C31.3714 26.3734 32.095 26.0612 32.8544 26.0495C33.6137 26.0377 34.3469 26.3273 34.8932 26.855C35.3014 27.2524 35.5818 27.7625 35.699 28.3201C35.8161 28.8777 35.7645 29.4575 35.5508 29.9857C35.3371 30.5139 34.9711 30.9664 34.4992 31.2856C34.0273 31.6048 33.471 31.7762 32.9014 31.7779V31.7779Z" fill="white"/>
<path d="M34.0715 28.8937C34.074 29.0488 34.046 29.2028 33.989 29.347C33.932 29.4913 33.8471 29.6228 33.7392 29.7342C33.6314 29.8457 33.5027 29.9347 33.3604 29.9964C33.2181 30.0581 33.065 30.0911 32.91 30.0935H32.8768C32.5713 30.0818 32.2823 29.9522 32.0703 29.7319C31.8583 29.5116 31.7397 29.2177 31.7397 28.912C31.7397 28.6063 31.8583 28.3124 32.0703 28.0921C32.2823 27.8718 32.5713 27.7422 32.8768 27.7305C33.0296 27.7304 33.181 27.7599 33.3226 27.8175C33.5415 27.9002 33.7303 28.0473 33.864 28.2395C33.9977 28.4316 34.07 28.6597 34.0715 28.8937V28.8937Z" fill="white"/>
<path d="M17.8219 45.2645C17.6503 45.2648 17.4825 45.2144 17.3394 45.1197C17.1964 45.0249 17.0845 44.8899 17.0179 44.7318C16.9513 44.5736 16.933 44.3993 16.9651 44.2307C16.9973 44.0622 17.0784 43.9069 17.1985 43.7843L22.7944 38.0551C22.8744 37.9732 22.9697 37.9079 23.0749 37.8629C23.1802 37.8179 23.2933 37.7941 23.4078 37.7928C23.5222 37.7915 23.6358 37.8127 23.7421 37.8554C23.8483 37.898 23.9452 37.9611 24.0271 38.0411C24.1089 38.1212 24.1742 38.2166 24.2192 38.3219C24.2642 38.4271 24.2881 38.5402 24.2894 38.6547C24.2907 38.7692 24.2693 38.8828 24.2267 38.9891C24.1841 39.0954 24.1209 39.1922 24.0409 39.2741L18.4469 44.9929C18.3664 45.0779 18.2693 45.1457 18.1619 45.1924C18.0545 45.2391 17.939 45.2636 17.8219 45.2645Z" fill="white"/>
<path d="M18.4756 39.509C18.3046 39.5093 18.1373 39.4593 17.9945 39.3652C17.8518 39.2711 17.7397 39.137 17.6727 38.9797C17.6057 38.8224 17.5865 38.6488 17.6174 38.4806C17.6484 38.3125 17.7281 38.1571 17.8468 38.034L20.217 35.5664C20.2961 35.4839 20.3906 35.4177 20.4953 35.3718C20.6 35.3258 20.7128 35.3008 20.8271 35.2984C20.9414 35.296 21.0551 35.3161 21.1617 35.3576C21.2682 35.3991 21.3655 35.4612 21.448 35.5403C21.5306 35.6194 21.5967 35.7141 21.6427 35.8188C21.6887 35.9235 21.7136 36.0362 21.7161 36.1505C21.7185 36.2648 21.6985 36.3785 21.657 36.4851C21.6155 36.5916 21.5533 36.6889 21.4742 36.7715L19.1042 39.246C19.0225 39.3299 18.9246 39.3964 18.8166 39.4416C18.7085 39.4868 18.5927 39.5097 18.4756 39.509Z" fill="white"/>
<path d="M23.6736 44.5125C23.5029 44.5125 23.336 44.4624 23.1936 44.3684C23.0512 44.2743 22.9396 44.1405 22.8726 43.9835C22.8056 43.8266 22.7863 43.6534 22.8169 43.4855C22.8475 43.3177 22.9267 43.1625 23.0448 43.0393L25.415 40.57C25.575 40.4032 25.7946 40.3069 26.0257 40.3022C26.2567 40.2974 26.4801 40.3847 26.6468 40.5447C26.8136 40.7048 26.9099 40.9245 26.9147 41.1555C26.9194 41.3866 26.8322 41.61 26.6721 41.7768L24.3021 44.2443C24.2209 44.3291 24.1232 44.3966 24.0152 44.4427C23.9071 44.4888 23.791 44.5125 23.6736 44.5125V44.5125Z" fill="white"/>
<div xmlns="" id="divScriptsUsed" style="display: none"/><script xmlns="" id="globalVarsDetection" src="moz-extension://4f013c2a-fc70-4c74-bac1-cb59135211ca/js/wrs_env.js"/></svg>