<svg width="56" height="57" viewBox="0 0 56 57" fill="none" xmlns="http://www.w3.org/2000/svg">
<path d="M41.6778 17.5684L34.7011 10.5918C34.5985 10.4782 34.4706 10.3903 34.3278 10.3352C34.1808 10.2707 34.0216 10.2389 33.8611 10.2419H12.9078C12.5925 10.2431 12.2906 10.3689 12.0677 10.5918C11.8447 10.8147 11.719 11.1165 11.7178 11.4318V46.3619C11.719 46.6771 11.8447 46.9791 12.0677 47.202C12.2906 47.4249 12.5925 47.5506 12.9078 47.5519H31.7144C30.9006 46.8667 30.1929 46.0646 29.6144 45.1718H14.0977V12.6218H32.6711V18.4086C32.6723 18.7238 32.7981 19.0258 33.021 19.2487C33.2439 19.4716 33.5459 19.5972 33.8611 19.5984H39.6711V28.9551C40.4756 29.0371 41.2671 29.2174 42.0278 29.4919V18.4086C42.0299 18.2521 41.9999 18.0967 41.9397 17.9523C41.8795 17.8078 41.7904 17.6771 41.6778 17.5684Z" fill="#00C9E5"/>
<path d="M32.3677 30.8454C31.1491 31.7133 30.1281 32.8295 29.372 34.1205C28.616 35.4115 28.1419 36.848 27.9811 38.3354H19.9077V35.8154C19.9059 34.8669 20.091 33.9274 20.4524 33.0505C20.8138 32.1736 21.3444 31.3765 22.014 30.7048C22.6836 30.0331 23.4789 29.4999 24.3546 29.1357C25.2304 28.7714 26.1693 28.5833 27.1177 28.5821C28.1015 28.5777 29.0755 28.7765 29.9789 29.166C30.8823 29.5555 31.6955 30.1271 32.3677 30.8454Z" fill="#007ADF"/>
<path d="M27.1246 26.7711C29.1207 26.7711 30.7389 25.153 30.7389 23.1568C30.7389 21.1607 29.1207 19.5425 27.1246 19.5425C25.1284 19.5425 23.5103 21.1607 23.5103 23.1568C23.5103 25.153 25.1284 26.7711 27.1246 26.7711Z" fill="#007ADF"/>
<path d="M48.3182 47.4654L45.0679 44.215C46.1286 42.8078 46.7019 41.0934 46.7013 39.3313C46.7017 37.708 46.2208 36.121 45.3192 34.7712C44.4177 33.4213 43.136 32.3691 41.6364 31.7477C40.1368 31.1263 38.4866 30.9636 36.8945 31.2801C35.3024 31.5967 33.84 32.3783 32.6922 33.5262C31.5444 34.674 30.7627 36.1365 30.4461 37.7286C30.1296 39.3206 30.2923 40.9708 30.9137 42.4704C31.5351 43.97 32.5873 45.2517 33.9372 46.1533C35.2871 47.0548 36.874 47.5357 38.4972 47.5353C40.2587 47.5365 41.9726 46.963 43.3786 45.9019L46.6289 49.1547C46.8558 49.3638 47.1548 49.4771 47.4634 49.4707C47.7719 49.4643 48.066 49.3389 48.284 49.1205C48.5021 48.9021 48.6272 48.6079 48.6331 48.2993C48.6391 47.9908 48.5254 47.6919 48.3159 47.4654H48.3182ZM38.4926 45.132C37.3452 45.1325 36.2235 44.7926 35.2693 44.1555C34.3151 43.5184 33.5712 42.6126 33.1318 41.5527C32.6924 40.4928 32.5772 39.3265 32.8008 38.2011C33.0243 37.0757 33.5766 36.0419 34.3877 35.2304C35.1989 34.419 36.2325 33.8662 37.3577 33.6422C38.483 33.4182 39.6495 33.533 40.7095 33.9719C41.7696 34.4109 42.6757 35.1545 43.3132 36.1084C43.9507 37.0624 44.2909 38.1839 44.2909 39.3313C44.2891 40.8704 43.6764 42.3458 42.5874 43.4334C41.4985 44.5211 40.0223 45.132 38.4833 45.132H38.4926Z" fill="#007ADF"/>
<div xmlns="" id="divScriptsUsed" style="display: none"/><script xmlns="" id="globalVarsDetection" src="moz-extension://4f013c2a-fc70-4c74-bac1-cb59135211ca/js/wrs_env.js"/></svg>