<svg width="60" height="60" viewBox="0 0 60 60" fill="none" xmlns="http://www.w3.org/2000/svg">
<circle cx="30" cy="30" r="30" fill="#00C9E5"/>
<path d="M23.1629 44.4558C23.2707 44.5043 23.3754 44.5605 23.4833 44.6074C21.4984 45.5124 19.6979 46 18.2099 46C16.9173 46 15.8608 45.6405 15.1044 44.8872C13.5352 43.318 13.6446 40.358 15.3919 36.5334C15.6764 37.1648 15.9999 37.7775 16.361 38.362C15.4013 40.8908 15.3404 42.8552 16.2375 43.7554C17.1377 44.651 19.1023 44.5916 21.6309 43.632C22.0795 43.9086 22.5468 44.1556 23.0235 44.3837C23.0673 44.4166 23.1142 44.4353 23.1626 44.4556L23.1629 44.4558ZM44.8891 15.1044C43.3199 13.5352 40.3599 13.6446 36.5353 15.3919C37.1667 15.6764 37.7794 15.9999 38.3639 16.361C40.8927 15.4013 42.8603 15.3404 43.7573 16.2375C44.6529 17.1377 44.5935 19.1023 43.6339 21.6309C43.9136 22.0826 44.1746 22.5546 44.4059 23.036C44.4372 23.0876 44.4622 23.1438 44.4825 23.2001C44.5263 23.2954 44.57 23.3955 44.6138 23.4924C46.3049 19.7773 46.5096 16.7281 44.8889 15.1041L44.8891 15.1044ZM33.394 16.0015C35.207 18.3583 36.4589 22.608 36.7387 27.7842C37.1388 27.6639 37.5592 27.5967 37.9984 27.5967C38.722 27.5967 39.4034 27.7764 40.0067 28.0843C41.1383 26.5042 42.0916 24.9476 42.8278 23.4627C40.9398 19.7742 37.5108 17.0018 33.3941 16.0015L33.394 16.0015ZM15.6173 30.7962C15.9048 36.046 19.0229 40.5553 23.463 42.8275C23.5708 42.7712 23.6833 42.7196 23.7943 42.6587C24.2944 42.4024 24.8024 42.1179 25.3181 41.8147C24.0694 39.0983 23.2864 35.2365 23.2019 30.7961L15.6173 30.7962ZM42.3996 31.9966C42.3996 34.4253 40.4272 36.3977 37.9985 36.3977C37.4061 36.3977 36.8419 36.2774 36.3261 36.0664C35.7666 39.483 34.7335 42.2525 33.3941 43.9921C39.4521 42.5199 44.025 37.2139 44.3766 30.7966H42.2276C42.3402 31.1811 42.3996 31.5812 42.3996 31.9969L42.3996 31.9966ZM26.6002 16.0015C20.5422 17.4738 15.9694 22.7797 15.6177 29.197H23.2041C23.3151 23.3831 24.6232 18.5694 26.6003 16.0015H26.6002ZM25.3686 43.6325C25.7734 43.7685 26.1813 43.8919 26.6002 43.992C26.4158 43.756 26.2439 43.5043 26.0719 43.2324C25.8359 43.3684 25.5999 43.5043 25.3686 43.6325V43.6325ZM41.2729 29.0646C41.3135 29.1083 41.3526 29.1521 41.3932 29.1959H44.3784C44.3065 27.8643 44.0471 26.5795 43.6344 25.3667C42.9639 26.5717 42.1731 27.8127 41.2729 29.0646L41.2729 29.0646ZM33.5972 31.9966C33.5972 31.5809 33.6566 31.1807 33.7692 30.7963H24.8044C24.8919 35.0178 25.6561 38.542 26.7127 40.9506C29.2649 39.2783 31.9189 37.098 34.4427 34.5801C33.9145 33.8533 33.5972 32.9609 33.5972 31.9966H33.5972ZM34.6069 29.1959C34.7788 28.988 34.9663 28.8004 35.1758 28.6269C34.8976 20.8781 32.3219 15.5922 29.9964 15.5922C27.6161 15.5922 24.967 21.1373 24.803 29.1959L34.6069 29.1959ZM27.4486 42.3806C28.2441 43.6809 29.1365 44.4014 29.9977 44.4014C31.7388 44.4014 33.6221 41.4319 34.5709 36.687C32.2296 38.9157 29.8008 40.8521 27.4486 42.3805L27.4486 42.3806ZM37.9982 29.1959C36.454 29.1959 35.1974 30.4524 35.1974 31.9966C35.1974 33.5408 36.454 34.7974 37.9982 34.7974C39.5424 34.7974 40.7989 33.5408 40.7989 31.9966C40.7989 30.4524 39.5439 29.1959 37.9982 29.1959Z" fill="white"/>
</svg>
